<?xml version="1.0" encoding="utf-8"?>
<!-- Generator: Adobe Illustrator 27.0.1, SVG Export Plug-In . SVG Version: 6.00 Build 0)  -->
<svg version="1.1" id="Слой_1" xmlns="http://www.w3.org/2000/svg" xmlns:xlink="http://www.w3.org/1999/xlink" x="0px" y="0px"
	 viewBox="0 0 76 76" style="enable-background:new 0 0 76 76;" xml:space="preserve">
<style type="text/css">
	.st0{fill:#00CC99;}
	.st1{fill:#006633;}
	.st2{fill:#009966;}
	.st3{fill:#FFFFFF;}
</style>
<path class="st0" d="M64.2,25.6c0-1-0.2-1.9-0.7-2.7c-0.4-0.8-1.1-1.4-1.9-1.9C54.6,17,47.5,13,40.4,8.9c-1.9-1.1-3.8-1.1-5.7,0.1
	c-2.8,1.7-16.9,9.8-21.2,12.2c-1.7,1-2.6,2.5-2.6,4.5c0,8.2,0,16.4,0,24.7c0,1,0.2,1.9,0.6,2.6c0.4,0.8,1.1,1.4,2,1.9
	c4.2,2.4,18.3,10.5,21.2,12.2c1.9,1.1,3.7,1.2,5.7,0.1c7.1-4.1,14.2-8.2,21.3-12.3c0.9-0.5,1.5-1.2,2-1.9c0.4-0.8,0.6-1.6,0.6-2.6
	C64.2,50.3,64.2,33.9,64.2,25.6"/>
<path class="st1" d="M37.7,37.9l-26.1,15c0.4,0.8,1.1,1.4,2,1.9c4.2,2.4,18.3,10.5,21.2,12.2c1.9,1.1,3.7,1.2,5.7,0.1
	c7.1-4.1,14.2-8.2,21.3-12.3c0.9-0.5,1.5-1.2,2-1.9L37.7,37.9"/>
<path class="st1" d="M30,42.3c1.5,2.6,4.4,4.4,7.6,4.4c3.3,0,6.2-1.8,7.7-4.5l-7.6-4.4L30,42.3"/>
<path class="st2" d="M64.2,25.6c0-1-0.2-1.9-0.7-2.7L37.7,37.9l25.9,15c0.4-0.8,0.6-1.6,0.6-2.6C64.2,50.3,64.2,33.9,64.2,25.6"/>
<path class="st3" d="M45.3,42.3c-1.5,2.7-4.4,4.5-7.7,4.5c-3.3,0-6.1-1.8-7.6-4.4c-0.8-1.3-1.2-2.8-1.2-4.4c0-4.9,3.9-8.8,8.8-8.8
	c3.3,0,6.1,1.8,7.6,4.4l7.7-4.4c-3.1-5.3-8.8-8.8-15.3-8.8c-9.8,0-17.7,7.9-17.7,17.7c0,3.2,0.9,6.2,2.3,8.8
	c3.1,5.3,8.8,8.9,15.3,8.9c6.6,0,12.3-3.6,15.4-8.9L45.3,42.3z"/>
</svg>
