<?xml version="1.0" encoding="utf-8"?>
<!-- Generator: Adobe Illustrator 27.0.1, SVG Export Plug-In . SVG Version: 6.00 Build 0)  -->
<svg version="1.1" id="Слой_1" xmlns="http://www.w3.org/2000/svg" xmlns:xlink="http://www.w3.org/1999/xlink" x="0px" y="0px"
	 viewBox="0 0 65.1 65.1" style="enable-background:new 0 0 65.1 65.1;" xml:space="preserve">
<style type="text/css">
	.st0{fill:#2396ED;}
</style>
<path class="st0" d="M61.6,27.4c-1.4-0.9-4.4-1.3-6.9-0.8c-0.3-2.4-1.6-4.4-3.8-6.3l-1.3-0.9l-0.9,1.4c-1.1,1.8-1.7,4.3-1.5,6.6
	c0.1,0.8,0.3,2.3,1.2,3.6C47.6,31.4,46,32,43.8,32H3.1L3,32.4c-0.4,2.4-0.4,9.7,4.2,15.4c3.5,4.3,8.7,6.5,15.5,6.5
	c14.7,0,25.7-7.1,30.8-20.1c2,0.1,6.4,0,8.6-4.4c0.1-0.1,0.2-0.4,0.6-1.2l0.2-0.5L61.6,27.4z M35.7,10.7h-6.2v5.9h6.2V10.7z
	 M35.7,17.8h-6.2v5.9h6.2V17.8L35.7,17.8z M28.4,17.8h-6.2v5.9h6.2V17.8L28.4,17.8z M21,17.8h-6.2v5.9H21V17.8L21,17.8z M13.7,24.9
	H7.5v5.9h6.2L13.7,24.9L13.7,24.9z M21,24.9h-6.2v5.9H21V24.9L21,24.9z M28.4,24.9h-6.2v5.9h6.2V24.9L28.4,24.9z M35.7,24.9h-6.2
	v5.9h6.2V24.9L35.7,24.9z M43,24.9h-6.2v5.9H43V24.9L43,24.9z"/>
</svg>
