<?xml version="1.0" encoding="utf-8"?>
<!-- Generator: Adobe Illustrator 27.0.1, SVG Export Plug-In . SVG Version: 6.00 Build 0)  -->
<svg version="1.1" id="Ebene_1" xmlns="http://www.w3.org/2000/svg" xmlns:xlink="http://www.w3.org/1999/xlink" x="0px" y="0px"
	 viewBox="0 0 170.8 170.8" style="enable-background:new 0 0 170.8 170.8;" xml:space="preserve">
<style type="text/css">
	.st0{fill:#F08705;}
	.st1{fill:#DF6C0C;}
	.st2{fill:#FFFFFF;}
</style>
<g>
	<path class="st0" d="M166.2,159.3c0,3.9-3.2,6.9-6.9,6.9H11.5c-3.9,0-6.9-3.2-6.9-6.9V11.5c0-3.9,3.2-6.9,6.9-6.9h147.8
		c3.9,0,6.9,3.2,6.9,6.9L166.2,159.3L166.2,159.3z"/>
	<g>
		<path class="st1" d="M166.2,159.3c0,3.9-3.2,6.9-6.9,6.9H59.9l-32.2-32.7l20-32.7L107.1,27L166,87.7L166.2,159.3z"/>
	</g>
	<path class="st2" d="M137.3,94.9h-17l-18-30.6c4-0.8,7-4.4,7-8.6V32.6c0-4.9-3.9-8.8-8.8-8.8h-30c-4.9,0-8.8,3.9-8.8,8.8v23.1
		c0,4.3,3,7.8,6.9,8.6L50.6,95h-17c-4.9,0-8.8,3.9-8.8,8.8v23.1c0,4.9,3.9,8.8,8.8,8.8h30c4.9,0,8.8-3.9,8.8-8.8v-23.1
		c0-4.9-3.9-8.8-8.8-8.8h-2.9l17.8-30.4h13.9L110.3,95h-3c-4.9,0-8.8,3.9-8.8,8.8v23.1c0,4.9,3.9,8.8,8.8,8.8h30
		c4.9,0,8.8-3.9,8.8-8.8v-23.1C146.1,98.9,142.2,94.9,137.3,94.9z"/>
</g>
</svg>
