<?xml version="1.0" encoding="utf-8"?>
<!-- Generator: Adobe Illustrator 27.0.1, SVG Export Plug-In . SVG Version: 6.00 Build 0)  -->
<svg version="1.1" id="Слой_1" xmlns="http://www.w3.org/2000/svg" xmlns:xlink="http://www.w3.org/1999/xlink" x="0px" y="0px"
	 viewBox="0 0 76 76" style="enable-background:new 0 0 76 76;" xml:space="preserve">
<style type="text/css">
	.st0{fill:#185C37;}
	.st1{fill:#107C41;}
	.st2{fill:#21A366;}
	.st3{fill:#33C481;}
	.st4{fill:#138146;}
	.st5{fill:#FFFFFF;}
	.st6{font-family:'ArialMT';}
	.st7{font-size:35.3586px;}
</style>
<path class="st0" d="M46.6,69.2H25.1c-2.2,0-4-1.8-4-4V53.7h25.5V69.2z"/>
<path class="st0" d="M68.1,69.2H46.6V53.7h25.5v11.5C72.1,67.5,70.3,69.2,68.1,69.2z"/>
<rect x="21.1" y="38.2" class="st0" width="25.5" height="15.5"/>
<rect x="46.6" y="38.2" class="st1" width="25.5" height="15.5"/>
<rect x="21.1" y="22.7" class="st1" width="25.5" height="15.5"/>
<rect x="46.6" y="22.7" class="st2" width="25.5" height="15.5"/>
<path class="st2" d="M46.6,22.7H21.1V11.1c0-2.2,1.8-4,4-4h21.5V22.7z"/>
<path class="st3" d="M72.1,22.7H46.6V7.1h21.5c2.2,0,4,1.8,4,4V22.7z"/>
<path class="st4" d="M34.3,55.4H7.9c-2.2,0-4-1.8-4-4V25c0-2.2,1.8-4,4-4h26.4c2.2,0,4,1.8,4,4v26.4C38.3,53.6,36.5,55.4,34.3,55.4z
	"/>
<text transform="matrix(1 0 0 1 12.6341 47.8982)" class="st5 st6 st7">x</text>
</svg>
