<?xml version="1.0" encoding="utf-8"?>
<!-- Generator: Adobe Illustrator 23.0.0, SVG Export Plug-In . SVG Version: 6.00 Build 0)  -->
<svg version="1.1" id="Слой_1" xmlns="http://www.w3.org/2000/svg" xmlns:xlink="http://www.w3.org/1999/xlink" x="0px" y="0px"
	 viewBox="0 0 128 128" style="enable-background:new 0 0 128 128;" xml:space="preserve">
<style type="text/css">
	.st0{fill:#FC6D26;}
	.st1{fill:#E24329;}
	.st2{fill:#FCA326;}
	.st3{fill:#FFFFFF;}
</style>
<path class="st0" d="M126.6,72.3l-7-21.6L105.6,7.8c-0.7-2.2-3.8-2.2-4.6,0L87.1,50.7H40.9L26.9,7.8c-0.7-2.2-3.8-2.2-4.6,0
	L8.4,50.7l-7,21.6c-0.6,2,0.1,4.1,1.7,5.4L64,121.9l60.9-44.2C126.6,76.4,127.3,74.3,126.6,72.3"/>
<path class="st1" d="M64,121.9l23.1-71.2H40.9L64,121.9L64,121.9z"/>
<path class="st0" d="M64,121.9L40.9,50.7H8.4L64,121.9L64,121.9z"/>
<path class="st2" d="M8.4,50.7l-7,21.6c-0.6,2,0.1,4.1,1.7,5.4L64,121.9L8.4,50.7L8.4,50.7z"/>
<path class="st1" d="M8.4,50.7h32.4L26.9,7.8c-0.7-2.2-3.8-2.2-4.6,0L8.4,50.7L8.4,50.7z"/>
<path class="st0" d="M64,121.9l23.1-71.2h32.4L64,121.9L64,121.9z"/>
<path class="st2" d="M119.6,50.7l7,21.6c0.6,2-0.1,4.1-1.7,5.4L64,121.9L119.6,50.7L119.6,50.7z"/>
<path class="st1" d="M119.6,50.7H87.1l13.9-42.9c0.7-2.2,3.8-2.2,4.6,0L119.6,50.7L119.6,50.7z"/>
<g>
	<g>
		<path class="st3" d="M37.9,76.9v12.7h-4.4V76.9L24,58.3h4.9l6.8,14.1l6.8-14.1h4.9L37.9,76.9z"/>
		<path class="st3" d="M73,58.3h4.1v31.2h-4.3V66.2l0.2,1.4l-7.7,17.7h-3.1L54.7,68l0.2-1.8v23.4h-4.3V58.3h4.1L63.9,79L73,58.3z"/>
		<path class="st3" d="M84.9,58.3h4.4v31.2h-4.4V58.3z M87.1,85.4h17.9v4.2H87.1V85.4z"/>
	</g>
</g>
</svg>
