<?xml version="1.0" encoding="utf-8"?>
<!-- Generator: Adobe Illustrator 23.0.0, SVG Export Plug-In . SVG Version: 6.00 Build 0)  -->
<svg version="1.1" id="Слой_4" xmlns="http://www.w3.org/2000/svg" xmlns:xlink="http://www.w3.org/1999/xlink" x="0px" y="0px"
	 viewBox="0 0 90 90" style="enable-background:new 0 0 90 90;" xml:space="preserve">
<style type="text/css">
	.st0{fill:#33FF99;}
	.st1{fill:#FF9999;}
	.st2{fill:#FFFFFF;}
</style>
<path d="M66.5,86.1h-43c-6.6,0-12-5.4-12-12V15.9c0-6.6,5.4-12,12-12h43c6.6,0,12,5.4,12,12v58.2C78.5,80.7,73.1,86.1,66.5,86.1z"/>
<path class="st0" d="M53,77.2H18.1c-1.6,0-3-1.3-3-3v-6c0-1.6,1.4-3,3-3H53V77.2z"/>
<path class="st1" d="M53,77.2h19c1.7,0,3-1.3,3-3v-6c0-1.6-1.3-3-3-3H53V77.2z"/>
<g>
	<g>
		<path class="st2" d="M45.1,60.5c-5.5,0-9.7-1.5-12.7-4.6c-3-3.1-4.5-7.3-4.5-12.8h7c0,3.5,0.9,6.2,2.7,8.2
			c1.8,1.9,4.3,2.9,7.6,2.9c3.2,0,5.6-1,7.4-2.9s2.6-4.7,2.6-8.2V9.9h7v33.2c0,5.5-1.5,9.8-4.5,12.9C54.7,59,50.5,60.5,45.1,60.5z
			 M42.2,16.6V9.9h16.4v6.7H42.2z"/>
	</g>
</g>
</svg>
