<?xml version="1.0" encoding="utf-8"?>
<!-- Generator: Adobe Illustrator 23.0.0, SVG Export Plug-In . SVG Version: 6.00 Build 0)  -->
<svg version="1.1" id="Слой_4" xmlns="http://www.w3.org/2000/svg" xmlns:xlink="http://www.w3.org/1999/xlink" x="0px" y="0px"
	 viewBox="0 0 100 100" style="enable-background:new 0 0 100 100;" xml:space="preserve">
<style type="text/css">
	.st0{fill:#FFFF33;}
	.st1{fill:#00FF66;}
	.st2{fill:#CC3366;}
</style>
<path class="st0" d="M65.3,91.1h-43c-6.6,0-12-5.4-12-12V20.9c0-6.6,5.4-12,12-12h43c6.6,0,12,5.4,12,12v58.2
	C77.3,85.7,71.9,91.1,65.3,91.1z"/>
<path class="st1" d="M69,52.4H31.9c-6.6,0-12,5.4-12,12v5.1c0,6.6,5.4,12,12,12H69V52.4z"/>
<path class="st2" d="M69,52.4h11.7c6.6,0,12,5.4,12,12v5.1c0,6.6-5.4,12-12,12H69V52.4z"/>
<g>
	<g>
		<path d="M29.6,69.7c-2.3-1.1-4.1-2.6-5.6-4.6l5.9-4.2c0.7,1.1,1.6,2,2.8,2.7c1.2,0.6,2.7,0.9,4.3,0.9c2.8,0,5-0.9,6.5-2.6
			c1.5-1.7,2.3-4.2,2.3-7.3V19.7h7.2v34.9c0,3.5-0.6,6.6-1.9,9.1c-1.2,2.5-3.1,4.4-5.4,5.7c-2.4,1.3-5.3,2-8.6,2
			C34.4,71.3,31.9,70.8,29.6,69.7z"/>
	</g>
</g>
</svg>
