<?xml version="1.0" encoding="utf-8"?>
<!-- Generator: Adobe Illustrator 27.0.1, SVG Export Plug-In . SVG Version: 6.00 Build 0)  -->
<svg version="1.1" id="Слой_4" xmlns="http://www.w3.org/2000/svg" xmlns:xlink="http://www.w3.org/1999/xlink" x="0px" y="0px"
	 viewBox="0 0 90 90" style="enable-background:new 0 0 90 90;" xml:space="preserve">
<style type="text/css">
	.st0{fill:#66CC99;}
	.st1{fill:#FFFFFF;}
</style>
<path class="st0" d="M66.5,86.1h-43c-6.6,0-12-5.4-12-12V15.9c0-6.6,5.4-12,12-12h43c6.6,0,12,5.4,12,12v58.2
	C78.5,80.7,73.1,86.1,66.5,86.1z"/>
<g>
	<g>
		<path class="st1" d="M43.1,65.9c-4.6,0-8.1-1.3-10.6-3.8c-2.5-2.5-3.7-6.1-3.7-10.7h5.9c0,2.9,0.7,5.2,2.2,6.8s3.6,2.4,6.3,2.4
			s4.7-0.8,6.1-2.4s2.2-3.9,2.2-6.8V23.7h5.9v27.7c0,4.6-1.3,8.2-3.8,10.7C51.1,64.6,47.6,65.9,43.1,65.9z M40.7,29.2v-5.6h13.7v5.6
			H40.7z"/>
	</g>
</g>
</svg>
