<?xml version="1.0" encoding="utf-8"?>
<!-- Generator: Adobe Illustrator 27.0.1, SVG Export Plug-In . SVG Version: 6.00 Build 0)  -->
<svg version="1.1" id="Слой_1" xmlns="http://www.w3.org/2000/svg" xmlns:xlink="http://www.w3.org/1999/xlink" x="0px" y="0px"
	 viewBox="0 0 66.2 66.2" style="enable-background:new 0 0 66.2 66.2;" xml:space="preserve">
<style type="text/css">
	.st0{fill:#0074BD;}
	.st1{fill:#FF6600;}
</style>
<path class="st0" d="M24.2,48.6c0,0-2.3,1.3,1.6,1.8c4.8,0.5,7.2,0.5,12.4-0.5c0,0,1.4,0.9,3.3,1.6C29.8,56.5,14.9,51.2,24.2,48.6z
	 M22.7,42c0,0-2.6,1.9,1.4,2.3c5.1,0.5,9.1,0.6,16-0.8c0,0,1,1,2.5,1.5C28.4,49.2,12.6,45.4,22.7,42L22.7,42z"/>
<path class="st1" d="M34.8,30.9c2.9,3.3-0.8,6.3-0.8,6.3s7.3-3.8,4-8.5c-3.2-4.4-5.6-6.6,7.5-14.2C45.5,14.5,25,19.6,34.8,30.9
	L34.8,30.9z"/>
<path class="st0" d="M50.4,53.5c0,0,1.7,1.4-1.9,2.5c-6.8,2.1-28.2,2.7-34.2,0.1c-2.1-0.9,1.9-2.2,3.1-2.5c1.3-0.3,2.1-0.2,2.1-0.2
	c-2.4-1.7-15.4,3.3-6.6,4.7C36.9,61.9,56.6,56.3,50.4,53.5L50.4,53.5z M25.3,35.2c0,0-10.9,2.6-3.9,3.5c3,0.4,8.9,0.3,14.4-0.2
	c4.5-0.4,9-1.2,9-1.2s-1.6,0.7-2.7,1.5C31,41.7,9.6,40.4,15.8,37.4C21,34.9,25.3,35.2,25.3,35.2L25.3,35.2z M44.8,46.2
	c11.3-5.8,6.1-11.5,2.4-10.7c-0.9,0.2-1.3,0.3-1.3,0.3s0.3-0.5,1-0.7c7.2-2.5,12.7,7.5-2.3,11.4C44.6,46.5,44.8,46.3,44.8,46.2
	L44.8,46.2z"/>
<path class="st1" d="M38,2.2c0,0,6.2,6.2-5.9,15.8c-9.7,7.7-2.2,12.1,0,17.1c-5.7-5.1-9.9-9.6-7.1-13.9C29.2,15.1,40.5,12.1,38,2.2
	L38,2.2z"/>
<path class="st0" d="M26.4,62c10.8,0.7,27.4-0.4,27.8-5.5c0,0-0.8,1.9-8.9,3.5c-9.2,1.7-20.6,1.5-27.3,0.4
	C17.9,60.4,19.3,61.6,26.4,62L26.4,62z"/>
</svg>
