<?xml version="1.0" encoding="utf-8"?>
<!-- Generator: Adobe Illustrator 23.0.0, SVG Export Plug-In . SVG Version: 6.00 Build 0)  -->
<svg version="1.1" id="Слой_1" xmlns="http://www.w3.org/2000/svg" xmlns:xlink="http://www.w3.org/1999/xlink" x="0px" y="0px"
	 viewBox="0 0 76 76" style="enable-background:new 0 0 76 76;" xml:space="preserve">
<style type="text/css">
	.st0{fill:#0074BD;}
	.st1{fill:#FF6600;}
</style>
<path class="st0" d="M30.3,54.4c0,0-2.3,1.3,1.6,1.8c4.8,0.5,7.2,0.5,12.4-0.5c0,0,1.4,0.9,3.3,1.6C35.9,62.3,21,57,30.3,54.4z
	 M28.8,47.8c0,0-2.6,1.9,1.4,2.3c5.1,0.5,9.1,0.6,16-0.8c0,0,1,1,2.5,1.5C34.5,55,18.7,51.2,28.8,47.8L28.8,47.8z"/>
<path class="st1" d="M40.9,36.7c2.9,3.3-0.8,6.3-0.8,6.3s7.3-3.8,4-8.5c-3.2-4.4-5.6-6.6,7.5-14.2C51.6,20.3,31.1,25.4,40.9,36.7
	L40.9,36.7z"/>
<path class="st0" d="M56.5,59.3c0,0,1.7,1.4-1.9,2.5c-6.8,2.1-28.2,2.7-34.2,0.1c-2.1-0.9,1.9-2.2,3.1-2.5c1.3-0.3,2.1-0.2,2.1-0.2
	c-2.4-1.7-15.4,3.3-6.6,4.7C43,67.7,62.7,62.1,56.5,59.3L56.5,59.3z M31.4,41c0,0-10.9,2.6-3.9,3.5c3,0.4,8.9,0.3,14.4-0.2
	c4.5-0.4,9-1.2,9-1.2s-1.6,0.7-2.7,1.5c-11.1,2.9-32.5,1.6-26.3-1.4C27.1,40.7,31.4,41,31.4,41L31.4,41z M50.9,52
	c11.3-5.8,6.1-11.5,2.4-10.7c-0.9,0.2-1.3,0.3-1.3,0.3s0.3-0.5,1-0.7c7.2-2.5,12.7,7.5-2.3,11.4C50.7,52.3,50.9,52.1,50.9,52
	L50.9,52z"/>
<path class="st1" d="M44.1,8c0,0,6.2,6.2-5.9,15.8c-9.7,7.7-2.2,12.1,0,17.1c-5.7-5.1-9.9-9.6-7.1-13.9C35.3,20.9,46.6,17.9,44.1,8
	L44.1,8z"/>
<path class="st0" d="M32.5,67.8c10.8,0.7,27.4-0.4,27.8-5.5c0,0-0.8,1.9-8.9,3.5c-9.2,1.7-20.6,1.5-27.3,0.4
	C24,66.2,25.4,67.4,32.5,67.8L32.5,67.8z"/>
</svg>
