<?xml version="1.0" encoding="utf-8"?>
<!-- Generator: Adobe Illustrator 27.0.1, SVG Export Plug-In . SVG Version: 6.00 Build 0)  -->
<svg version="1.1" id="Слой_1" xmlns="http://www.w3.org/2000/svg" xmlns:xlink="http://www.w3.org/1999/xlink" x="0px" y="0px"
	 viewBox="0 0 65.5 64.3" style="enable-background:new 0 0 65.5 64.3;" xml:space="preserve">
<style type="text/css">
	.st0{fill:#0074BD;}
	.st1{fill:#EA2D2E;}
</style>
<path class="st0" d="M24.5,48.6c0,0-2.3,1.3,1.6,1.8c4.8,0.5,7.2,0.5,12.4-0.5c0,0,1.4,0.9,3.3,1.6C30.1,56.5,15.3,51.1,24.5,48.6z
	 M23.1,42c0,0-2.6,1.9,1.4,2.3c5.1,0.5,9.1,0.6,16-0.8c0,0,1,1,2.5,1.5C28.8,49.2,12.9,45.4,23.1,42L23.1,42z"/>
<path class="st1" d="M35.2,30.9c2.9,3.3-0.8,6.3-0.8,6.3s7.3-3.8,4-8.5c-3.2-4.4-5.6-6.6,7.5-14.2C45.9,14.4,25.4,19.6,35.2,30.9
	L35.2,30.9z"/>
<path class="st0" d="M50.7,53.4c0,0,1.7,1.4-1.9,2.5C42.1,58,20.6,58.6,14.7,56c-2.1-0.9,1.9-2.2,3.1-2.5c1.3-0.3,2.1-0.2,2.1-0.2
	c-2.4-1.7-15.4,3.3-6.6,4.7C37.2,61.9,56.9,56.2,50.7,53.4L50.7,53.4z M25.6,35.2c0,0-10.9,2.6-3.9,3.5c3,0.4,8.9,0.3,14.4-0.2
	c4.5-0.4,9-1.2,9-1.2s-1.6,0.7-2.7,1.5c-11.1,2.9-32.5,1.6-26.3-1.4C21.4,34.9,25.6,35.2,25.6,35.2L25.6,35.2z M45.2,46.1
	c11.3-5.8,6.1-11.5,2.4-10.7c-0.9,0.2-1.3,0.3-1.3,0.3s0.3-0.5,1-0.7c7.2-2.5,12.7,7.5-2.3,11.4C45,46.4,45.1,46.3,45.2,46.1
	L45.2,46.1z"/>
<path class="st1" d="M38.4,2.2c0,0,6.2,6.2-5.9,15.8c-9.7,7.7-2.2,12.1,0,17.1c-5.7-5.1-9.9-9.6-7.1-13.9
	C29.5,15.1,40.9,12.1,38.4,2.2L38.4,2.2z"/>
<path class="st0" d="M26.7,62c10.8,0.7,27.4-0.4,27.8-5.5c0,0-0.8,1.9-8.9,3.5c-9.2,1.7-20.6,1.5-27.3,0.4
	C18.3,60.4,19.6,61.5,26.7,62L26.7,62z"/>
</svg>
