<?xml version="1.0" encoding="utf-8"?>
<!-- Generator: Adobe Illustrator 27.0.1, SVG Export Plug-In . SVG Version: 6.00 Build 0)  -->
<svg version="1.1" id="Слой_1" xmlns="http://www.w3.org/2000/svg" xmlns:xlink="http://www.w3.org/1999/xlink" x="0px" y="0px"
	 viewBox="0 0 63.4 63.4" style="enable-background:new 0 0 63.4 63.4;" xml:space="preserve">
<style type="text/css">
	.st0{fill-rule:evenodd;clip-rule:evenodd;fill:#D33833;}
	.st1{fill:#EF3D3A;}
	.st2{fill:#231F20;}
	.st3{fill-rule:evenodd;clip-rule:evenodd;fill:#F0D6B7;}
	.st4{fill-rule:evenodd;clip-rule:evenodd;fill:#335061;}
	.st5{fill-rule:evenodd;clip-rule:evenodd;fill:#6D6B6D;}
	.st6{fill-rule:evenodd;clip-rule:evenodd;fill:#DCD9D8;}
	.st7{fill-rule:evenodd;clip-rule:evenodd;fill:#F7E4CD;}
	.st8{fill:#F7E4CD;}
	.st9{fill-rule:evenodd;clip-rule:evenodd;fill:#49728B;}
	.st10{fill-rule:evenodd;clip-rule:evenodd;fill:#FFFFFF;}
	.st11{fill:#FFFFFF;}
	.st12{fill:none;stroke:#D33833;stroke-width:0.514;}
	.st13{fill-rule:evenodd;clip-rule:evenodd;fill:#EF3D3A;}
	.st14{fill-rule:evenodd;clip-rule:evenodd;fill:#231F20;}
	.st15{fill-rule:evenodd;clip-rule:evenodd;fill:#81B0C4;}
	.st16{fill-rule:evenodd;clip-rule:evenodd;fill:#1D1919;}
</style>
<path class="st0" d="M52.3,30.9c0,11.9-9.4,21.5-21,21.5c-11.6,0-21-9.6-21-21.5s9.4-21.5,21-21.5C42.9,9.3,52.3,19,52.3,30.9z"/>
<path class="st1" d="M11.1,36.2c0,0-1.5-22.4,19.2-23.1l-1.4-2.4l-11.2,3.8l-3.2,3.7l-2.8,5.4L10,29.8l0.5,4.2"/>
<path class="st2" d="M16.9,16.2c-3.7,3.8-6,9-6,14.8s2.3,11,6,14.8c3.7,3.8,8.8,6.1,14.4,6.1c5.6,0,10.7-2.3,14.4-6.1
	c3.7-3.8,6-9,6-14.8s-2.3-11-6-14.8c-3.7-3.8-8.8-6.1-14.4-6.1C25.7,10.1,20.6,12.4,16.9,16.2L16.9,16.2z M15.9,46.6
	c-3.9-4-6.3-9.6-6.3-15.7c0-6.1,2.4-11.7,6.3-15.7s9.4-6.5,15.3-6.5c6,0,11.4,2.5,15.3,6.5S53,24.8,53,31c0,6.1-2.4,11.7-6.4,15.7
	s-9.4,6.5-15.3,6.5S19.9,50.6,15.9,46.6"/>
<path class="st3" d="M40.2,31L37,31.5L32.6,32L29.8,32L27.1,32L25,31.3l-1.8-2l-1.4-4.1l-0.3-0.9l-1.9-0.6l-1.1-1.8l-0.8-2.6
	l0.9-2.3l2.1-0.7l1.7,0.8l0.8,1.8l1-0.2l0.3-0.4L24,16.3L23.9,14l0.5-3.2l0-1.8l1.5-2.3l2.6-1.8l4.5-1.9l5,0.7l4.3,3.1l2,3.2
	l1.3,2.3l0.3,5.8l-1,5L43,27.4l-1.7,2.3"/>
<path class="st4" d="M37.4,44.9L26,45.3v1.9l1,6.7l-0.5,0.6l-8-2.7l-0.6-1l-0.8-9.1l-1.8-5.5l-0.4-1.3l6.4-4.4l2-0.8L25,32l1.5,1.4
	l1.8,0.6l0.8,0.2l1,4.2l0.7,0.9l1.8-0.6l-1.3,2.5l7,3.3L37.4,44.9"/>
<path class="st5" d="M18.4,16.9l2.1-0.7l1.7,0.8l0.8,1.8l1-0.2l0.2-1l-0.5-1.8l0.5-4.4l-0.4-2.4l1.4-1.7l3.1-2.5l-0.9-1.2l-4.4,2.2
	l-1.8,1.4l-1,2.2l-1.6,2.2l-0.5,2.6L18.4,16.9"/>
<path class="st6" d="M21.7,9.3c0,0,1.2-3,6-4.4c4.8-1.4,0.2-1,0.2-1l-5.2,2l-2,2l-0.9,1.6L21.7,9.3L21.7,9.3z M19.3,16.3
	c0,0-1.7-5.6,4.7-6.4l-0.2-1l-4.4,1l-1.3,4.2l0.3,2.7L19.3,16.3"/>
<path class="st7" d="M21.9,23.8l1-1c0,0.1,0.1,0.3,0.2,0.4c0.1,0.1,0.2,0.2,0.4,0.2c0.1,0.6,0.3,5.6,3.8,8.3
	c0.3,0.2-2.6-0.4-2.6-0.4l-2.6-4L21.9,23.8z M36.6,22.2c0,0,0.2-2.4,0.8-2.2c0.7,0.2,0.7,0.8,0.7,0.8S36.5,21.9,36.6,22.2"/>
<path class="st8" d="M43.3,13.3c0,0-1.3,0.3-1.4,1.4C41.7,16,43.3,15,43.5,15L43.3,13.3z M33.6,13.4c0,0-1.8,0.2-1.8,1.4
	c0,1.1,2,1,2.6,0.6"/>
<path class="st7" d="M22.7,18.6c0,0-3-1.8-3.4-0.1c-0.3,1.8-1,3,0.5,4.9l-1-0.3l-1-2.5l-0.3-2.4l1.8-1.9l2.1,0.2l1.2,1L22.7,18.6
	L22.7,18.6z M24.1,13.6c0,0,1.4-7.1,8.3-8.4C38.1,4,41,5.4,42.2,6.7c0,0-5.1-6-9.9-4.2C27.5,4.4,24,7.8,24,9.9L24.1,13.6L24.1,13.6z
	 M42.7,7.5c0,0-2.3-0.1-2.4,2c0,0.2,0.1,0.4,0.2,0.6c0,0,1.8-2.1,3-1L42.7,7.5z M32.5,10.4c0,0-0.4-3.2-3.1-1.3
	c-1.8,1.2-1.6,2.9-1.3,3.2c0.3,0.3,0.2,1,0.5,0.5c0.2-0.4,0.2-1.9,1-2.3C30.5,10,32,9.6,32.5,10.4"/>
<path class="st9" d="M25,32l-7.5,3.4c0,0,3.1,12.4,1.5,16.3l-1.1-0.4l-0.1-4.7l-2.1-9l-0.9-2.5l7.9-5.3L25,32L25,32z M25.8,38.9
	l1.1,1.3V45h-1.3l-0.2-3.8c0-0.4,0.2-1.8,0.2-1.8L25.8,38.9z M25.8,45.7l-3.6,0.2l1,0.7l2.6,0.4"/>
<path class="st4" d="M38.1,44.9l3-0.1l0.7,7.4l-3,0.4L38.1,44.9"/>
<path class="st4" d="M39,44.9l4.5-0.2l1.8-4.9c0-0.2,1.6-6.7,1.6-6.7l-3.6-3.8l-0.7-0.6l-1.9,1.9V38L39,44.9"/>
<path class="st9" d="M41,44.4l-2.8,0.6l0.4,2.2c1,0.5,2.8-0.8,2.8-0.8L41,44.4z M41,30.3l5.6,4.2l0.2-1.9l-4.2-3.9L41,30.3"/>
<path class="st10" d="M28.6,60.7L26.9,54l-0.8-5L26,45.3l7.5-0.4h4.7l-0.4,8.4l0.7,6.5l-0.1,1.2l-6.1,0.5L28.6,60.7"/>
<path class="st6" d="M37.1,44.9c0,0-0.4,8.3,0.8,14.2c0,0-2.4,1.5-5.9,1.9l6.7-0.2l0.8-0.5l-1-13.1l-0.2-2.8"/>
<path class="st10" d="M42,51.6l3.1-0.9l5.9-0.3l0.9-2.7l-1.6-4.7l-1.8-0.2l-2.6,0.8l-2.5,1.2l-1.3-0.2l-1,0.4"/>
<path class="st6" d="M41.9,50c0,0,2.1-1,2.4-0.9l-0.9-4.4l1-0.4l0.7,4.6l4.9,0.2c0,0,1-1.8,0.7-3.8l0.9,2.6l0.1,1.4l-1.3,1.9
	l-1.4,0.3l-2.4-0.1l-0.8-1L43,51l-0.9,0.3"/>
<path class="st11" d="M38.8,44.3L37,39.8l-1.8-2.6c0,0,0.4-1.1,1-1.1H38l1.8,0.6l-0.2,3L38.8,44.3z"/>
<path class="st6" d="M39.1,42.8c0,0-2.2-4.3-2.2-5c0,0,0.4-1,1-0.7c0.6,0.2,1.8,0.9,1.8,0.9v-1.5l-2.7-0.6L35,36.1l3.1,7.4l0.6,0.1"
	/>
<path class="st11" d="M29.3,32.2l-2.2-0.2L25,31.3V32l1,1.1l3.2,1.4"/>
<path class="st6" d="M25.7,32.4c0,0,2.5,1,3.3,0.8l0.1,1l-2.2-0.5l-1.4-1L25.7,32.4"/>
<path class="st0" d="M42,36.3c-1.4,0-2.6-0.2-3.7-0.5c0.1-0.4-0.1-0.9,0-1.2c0.3-0.2,0.8-0.2,1.3-0.3c-0.4-0.2-0.9-0.3-1.4-0.2
	c0-0.3-0.1-0.5-0.2-0.7c0.8-0.3,2.6-2.1,3.6-1.5c0.5,0.3,0.7,1.9,0.7,2.7C42.3,35.3,42.2,36,42,36.3"/>
<path class="st12" d="M42,36.3c-1.4,0-2.6-0.2-3.7-0.5c0.1-0.4-0.1-0.9,0-1.2c0.3-0.2,0.8-0.2,1.3-0.3c-0.4-0.2-0.9-0.3-1.4-0.2
	c0-0.3-0.1-0.5-0.2-0.7c0.8-0.3,2.6-2.1,3.6-1.5c0.5,0.3,0.7,1.9,0.7,2.7C42.3,35.3,42.2,36,42,36.3L42,36.3z"/>
<path class="st0" d="M35.5,34.1l0,0.3c-0.4,0.3-1.1,0.3-1.6,0.5c0.7,0,1.2,0.2,1.7,0.4l0,0.8c-0.8,0.5-1.5,1.3-2.4,1.8
	c-0.4,0.2-2,0.8-2.4,0.7c-0.3-0.1-0.3-0.4-0.4-0.7c-0.2-0.7-0.7-1.7-0.8-2.7c-0.1-1.2-0.2-3.3,1.2-3.1c1.1,0.2,2.2,0.6,3.2,1.2
	C34.4,33.7,34.7,34,35.5,34.1"/>
<path class="st12" d="M35.5,34.1l0,0.3c-0.4,0.3-1.1,0.3-1.6,0.5c0.7,0,1.2,0.2,1.7,0.4l0,0.8c-0.8,0.5-1.5,1.3-2.4,1.8
	c-0.4,0.2-2,0.8-2.4,0.7c-0.3-0.1-0.3-0.4-0.4-0.7c-0.2-0.7-0.7-1.7-0.8-2.7c-0.1-1.2-0.2-3.3,1.2-3.1c1.1,0.2,2.2,0.6,3.2,1.2
	C34.4,33.7,34.7,34,35.5,34.1L35.5,34.1z"/>
<path class="st0" d="M36.2,35.6c-0.1-0.7-0.3-0.9-0.2-1.5C37.8,32.9,38.2,36.2,36.2,35.6z"/>
<path class="st12" d="M36.2,35.6c-0.1-0.7-0.3-0.9-0.2-1.5C37.8,32.9,38.2,36.2,36.2,35.6z"/>
<path class="st13" d="M38.8,36.1c0,0-0.6-0.8-0.2-1c0.4-0.2,0.8,0,1-0.4c0.2-0.4,0-0.6,0.1-1.1c0.1-0.5,0.5-0.6,0.9-0.6
	c0.4-0.1,1.5-0.2,1.7,0.2l-0.5-1.4l-1-0.3l-3,1.8l-0.2,0.9v1.8L38.8,36.1z M30.4,38.8L30.1,35c-0.2-1.9,0.5-1.5,2.1-1.5
	c0.2,0,1.5,0.3,1.6,0.5c0.4,0.9-0.8,0.7,0.5,1.4c1,0.6,2.9-0.3,2.5-1.6c-0.2-0.3-1.2-0.1-1.6-0.3l-1.9-1c-0.8-0.4-2.6-1-3.5-0.4
	c-2.2,1.5,0.1,5.1,0.9,6.6"/>
<path class="st14" d="M32.5,10.4c-2.2-0.5-3.3,0.9-3.9,2.4c-0.6-0.1-0.4-0.9-0.2-1.4c0.4-1.1,2-2.5,3.3-2.3
	C32.2,9.2,33,9.7,32.5,10.4L32.5,10.4z M43.2,12.8l0.1,0c0.5,1,0.9,2.1,1.5,3c-0.4,1-3.2,1.8-3.1,0.1c0.6-0.3,1.6-0.1,2.1-0.4
	C43.6,14.7,43.1,14,43.2,12.8L43.2,12.8z M33.7,12.9c0.5,0.9,0.6,1.8,1.3,2.4c0.3,0.3,0.9,0.6,0.6,1.5c-0.2,0.3-0.5,0.6-0.8,0.7
	c-1,0.3-3.5,0.1-2.6-1.2c0.9,0,2,0.6,2.7-0.1C34.2,15.4,33.4,13.8,33.7,12.9L33.7,12.9z M42.8,21.6c-1.6,1-3.3,2.1-5.9,1.8
	c-0.5-0.5-0.8-1.5-0.2-2.2c0.3,0.5,0.1,1.4,0.9,1.5c1.5,0.2,3.2-0.9,4.2-1.3c0.7-1.1-0.1-1.5-0.6-2.2c-1.2-1.4-2.8-3.2-2.7-5.4
	c0.5-0.4,0.5,0.5,0.6,0.7c0.6,1.5,2.2,3.3,3.4,4.6c0.3,0.3,0.8,0.6,0.8,0.8C43.3,20.5,42.7,21.2,42.8,21.6L42.8,21.6z M22.1,20.5
	c-0.5-0.3-0.6-1.5-1.2-1.6c-0.8-0.1-0.7,1.6-0.7,2.6c-0.6-0.5-0.7-2.1-0.3-2.9c-0.5-0.2-0.7,0.3-1,0.4C19.4,16.6,22.7,18,22.1,20.5
	L22.1,20.5z M43.8,22.6c-0.8,1.4-1.8,2.9-3.9,3c0-0.5-0.1-1.1,0-1.4C41.5,24,42.5,23.2,43.8,22.6L43.8,22.6z M33.5,23.5
	c1.4,0.7,3.9,0.8,5.7,0.7c0.1,0.4,0.1,0.9,0.1,1.4C37,25.8,34.2,25.2,33.5,23.5L33.5,23.5z M33.3,24.8c0.9,2.4,4.2,2.1,6.9,2
	c-0.1,0.3-0.4,0.7-0.7,0.8c-0.9,0.4-3.3,0.6-4.5,0c-0.8-0.4-1.3-1.3-1.7-1.9C33.1,25.5,32.1,24.8,33.3,24.8"/>
<path class="st15" d="M42.7,37.9l-3.5,5.5c0.6-1.6,0.8-4.3,0.9-6.4C41.2,36.5,42.2,37.2,42.7,37.9"/>
<path class="st14" d="M48.6,44.8c-1.2,0.2-2.1,1.5-3.3,1.4C46,45.2,47.2,44.8,48.6,44.8L48.6,44.8z M49.2,46.7
	c-1,0.1-2.2,0.3-3.2,0.2C46.5,46.2,48.3,46.4,49.2,46.7z M49.5,48.4c-1.1,0-2.5,0-3.6-0.1C46.5,47.6,48.8,48,49.5,48.4z"/>
<path class="st6" d="M40.5,53c0.2,1.4,0.7,2.9,0.7,4.4c-0.6,0.2-1,0.4-1.8,0.4l-0.2-4.6C39.6,53.2,40.2,52.9,40.5,53"/>
<path class="st3" d="M38.7,31.9c-0.6,0.4-1.1,0.8-1.6,1.2c-1.2,0.1-1.9-0.1-2.8-0.8c0-0.1,0.1,0,0.1-0.1
	C35.7,32.9,37.4,32,38.7,31.9"/>
<path class="st15" d="M31.9,40.8c0.4-1.5,1.8-2.4,3-3.2c1.3,1.7,2.1,3.8,3,5.9C35.8,42.8,33.7,41.8,31.9,40.8"/>
<path class="st14" d="M39.2,53.2c-0.1,1.3,0.1,3.3,0.2,4.6c0.8,0,1.2-0.2,1.8-0.4c0.1-1.6-0.5-3-0.7-4.4
	C40.2,52.9,39.6,53.2,39.2,53.2L39.2,53.2z M26.1,46c0.6,5.1,1.4,9.4,2.8,13.9c3.3,1,7.2,1.1,10.1,0.2c-0.5-2.5-0.3-5.7-0.6-8.4
	L38,45.5C34.5,44.8,29.5,45.3,26.1,46L26.1,46z M38.8,45.5c0,2.2,0.1,4.4,0.3,6.5l2.2-0.4c-0.3-2.1-0.2-4.5-0.7-6.4
	C39.9,45.3,39.4,45.3,38.8,45.5L38.8,45.5z M43.1,45.2c-0.4-0.1-0.9,0-1.2,0l0.8,5.6c0.6,0,0.9-0.3,1.4-0.4
	C44,48.8,43.9,46.5,43.1,45.2L43.1,45.2z M49.6,51.1c1.3-0.3,2-1.8,1.7-3.4c-0.2-1.1-0.7-3.1-1.1-3.7c-0.3-0.5-1.2-1.2-1.9-0.7
	c-1.2,0.7-3.2,1-4.1,1.9c0.4,1.4,0.6,3.4,0.7,5.2c1.5,0.1,3.2-0.4,4.5,0.1c-0.8,0.3-1.9,0.3-2.7,0.7C47.3,51.4,48.7,51.3,49.6,51.1
	L49.6,51.1z M37.9,43.5c-0.9-2.1-1.7-4.2-3-5.9c-1.3,0.9-2.7,1.7-3,3.2C33.7,41.8,35.8,42.8,37.9,43.5L37.9,43.5z M40.1,37.1
	c-0.1,2.1-0.3,4.8-0.9,6.4c1.3-1.7,2.4-3.6,3.5-5.5C42.2,37.2,41.2,36.5,40.1,37.1L40.1,37.1z M37.7,36.2c-0.5-0.1-0.9,0.6-1.6,0.3
	L35.6,37c1.4,1.7,2.1,4.2,3.2,6.2c0.6-1.9,0.5-4.1,0.7-6.2C38.7,37,38.2,36.3,37.7,36.2L37.7,36.2z M36.1,34.1
	c-0.1,0.6,0.1,0.8,0.2,1.5C38.2,36.2,37.9,32.9,36.1,34.1z M33.9,33.4c-1-0.5-2.1-0.9-3.2-1.2c-1.3-0.3-1.2,1.8-1.2,3.1
	c0,1,0.6,2,0.8,2.7c0.1,0.3,0.1,0.6,0.4,0.7c0.5,0.1,2-0.5,2.4-0.7c0.9-0.5,1.6-1.3,2.4-1.8l0-0.8c-0.5-0.2-1-0.4-1.7-0.4
	c0.5-0.2,1.2-0.2,1.6-0.5l0-0.3C34.7,34,34.4,33.7,33.9,33.4L33.9,33.4z M25.9,32c-0.7,0.7,1.9,1.7,2.8,1.7c0-0.4,0.3-0.9,0.2-1.2
	C27.9,32.3,26.6,32.4,25.9,32L25.9,32z M34.5,32.3c0,0.1-0.1,0-0.1,0.1c0.9,0.7,1.6,0.8,2.8,0.8l1.6-1.2
	C37.4,32,35.8,32.9,34.5,32.3L34.5,32.3z M42.3,34.7c0-0.8-0.2-2.4-0.7-2.7c-1-0.6-2.8,1.2-3.6,1.5c0.1,0.2,0.2,0.4,0.2,0.7
	c0.4-0.1,1,0,1.4,0.2c-0.5,0.1-0.9,0-1.3,0.3c-0.1,0.3,0,0.8,0,1.2c1.1,0.3,2.3,0.5,3.7,0.5C42.3,36,42.4,35.3,42.3,34.7L42.3,34.7z
	 M24.8,32.6c-0.2-0.2-1.7-2.1-1.9-2c-2.7,1-5.2,2.9-7.4,4.6c2.1,4.6,3,10.1,3.1,15.5c2.4,1.1,4.6,2.8,7.9,3l-0.9-7.7
	c-0.8-0.4-2,0-2.8-0.1c0-0.9,1.2-0.4,1.3-1c0.1-0.5-0.7-0.5-0.4-1.3c0.6,0.2,0.9,0.7,1.6,0.9c0.6-1.3,0-3.6,0.1-4.7
	c0-0.2,0.1-1.1,0.6-1c0.4,0.1,0,2.5,0,3.5c0,0.9-0.1,1.9,0.3,2.4c3.2-0.4,6.4-0.7,9.9-0.8c-0.8-0.3-1.7-0.6-2.7-1.2
	c-0.5-0.3-2.2-0.9-2.4-1.4c-0.2-0.8,0.6-1.2,0.8-1.9c-1.6,0.9-1.9-0.8-2.3-2.1c-0.3-1.1-0.5-1.9-0.6-2.6
	C27.5,34.1,26,33.5,24.8,32.6L24.8,32.6z M40.9,30.9c2.2-1.1,2.6,4,1.8,5.7c0.1,0.5,0.6,0.7,0.8,1.1l-3.9,6.5
	c0.9-0.6,2.3-0.1,3.4-0.6c0.4-0.2,0.7-1.1,1-1.8c0.8-2,1.7-4.6,2.1-6.6c0.1-0.4,0.3-1.4,0.3-1.8c-0.1-0.7-1.1-1.2-1.5-1.7l-2.4-2.3
	C42,30,41.2,30.4,40.9,30.9L40.9,30.9z M19.6,11.2c-1.1,1.2-0.8,3.3-0.7,4.9c1.9-1.2,4.5,0.1,4.4,2.1c0.9,0,0.3-1.1,0.2-1.9
	c-0.5-2.4,0.9-4.9,0.1-7.1C22,9.4,20.6,10.1,19.6,11.2L19.6,11.2z M27.2,4.4c-2.4,0.7-5.5,2.4-6.5,4.6c0.8-0.1,1.3-0.5,2-0.6
	c0.3,0,0.7,0.1,1,0c0.7-0.2,1.2-1.6,1.7-2.2C26,5.7,26.5,5.5,26.9,5c0.3-0.1,0.6-0.1,0.6-0.5C27.5,4.4,27.3,4.4,27.2,4.4L27.2,4.4z
	 M39.7,5c-2.5-1.4-6.7-2.5-9.3-1.1c-2.1,1.1-5,2.8-6,5.1c0.9,2.2-0.3,4.1-0.3,6.3c0,1.2,0.5,2.2,0.6,3.4c-0.3,0.5-1.3,0.6-1.9,0.5
	c-0.2-1.1-0.6-2.4-1.8-2.5c-1.6-0.2-2.8,1.2-2.9,2.6c-0.1,1.7,1.3,4.4,3.2,4.2c0.7-0.1,0.9-0.8,1.7-0.8c0.4,0.9-0.7,1.2-0.8,1.8
	c0,0.2,0.1,0.8,0.2,1.1c0.4,1.5,1.1,3.3,1.9,4.4c1,1.4,2.9,1.6,5,1.7c0.4-0.8,1.7-0.7,2.6-0.5c-1.1-0.4-2-1.4-2.9-2.3
	c-0.9-1-1.9-2.1-1.9-3.5c1.8,2.5,3.2,4.6,6.5,5.7c2.4,0.8,5.3-0.4,7.2-1.7c0.8-0.5,1.2-1.4,1.8-2.2c2.1-3,3-7.2,2.8-11.4
	c-0.1-1.7-0.1-3.4-0.7-4.5c-0.6-1.2-2.6-2.3-3.8-1.2c-0.2-1.2,1-1.9,2.4-1.5C42.2,7.4,41.1,5.8,39.7,5L39.7,5z M44.3,43.4
	c1.9-1,5.6-2.6,6.8,0c0.5,1,1,2.6,1.2,3.6c0.3,1.4-0.4,4.3-1.8,4.8c-1.3,0.4-2.8,0.4-4.3,0.1c-0.2-0.2-0.4-0.4-0.5-0.7
	c-1.1,0-2.1,0.1-3,0.5c0.1,0.8-0.5,0.9-1,1.1c-0.4,1.5,0.8,3.5,0.5,4.8c-0.2,1-1.4,1.1-2.3,1.3c0,0.6,0,1,0.1,1.5
	c-0.2,0.7-1.1,1.2-2,1.3c-2.8,0.3-7.1,0.5-9.8-0.5c-0.8-1.9-1.4-4.1-2-6.3c-2.7,0.3-4.8-1.1-6.8-2.1c-0.7-0.3-1.7-0.5-1.9-1.1
	c-0.3-0.5-0.1-1.6-0.2-2.5c-0.2-2.5-0.3-4.9-0.9-7.5c-0.3-1.1-0.8-2.2-1.2-3.3c-0.3-1-0.9-2.3-1.1-3.3c-0.2-1.5,1.2-1.6,2.1-2.3
	c1.4-1,2.5-1.6,4-2.5c0.4-0.3,1.8-0.9,2-1.3c0.3-0.6-0.5-1.5-0.8-2c-0.4-0.8-0.5-1.4-0.6-2.2c-1.3-0.2-2.2-1-2.8-1.8
	c-1-1.4-1.6-4.1-0.8-6.1c0.1-0.2,0.4-0.5,0.4-0.7c0.1-0.5-0.2-1.1-0.2-1.6c-0.1-2.6,0.4-4.8,2.2-5.6C20.5,6.4,23,5.4,25.4,4
	c0.9-0.5,1.9-0.9,2.9-1.2c3.7-1.3,9.3-1.1,12.3,1.2c1.3,1,3.3,3,4.1,4.5c1.9,3.9,1.8,10.5,0.4,15.3c-0.2,0.6-0.5,1.6-0.8,2.4
	c-0.3,0.5-1.1,1.6-1,2.1c0.1,0.5,1.8,1.8,2.2,2.2c0.7,0.6,1.9,1.5,2,2.3c0.1,0.9-0.4,2-0.6,2.9L44.3,43.4"/>
<path class="st7" d="M31.4,24.1c0.1-0.1,0.7-0.4,1.5,0c0,0-1,0.2-0.9,1.8l-0.4-0.1C31.6,25.9,31.2,24.4,31.4,24.1"/>
<path class="st16" d="M38.4,37.9c0,0.2-0.2,0.4-0.4,0.4c-0.2,0-0.4-0.2-0.4-0.4c0-0.2,0.2-0.4,0.4-0.4
	C38.2,37.5,38.4,37.7,38.4,37.9z M38.8,40c0,0.2-0.2,0.4-0.4,0.4c-0.2,0-0.4-0.2-0.4-0.4c0-0.2,0.2-0.4,0.4-0.4
	C38.6,39.5,38.8,39.7,38.8,40z"/>
</svg>
