<?xml version="1.0" encoding="utf-8"?>
<!-- Generator: Adobe Illustrator 23.0.0, SVG Export Plug-In . SVG Version: 6.00 Build 0)  -->
<svg version="1.1" id="Слой_1" xmlns="http://www.w3.org/2000/svg" xmlns:xlink="http://www.w3.org/1999/xlink" x="0px" y="0px"
	 viewBox="0 0 90 90" style="enable-background:new 0 0 90 90;" xml:space="preserve">
<style type="text/css">
	.st0{fill:#010101;}
	.st1{fill:#FFFFFF;}
</style>
<path class="st0" d="M88.4,1.3H1.3v87.1h87.1L88.4,1.3L88.4,1.3z"/>
<path class="st1" d="M43.5,72.1H10.8v5.5h32.7V72.1z M9.4,23.8l2.4-2.3c0.7,0.8,1.3,1.2,2.1,1.2c0.9,0,1.6-0.7,1.6-1.9v-8.6h3.8v8.6
	c0,1.7-0.5,2.9-1.4,3.8c-0.9,0.9-2.1,1.4-3.7,1.4C11.8,26.1,10.4,25.1,9.4,23.8L9.4,23.8z M20.9,12.2h11v3.2h-7.2v2.1h6.5v3h-6.5
	v2.1H32v3.2H20.9L20.9,12.2L20.9,12.2z M37.3,15.6h-4.1v-3.3h11.9v3.3h-4v10.3h-3.8V15.6L37.3,15.6z M10.9,31.2h6.4
	c1.7,0,2.9,0.5,3.7,1.2c0.5,0.6,0.8,1.3,0.8,2.2v0.1c0,1.6-0.9,2.5-2.1,3.1c1.6,0.5,2.7,1.5,2.7,3.3v0.1c0,2.3-1.9,3.8-5.1,3.8H11
	L10.9,31.2L10.9,31.2L10.9,31.2z M18.2,35.4c0-0.8-0.6-1.2-1.7-1.2h-1.9v2.4h1.8C17.6,36.6,18.2,36.2,18.2,35.4L18.2,35.4z
	 M16.9,39.3h-2.3v2.5h2.3c1.2,0,1.8-0.5,1.8-1.2v-0.1C18.8,39.7,18.2,39.3,16.9,39.3z M23.7,31.2h6c2.1,0,3.5,0.5,4.4,1.4
	c0.8,0.8,1.2,1.8,1.2,3.2v0.1c0,2.1-1.1,3.4-2.8,4.2l3.3,4.7h-4.4l-2.7-4.1h-1.2v4.1h-3.8L23.7,31.2L23.7,31.2L23.7,31.2z
	 M29.7,37.7c1.2,0,2-0.6,2-1.6V36c0-1.1-0.8-1.6-2-1.6h-2.1v3.3H29.7z"/>
<path class="st1" d="M40.6,31.1h3.6l5.8,13.7h-4l-1-2.5h-5.3l-1,2.5h-3.9L40.6,31.1z M44,39.4l-1.5-3.8l-1.6,3.8H44z M54.4,31.2
	h-3.8v13.6h3.8V31.2z M55.8,31.2h3.5l4.9,7.2v-7.2H68v13.6h-3.3l-5.1-7.4v7.4h-3.8C55.8,44.7,55.8,31.2,55.8,31.2z M68.7,42.7
	l2.1-2.5c1.4,1,2.9,1.6,4.4,1.6c1,0,1.6-0.3,1.6-0.9v-0.1c0-0.6-0.5-0.8-2.3-1.3c-2.9-0.7-5.1-1.5-5.1-4.2v-0.1c0-2.5,2-4.4,5.3-4.4
	c2.3,0,4.1,0.7,5.6,1.8l-1.9,2.7C77,34.5,75.6,34,74.4,34c-0.9,0-1.4,0.4-1.4,0.8v0.1c0,0.7,0.5,0.9,2.3,1.3
	c3.1,0.7,5.1,1.7,5.1,4.2v0.1c0,2.8-2.2,4.4-5.5,4.4C72.6,45,70.3,44.2,68.7,42.7z"/>
</svg>
