<?xml version="1.0" encoding="utf-8"?>
<!-- Generator: Adobe Illustrator 27.0.1, SVG Export Plug-In . SVG Version: 6.00 Build 0)  -->
<svg version="1.1"
	 id="svg2" xmlns:sodipodi="http://sodipodi.sourceforge.net/DTD/sodipodi-0.dtd" xmlns:cc="http://web.resource.org/cc/" xmlns:rdf="http://www.w3.org/1999/02/22-rdf-syntax-ns#" xmlns:svg="http://www.w3.org/2000/svg" xmlns:inkscape="http://www.inkscape.org/namespaces/inkscape" xmlns:dc="http://purl.org/dc/elements/1.1/" inkscape:output_extension="org.inkscape.output.svg.inkscape"
	 xmlns="http://www.w3.org/2000/svg" xmlns:xlink="http://www.w3.org/1999/xlink" x="0px" y="0px" viewBox="0 0 100 100"
	 style="enable-background:new 0 0 100 100;" xml:space="preserve">
<style type="text/css">
	.st0{display:none;fill:#3366CC;stroke:#3366CC;stroke-width:0.8;stroke-linejoin:round;}
	.st1{display:none;fill:#3366CC;stroke:#3366CC;}
	.st2{fill-rule:evenodd;clip-rule:evenodd;fill:#3366CC;stroke:#3366CC;}
</style>
<sodipodi:namedview  bordercolor="#666666" borderopacity="1.0" gridtolerance="10000" guidetolerance="10" height="120px" id="base" inkscape:current-layer="layer1" inkscape:cx="137.4752" inkscape:cy="57.574575" inkscape:document-units="px" inkscape:guide-bbox="true" inkscape:pageopacity="0.0" inkscape:pageshadow="2" inkscape:window-height="900" inkscape:window-width="1396" inkscape:window-x="0" inkscape:window-y="22" inkscape:zoom="2.8" objecttolerance="10" pagecolor="#ffffff" showguides="true" width="300px">
	</sodipodi:namedview>
<g id="layer1" inkscape:groupmode="layer" inkscape:label="Layer 1">
	<path id="text4761" class="st0" d="M154.7,68.7L154.7,68.7h-12v1H137V23.8h17.7V8.1c5.2,0.7,7.7,1.7,7.5,3.1
		c-0.1,0.6-0.6,1.1-1.7,1.5v11.1h18v46.5h-5.8v-1.7h-12.2v22.1h-5.8V68.7 M142.7,43.3L142.7,43.3h12V29.6h-12V43.3 M160.5,43.3
		L160.5,43.3h12.2V29.6h-12.2V43.3 M172.7,49.1L172.7,49.1h-12.2v13.7h12.2V49.1 M154.7,49.1L154.7,49.1h-12v13.7h12V49.1
		 M122.2,47.2c4.5,3.7,8.1,8.5,11,14.4l-4.7,3.6c-1.9-4.4-4.5-8.3-7.8-11.5v37.1H115V56.4c-3.3,3.4-7.1,6.3-11.4,8.9L99,61.2
		c11.9-6.3,21-17.9,27.3-34.8h-20.7v-5.8h9.5V8.1c5,0.7,7.5,1.7,7.4,3.1c-0.1,0.6-0.6,1.2-1.7,1.6v7.8h9.3l2.8,4
		C130.1,33.3,126.5,40.9,122.2,47.2 M243.5,37.2L243.5,37.2V8.1c5.1,0.7,7.6,1.7,7.4,3.1c-0.1,0.5-0.5,1-1.2,1.3l0,0l0,0l-0.5,0.3
		v24.5h17.4V43h-17.4v38.6h21.7v5.8h-49.1v-5.8h21.8V43h-17.9v-5.8H243.5 M214.9,47.1c5.6,3.8,10.1,8.5,13.5,14.3l-4.3,4
		c-3.2-5.5-6.9-9.7-11.4-12.7v38H207V55.2c-4.8,4.2-10,7.6-15.7,10.2l-4.2-4.4c14.8-6.3,26.1-17.8,34.1-34.6h-26.6v-5.8h12.6V8.1
		c5,0.7,7.5,1.7,7.4,3.1c-0.1,0.6-0.6,1.2-1.7,1.6v7.8h12.6l2.6,4C224.5,33.3,220.1,40.8,214.9,47.1"/>
	
		<path id="text3736" sodipodi:nodetypes="ccsscssccscccsccccsccsccsscsssccccscscccsccccscsssccscscccscccsscsssccccccscsccscsccscscsccccssc" class="st1" d="
		M138.5,25.6c-0.2,3.3-0.3,7-0.4,11.1c-0.1,4.1-0.4,21.7-0.4,26.6c0,3.5-0.3,6.5-1,8.8s-1.7,4.3-3.1,5.8c-1.4,1.6-3.2,2.8-5.3,3.5
		c-2.2,0.8-4.8,1.2-7.8,1.2c-2.3,0-4.4-0.2-6.3-0.7l0.5-4.8c1.7,0.7,3.5,1.1,5.4,1.1c2.1,0,3.9-0.3,5.4-0.8c1.6-0.5,2.8-1.4,3.7-2.5
		s1.6-2.6,2-4.2c0.4-1.7,0.6-3.9,0.6-6.6c0-10,0.1-31.6-0.3-38.5L138.5,25.6 M155.8,68.5h-6.6c0.3-4.4,0.5-9.4,0.5-15.1
		c0-6.4-0.4-11.7-1.3-16l7.2-0.9c-0.3,4.6-0.4,10.2-0.4,16.9C155.3,58.7,155.4,63.7,155.8,68.5 M157.3,27.3c0,1.1-0.4,2.1-1.2,2.9
		s-1.9,1.2-3.4,1.2c-1.2,0-2.2-0.4-2.9-1.1s-1-1.6-1-2.6c0-1.1,0.4-2.1,1.2-2.9s2-1.2,3.4-1.2c1.2,0,2.1,0.4,2.8,1.1
		C156.9,25.5,157.3,26.3,157.3,27.3 M196.1,68.5h-6.6c0.5-5.8,0.8-12.1,0.8-18.9c0-3.4-0.8-5.7-2.3-6.9c-1.5-1.3-3.6-1.9-6.4-1.9
		c-3.4,0-6.6,1.1-9.5,3.4c0,7.5,0,15.6,0.1,24.3h-6.6c0.4-7.5,0.6-12.9,0.6-16.2c0-5.1-0.5-10.1-1.6-15l6.4-0.8l0.7,4h0.3
		c3.6-2.9,7.4-4.4,11.5-4.4c4,0,7.1,0.8,9.3,2.4c2.2,1.6,3.3,4.5,3.3,8.6c0,0.4,0,1.2-0.1,2.5c0,1.2-0.1,2.1-0.1,2.5
		C196,55.8,196,61.2,196.1,68.5 M212.1,36.5c-0.4,6.8-0.6,13.7-0.6,20.5c0,1.8,0.1,4.2,0.2,7.3c0.1,3,0.2,5,0.2,6.1
		c0,7.1-3,11.4-8.9,12.9l-1.8-2.5c2.1-1.6,3.5-3.4,4-5.3c0.7-2.7,1.1-8.4,1.1-17.2c0-9.4-0.5-16.4-1.4-21.1L212.1,36.5 M213.6,27.3
		c0,1.1-0.4,2.1-1.2,2.9s-1.9,1.2-3.4,1.2c-1.2,0-2.2-0.4-2.9-1.1s-1-1.6-1-2.6c0-1.1,0.4-2.1,1.2-2.9s2-1.2,3.4-1.2
		c1.2,0,2.1,0.4,2.8,1.1C213.3,25.5,213.6,26.3,213.6,27.3 M249,68.5l-5.7,0.2c-0.3-1.1-0.4-2.1-0.4-3.1h-0.4c-3,2.5-7,3.7-12.1,3.7
		c-2.8,0-5.2-0.7-7.2-2.2s-3-3.6-3-6.4c0-3.4,1.6-6.1,4.7-8.1c3.1-2.1,9-3.2,17.5-3.3c0.1-0.5,0.1-1.1,0.1-1.8
		c0-2.7-0.8-4.5-2.4-5.4c-1.6-0.9-4-1.4-7.2-1.4c-3.8,0-7.5,0.4-11.2,1.3l0.6-4.6c3.6-0.9,7.8-1.4,12.5-1.4c4.3,0,7.6,0.8,10,2.4
		c2.3,1.6,3.5,4.4,3.5,8.2c0,1-0.1,2.9-0.2,5.6c-0.1,2.7-0.1,4.5-0.1,5.4C248,61.8,248.3,65.4,249,68.5 M242.6,62.1
		c-0.1-3.3-0.2-6.3-0.2-9c-4.5,0-8,0.3-10.4,0.9c-4,1.1-5.9,3.2-5.9,6.3c0,3,2.3,4.5,7,4.5C237,64.8,240.2,63.9,242.6,62.1"/>
	<path id="path4735" class="st2" d="M94.8,6.5c0,0-17.2,8.2-31.3,10.1c-14,1.8-40.8,3.6-46.1,2.4c-5.3-1.3-9.1-2.8-9.1-2.8l1.1,3.7
		l-3.4,3L6.6,24H8l4.3,0.5l0.6,1.9l2.4,0.2l1.2,4.1c0,0,5.1,0.4,6.6,0.4s4.5-0.2,4.5-0.2l0.1,1.6l1.1,0.2v1.8l-2.4,2.1l0.6,0.1v0.7
		c0,0-5.4,0.4-7.6,0.1c-2.2-0.3-2.6-0.3-2.6-0.3l-0.2,0.2l-0.1,1H17l0.2,4.2l11.1-0.4l-0.8,14.4l-0.1,1.8L18,58l-0.1-3.9H20l0.2-1.5
		l1.9-0.4l0.3-0.4l-7.1-1.7l-5.4,1.6l0.9,0.8h0.9l0.1,1.3l1.9,0.1v3.7l-2.1,0.5L12,59l0.5,0.3v2.9h1.3v13.4l-2.1,0.3l0.3,3.9
		l1.3,0.2l-0.2,8.8l5.7,0.1l-1.2-8.7l8.6-0.2l-0.6,4.7L24.8,88l8.7,0.1l0.1-8.6l6-0.5l-0.3,5.5l-0.2,3.2h5.1L44,78.9l0.7,0.1
		l0.2-4.2h-0.8l-0.3-1.7l-0.5-4.9l0.2-5.7h1.1v-3.4l-1.4,0.1l0.2-4L45,55l0.1-1.3l0.9-0.1l0.9-0.7l-5.7-1.2L35.5,53l0.6,0.9l0.6-0.1
		h0.7l0.1,1.7l1.6-0.1V59l-6.8-0.2l0.2-3.8l0.2-3.5v-4.6l0.2-4.8l13.6-0.7l16.2-0.9l0.2,3.1L62.3,51L62,57.9l-6-0.1V53l2.2-0.1
		l0.1-1.4l0.9-0.1v-0.3l0.9-0.1l0.5-0.7l-6.7-1.6l-6.7,1.4l0.5,0.8l0.8-0.1v0.4h0.9v1.5h2v4.2h-2v1l0.7,0.1L50,61.7l1.5,0.1
		l-0.2,14.5l-2,0.4v0.7H50v3.7h1.1L51,86.3l-0.4,4.4l7.1,0.2L57.5,87L57,83.9l-0.1-2.8l6-0.1l-0.2,4.3v4.5l3.4,0.3l4.6-0.2l1.5-0.4
		L71.4,87l-0.2-3.8l-0.4-2.7l5.8-0.2l-0.3,3.3v5.2l2.3,0.2l2.3-0.1l1.1-0.3l-0.7-5L81.1,80l1-0.1v-3.3l0.3-0.1v-0.7h-1.1L81,73.3
		l-0.1-10.7h0.9v-3.5l0.4,0.1v-0.7l-1.3-0.1v-4.1l2.1-0.2l-0.1-1.4l0.9-0.1l-0.1-0.3l1.2-0.6l-6.2-1.3l-6.3,1.3l0.4,0.7l1-0.1
		l0.1,0.3h0.8v1.6h2.1l0.2,3.9L69.7,58l-0.9-5.9L68.1,49l-0.5-5.6l0.3-3.3L82.4,39v-4.9l0.7-0.2v-0.7L82.6,33c0,0-7.9,1.2-10.4,1.4
		c-0.7,0.1-0.7,0.1-1.2,0.1l-0.1-0.9l-3-1.6v-1.8h1l0.1-2.5c0,0,6.1-0.4,8.4-0.9s5.5-1.1,5.5-1.1l1.5-4.1l3-0.9l0.3-0.7l6.9-1.9
		l0.8-0.6l-2.6-5.7l0.3-1.3l1.3-0.7l1-2.9L94.8,6.5z M61.8,28.2v2.1l1.6,0.1l-0.1,2l-3,2L60,34.9h1.2v0.5l-9.3,0.5l0.1-1.4l0.4-0.7
		v-0.4v-0.9l0.3-0.6l0.1-0.5V31l0.4-1.6L61.8,28.2z M42.4,29.9l-0.2,1.4l0.7,0.9v1.5l0.7,1L43.3,36l0.5,0.7l-9.5,0.4v-0.3l1.1-0.1
		l0.1-0.4L33,34.9l-0.1-2.1l1.2-0.1l0.1-2.2L42.4,29.9z M56.4,62.1l5.8,0.4L62,70.2l0.8,6.4l-6.1-0.2L56.4,62.1z M17.8,62.4l9.2,0.5
		l-0.8,5.4v4.5l0.7,2.5l-9,0.4L17.8,62.4z M76.9,62.4v13.3L71,76.1l-0.2-7l-0.7-6.5L76.9,62.4z M32.5,62.7h6.8L39.4,75L33,75.2
		l-0.3-4v-4L32.5,62.7z"/>
</g>
</svg>
