<?xml version="1.0" encoding="utf-8"?>
<!-- Generator: Adobe Illustrator 27.0.1, SVG Export Plug-In . SVG Version: 6.00 Build 0)  -->
<svg version="1.1"
	 id="svg2" xmlns:cc="http://web.resource.org/cc/" xmlns:dc="http://purl.org/dc/elements/1.1/" xmlns:sodipodi="http://sodipodi.sourceforge.net/DTD/sodipodi-0.dtd" xmlns:svg="http://www.w3.org/2000/svg" xmlns:rdf="http://www.w3.org/1999/02/22-rdf-syntax-ns#" xmlns:inkscape="http://www.inkscape.org/namespaces/inkscape"
	 xmlns="http://www.w3.org/2000/svg" xmlns:xlink="http://www.w3.org/1999/xlink" x="0px" y="0px" viewBox="0 0 100 100"
	 style="enable-background:new 0 0 100 100;" xml:space="preserve">
<style type="text/css">
	.st0{display:none;fill:#336699;}
	.st1{display:none;fill:none;}
	.st2{fill-rule:evenodd;clip-rule:evenodd;fill:#336699;}
</style>
<sodipodi:namedview  bordercolor="#666666" borderopacity="1.0" gridtolerance="10000" guidetolerance="10" height="120px" id="base" inkscape:current-layer="layer1" inkscape:cx="137.4752" inkscape:cy="57.574575" inkscape:document-units="px" inkscape:guide-bbox="true" inkscape:pageopacity="0.0" inkscape:pageshadow="2" inkscape:window-height="900" inkscape:window-width="1396" inkscape:window-x="0" inkscape:window-y="22" inkscape:zoom="2.8" objecttolerance="10" pagecolor="#ffffff" showguides="true" width="300px">
	</sodipodi:namedview>
<g id="layer1" inkscape:groupmode="layer" inkscape:label="Layer 1">
	<path id="text4761" class="st0" d="M99,61.2l4.6,4.1c1.1-0.7,2.2-1.4,3.3-2.1v-7.3C104.4,58,101.8,59.7,99,61.2z M105.6,20.6v5.8
		h1.3v-5.8H105.6z"/>
	
		<path id="text3736" sodipodi:nodetypes="ccsscssccscccsccccsccsccsscsssccccscscccsccccscsssccscscccscccsscsssccccccscsccscsccscscsccccssc" class="st1" d="
		M149.5,61.2L149.5,61.2 M226.4,58.3c0.2,0.3,0.4,0.6,0.6,0.9l0.1-2.2C226.8,57.4,226.6,57.8,226.4,58.3z M206.3,55.8l0,0.4
		L206.3,55.8L206.3,55.8z M149.3,43.3l0.1,5.8h0.3C149.6,47,149.5,45.1,149.3,43.3z"/>
	<path id="path4735" class="st2" d="M93.1,10.5l1.3-0.7l1-2.9l-0.6-0.4c0,0-17.2,8.2-31.3,10.1c-14,1.8-40.8,3.6-46.1,2.4
		c-5.3-1.3-9.1-2.8-9.1-2.8l1.1,3.7l-3.4,3L6.6,24H8l4.3,0.5l0.6,1.9l2.4,0.2l1.2,4.1c0,0,5.1,0.4,6.6,0.4s4.5-0.2,4.5-0.2l0.1,1.6
		l1.1,0.2v1.8l-2.4,2.1l0.6,0.1v0.7c0,0-5.4,0.4-7.6,0.1c-2.2-0.3-2.6-0.3-2.6-0.3l-0.2,0.2l-0.1,1H17l0.2,4.2l11.1-0.4l-0.8,14.4
		l-0.1,1.8L18,58l-0.1-3.9H20l0.2-1.5l1.9-0.4l0.3-0.4l-7.1-1.7l-5.4,1.6l0.9,0.8h0.9l0.1,1.3l1.9,0.1v3.7l-2.1,0.5L12,59l0.5,0.3
		v2.9h1.3v13.4l-2.1,0.3l0.3,3.9l1.3,0.2l-0.2,8.8l5.7,0.1l-1.2-8.7l8.6-0.2l-0.6,4.7L24.8,88l8.7,0.1l0.1-8.6l6-0.5l-0.3,5.5
		l-0.2,3.2h5.1L44,78.9l0.7,0.1l0.2-4.2h-0.8l-0.3-1.7l-0.5-4.9l0.2-5.7h1.1v-3.4l-1.4,0.1l0.2-4L45,55l0.1-1.3l0.9-0.1l0.9-0.7
		l-5.7-1.2L35.5,53l0.6,0.9l0.6-0.1h0.7l0.1,1.7l1.6-0.1V59l-6.8-0.2l0.2-3.8l0.2-3.5v-4.6l0.2-4.8l13.6-0.7l16.2-0.9l0.2,3.1
		L62.3,51L62,57.9l-6-0.1V53l2.2-0.1l0.1-1.4l0.9-0.1v-0.3l0.9-0.1l0.5-0.7l-6.7-1.6l-6.7,1.4l0.5,0.8l0.8-0.1v0.4h0.9v1.5h2v4.2h-2
		v1l0.7,0.1L50,61.7l1.5,0.1l-0.2,14.5l-2,0.4v0.7H50v3.7h1.1L51,86.3l-0.4,4.4l7.1,0.2L57.5,87L57,83.9l-0.1-2.8l6-0.1l-0.2,4.3
		v4.5l3.4,0.3l4.6-0.2l1.5-0.4L71.4,87l-0.2-3.8l-0.4-2.7l5.8-0.2l-0.3,3.3v5.2l2.3,0.2l2.3-0.1l1.1-0.3l-0.7-5L81.1,80l1-0.1v-3.3
		l0.3-0.1v-0.7h-1.1L81,73.3l-0.1-10.7h0.9v-3.5l0.4,0.1v-0.7l-1.3-0.1v-4.1l2.1-0.2l-0.1-1.4l0.9-0.1l-0.1-0.3l1.2-0.6l-6.2-1.3
		l-6.3,1.3l0.4,0.7l1-0.1l0.1,0.3h0.8v1.6h2.1l0.2,3.9L69.7,58l-0.9-5.9L68.1,49l-0.5-5.6l0.3-3.3L82.4,39v-4.9l0.7-0.2v-0.7
		L82.6,33c0,0-7.9,1.2-10.4,1.4c-0.7,0.1-0.7,0.1-1.2,0.1l-0.1-0.9l-3-1.6v-1.8h1l0.1-2.5c0,0,6.1-0.4,8.4-0.9
		c2.3-0.5,5.5-1.1,5.5-1.1l1.5-4.1l3-0.9l0.3-0.7l6.9-1.9l0.8-0.6l-2.6-5.7L93.1,10.5z M26.9,75.3l-9,0.4l-0.1-13.3l9.2,0.5
		l-0.8,5.4v4.5L26.9,75.3z M39.3,62.7L39.4,75L33,75.2l-0.3-4v-4l-0.2-4.5H39.3z M34.3,37.1v-0.3l1.1-0.1l0.1-0.4L33,34.9l-0.1-2.1
		l1.2-0.1l0.1-2.2l8.2-0.6l-0.2,1.4l0.7,0.9v1.5l0.7,1L43.3,36l0.5,0.7L34.3,37.1z M56.7,76.4l-0.3-14.3l5.8,0.4L62,70.2l0.8,6.4
		L56.7,76.4z M63.3,32.4l-3,2L60,34.9h1.2v0.5l-9.3,0.5l0.1-1.4l0.4-0.7v-1.3l0.3-0.6l0.1-0.5V31l0.4-1.6l8.6-1.2v2.1l1.6,0.1
		L63.3,32.4z M76.9,62.4v13.3L71,76.1l-0.2-7l-0.7-6.5L76.9,62.4z"/>
</g>
</svg>
