<?xml version="1.0" encoding="utf-8"?>
<!-- Generator: Adobe Illustrator 27.0.1, SVG Export Plug-In . SVG Version: 6.00 Build 0)  -->
<svg version="1.1" id="Слой_1" xmlns="http://www.w3.org/2000/svg" xmlns:xlink="http://www.w3.org/1999/xlink" x="0px" y="0px"
	 viewBox="0 0 76 76" style="enable-background:new 0 0 76 76;" xml:space="preserve">
<style type="text/css">
	.st0{fill:#25A162;}
	.st1{fill:#DC524A;}
	.st2{fill:#FFFFFF;}
</style>
<circle class="st0" cx="38" cy="38.6" r="32.4"/>
<path class="st1" d="M52.1,42.6V52h-3.3v6.6H28.5v-9.2h-6.1V67c-10-5.5-16.8-16.2-16.8-28.4C5.6,20.7,20.1,6.2,38,6.2
	c4.2,0,8.3,0.8,12,2.3v13.9H31V37h17.5v5.6H52.1z"/>
<g>
	<g>
		<path class="st2" d="M37.7,62.6c-4.9,0-8.6-1.2-11.3-3.5c-2.7-2.3-4-5.6-4-9.8h6.8c0,2.3,0.7,4.2,2.2,5.5c1.5,1.3,3.6,1.9,6.3,1.9
			c2.7,0,4.8-0.8,6.3-2.4c1.5-1.6,2.2-3.9,2.2-6.9c0-2.9-0.8-5.1-2.4-6.7c-1.6-1.6-3.9-2.4-6.8-2.4c-3,0-5.7,0.7-8.3,2.1l0.6-5.4
			c1.7-1,3.3-1.6,5-1.9c1.6-0.3,3.3-0.5,5-0.5c4.4,0,7.7,1.3,10.1,3.9c2.4,2.6,3.6,6.2,3.6,11c0,3.2-0.6,5.9-1.8,8.2
			c-1.2,2.3-2.9,4-5.2,5.2C43.6,62,40.9,62.6,37.7,62.6z M25.1,40.4L25.7,17h6.5l-0.6,19.5l-3,3.9H25.1z M28.8,22.8L28.2,17H50v5.9
			H28.8z"/>
	</g>
</g>
</svg>
