<?xml version="1.0" encoding="utf-8"?>
<!-- Generator: Adobe Illustrator 27.0.1, SVG Export Plug-In . SVG Version: 6.00 Build 0)  -->
<svg version="1.1" id="Слой_1" xmlns="http://www.w3.org/2000/svg" xmlns:xlink="http://www.w3.org/1999/xlink" x="0px" y="0px"
	 viewBox="0 0 250.1 249.8" style="enable-background:new 0 0 250.1 249.8;" xml:space="preserve">
<style type="text/css">
	.st0{fill:#231F20;}
</style>
<path class="st0" d="M168.9,137.5c-9.1,0-17.3,4-22.9,10.4l-14.3-10.1c1.5-4.2,2.4-8.7,2.4-13.4c0-4.6-0.8-9.1-2.3-13.2l14.3-10
	c5.6,6.4,13.8,10.3,22.9,10.3c16.9,0,30.6-13.7,30.6-30.6S185.9,50.3,169,50.3S138.3,64,138.3,80.9c0,3,0.5,5.9,1.3,8.6l-14.3,10.1
	c-6-7.4-14.6-12.6-24.4-14.2V68.1c13.9-2.9,24.3-15.2,24.3-29.9c-0.1-16.8-13.8-30.5-30.7-30.5S64,21.4,64,38.3
	C64,52.7,74.2,64.9,87.8,68v17.5c-18.5,3.3-32.6,19.4-32.6,38.8c0,19.5,14.3,35.7,32.9,38.8v18.5c-13.7,3-24,15.2-24,29.8
	c0,16.9,13.7,30.6,30.6,30.6s30.6-13.7,30.6-30.6c0-14.6-10.3-26.8-24-29.8v-18.5c9.5-1.6,18-6.6,24-14l14.4,10.2
	c-0.8,2.7-1.2,5.6-1.2,8.6c0,16.9,13.7,30.6,30.6,30.6s30.6-13.7,30.6-30.6S185.7,137.5,168.9,137.5z M168.9,66
	c8.2,0,14.8,6.7,14.8,14.8s-6.7,14.8-14.8,14.8s-14.8-6.7-14.8-14.8S160.7,66,168.9,66z M79.7,38.3c0-8.2,6.7-14.8,14.8-14.8
	s14.8,6.7,14.8,14.8s-6.7,14.8-14.8,14.8S79.7,46.4,79.7,38.3z M109.3,211.4c0,8.2-6.7,14.8-14.8,14.8s-14.8-6.7-14.8-14.8
	s6.7-14.8,14.8-14.8S109.3,203.3,109.3,211.4z M94.5,144.9c-11.3,0-20.6-9.3-20.6-20.6s9.3-20.6,20.6-20.6s20.6,9.3,20.6,20.6
	C115.3,135.7,106,144.9,94.5,144.9z M168.9,182.8c-8.2,0-14.8-6.7-14.8-14.8s6.7-14.8,14.8-14.8s14.8,6.7,14.8,14.8
	C183.6,176.2,177.1,182.8,168.9,182.8z"/>
</svg>
