<?xml version="1.0" encoding="utf-8"?>
<!-- Generator: Adobe Illustrator 23.0.0, SVG Export Plug-In . SVG Version: 6.00 Build 0)  -->
<svg version="1.1" id="Слой_1" xmlns="http://www.w3.org/2000/svg" xmlns:xlink="http://www.w3.org/1999/xlink" x="0px" y="0px"
	 viewBox="0 0 128 128" style="enable-background:new 0 0 128 128;" xml:space="preserve">
<style type="text/css">
	.st0{fill:none;stroke:#777777;}
	.st1{fill:#FF6600;fill-opacity:0.8;stroke:#777777;}
	.st2{fill:#FFCC00;fill-opacity:0.8;stroke:#777777;}
	.st3{fill:#77FF77;fill-opacity:0.8;stroke:#777777;}
	.st4{fill:#CCFF33;fill-opacity:0.8;stroke:#777777;}
	.st5{fill:#0044FF;fill-opacity:0.8;stroke:#777777;}
</style>
<path class="st0" d="M63,1C28.2,1.6,0.5,30.2,1,65s29.2,62.5,64,62s62.5-29.2,62-64C126.5,29,99,1.5,65,1H63z M63,15
	c-27.1,0.6-48.5,22.9-48,50c0.6,27.1,22.9,48.5,50,48s48.5-22.9,48-50c-0.5-26.3-21.7-47.5-48-48H63z M63,29
	c-19.3,0.6-34.5,16.7-34,36c0.6,19.3,16.7,34.5,36,34s34.5-16.7,34-36c-0.5-18.5-15.4-33.5-34-34H63z M63,43
	c-11.6,0.6-20.5,10.4-20,22s10.4,20.5,22,20s20.5-10.4,20-22c-0.5-10.8-9.2-19.5-20-20H63z M63,57c-3.8,0.6-6.5,4.1-5.9,7.9
	c0.6,3.8,4.1,6.5,7.9,5.9s6.5-4.1,5.9-7.9c-0.4-3.1-2.9-5.5-5.9-5.9H63z M127,64H1 M109,19l-90,90 M109,109L19,19 M64,1v126"/>
<path class="st1" d="M50,8L30,18l68,92l10-10L64,64L50,8z"/>
<path class="st2" d="M17,50v28l47-14L17,50z"/>
<path class="st3" d="M64,64l6,35H58L64,64z"/>
<path class="st4" d="M64,64l13-40l9,5L64,64z"/>
<path class="st5" d="M64,64l14-6l1,4L38,77l3,4L64,64z"/>
</svg>
