<?xml version="1.0" encoding="utf-8"?>
<!-- Generator: Adobe Illustrator 23.0.0, SVG Export Plug-In . SVG Version: 6.00 Build 0)  -->
<svg version="1.1"
	 id="svg3055" inkscape:version="0.92.4 (5da689c313, 2019-01-14)" sodipodi:docname="maven.svg" xmlns:cc="http://creativecommons.org/ns#" xmlns:dc="http://purl.org/dc/elements/1.1/" xmlns:inkscape="http://www.inkscape.org/namespaces/inkscape" xmlns:rdf="http://www.w3.org/1999/02/22-rdf-syntax-ns#" xmlns:sodipodi="http://sodipodi.sourceforge.net/DTD/sodipodi-0.dtd" xmlns:svg="http://www.w3.org/2000/svg"
	 xmlns="http://www.w3.org/2000/svg" xmlns:xlink="http://www.w3.org/1999/xlink" x="0px" y="0px" viewBox="0 0 51.2 68.5"
	 style="enable-background:new 0 0 51.2 68.5;" xml:space="preserve">
<style type="text/css">
	.st0{fill:url(#path7258_1_);}
	.st1{fill:none;}
	.st2{fill:#BE202E;}
	.st3{opacity:0.35;fill:#BE202E;enable-background:new    ;}
	.st4{fill:url(#path7286_1_);}
	.st5{fill:url(#path7298_1_);}
	.st6{fill:url(#path7310_1_);}
	.st7{fill:url(#path7322_1_);}
	.st8{fill:url(#path7334_1_);}
	.st9{fill:url(#path7346_1_);}
	.st10{fill:url(#path7362_1_);}
	.st11{fill:url(#path7378_1_);}
	.st12{fill:url(#path7394_1_);}
	.st13{display:none;}
	.st14{display:inline;}
	.st15{display:inline;fill:none;}
	.st16{fill:url(#path4710_1_);}
	.st17{fill:url(#path4737_1_);}
	.st18{fill:url(#path4748_1_);}
	.st19{fill:url(#path4759_1_);}
	.st20{fill:url(#path4770_1_);}
	.st21{fill:url(#path4781_1_);}
	.st22{fill:url(#path4792_1_);}
	.st23{fill:url(#path4807_1_);}
	.st24{fill:url(#path4822_1_);}
	.st25{fill:url(#path4837_1_);}
</style>
<sodipodi:namedview  bordercolor="#666666" borderopacity="1" gridtolerance="10" guidetolerance="10" id="namedview188" inkscape:current-layer="svg3055" inkscape:cx="170" inkscape:cy="43" inkscape:pageopacity="0" inkscape:pageshadow="2" inkscape:window-height="877" inkscape:window-maximized="1" inkscape:window-width="1600" inkscape:window-x="-8" inkscape:window-y="-8" inkscape:zoom="0.91176471" objecttolerance="10" pagecolor="#ffffff" showgrid="false">
	</sodipodi:namedview>
<g id="g8927">
	<g id="g7248" transform="matrix(0.09561334,-0.07017507,0.07017507,0.09561334,132.73733,36.368381)">
		
			<linearGradient id="path7258_1_" gradientUnits="userSpaceOnUse" x1="-129860.2188" y1="-86258.5938" x2="-129784.5781" y2="-86347.0469" gradientTransform="matrix(0.104 -5.699813e-02 -5.699813e-02 -0.104 7843.771 -17225.5273)">
			<stop  offset="0" style="stop-color:#F69923"/>
			<stop  offset="0.3123" style="stop-color:#F79A23"/>
			<stop  offset="0.8383" style="stop-color:#E97826"/>
		</linearGradient>
		<path id="path7258" class="st0" d="M-720-895.1c-8.4,5-22.4,19-39,39.3l15.3,28.9c10.7-15.4,21.7-29.2,32.7-41
			c0.8-0.9,1.3-1.4,1.3-1.4c-0.4,0.5-0.9,0.9-1.3,1.4c-3.6,3.9-14.4,16.5-30.7,41.6c15.7-0.8,39.8-4,59.5-7.4
			c5.9-32.8-5.7-47.8-5.7-47.8S-702.7-905.4-720-895.1z"/>
		<path id="path7260" class="st1" d="M-746-730.3c0.1,0,0.2,0,0.3-0.1l-2.2,0.2c-0.1,0.1-0.3,0.1-0.4,0.2
			C-747.5-730.1-746.7-730.2-746-730.3z"/>
		<path id="path7262" class="st1" d="M-761.6-678.6c-1.2,0.3-2.5,0.5-3.8,0.7C-764.1-678.1-762.8-678.3-761.6-678.6z"/>
		<path id="path7264" class="st1" d="M-867.8-562.5c0.2-0.4,0.3-0.9,0.5-1.3c3.4-8.9,6.7-17.5,10-26c3.7-9.4,7.4-18.6,11-27.5
			c3.8-9.3,7.6-18.4,11.3-27.1c3.9-9.2,7.7-18,11.5-26.5c3.1-6.9,6.1-13.6,9.1-20.1c1-2.2,2-4.3,3-6.4c2-4.2,3.9-8.3,5.8-12.3
			c1.8-3.7,3.5-7.3,5.2-10.9c0.6-1.2,1.2-2.4,1.7-3.5c0.1-0.2,0.2-0.4,0.3-0.6l-1.9,0.2l-1.5-2.9c-0.1,0.3-0.3,0.6-0.4,0.9
			c-2.7,5.3-5.4,10.7-8,16.2c-1.5,3.1-3,6.3-4.6,9.5c-4.2,8.8-8.3,17.6-12.3,26.6c-4.1,9-8.1,18.1-12,27.1
			c-3.9,8.9-7.6,17.8-11.3,26.7s-7.3,17.7-10.8,26.5c-3.7,9.2-7.3,18.3-10.7,27.3c-0.8,2-1.6,4.1-2.3,6.1
			c-2.8,7.3-5.5,14.4-8.1,21.5l2.4,4.7l2.1-0.2c0.1-0.2,0.2-0.4,0.2-0.6C-874.5-544.6-871.1-553.7-867.8-562.5z"/>
		<path id="path7266" class="st1" d="M-766.4-677.8L-766.4-677.8L-766.4-677.8L-766.4-677.8z"/>
		<path id="path7268" class="st2" d="M-771.5-652.5c-2,0.4-4,0.7-6,1l0,0c1-0.1,2.1-0.3,3.1-0.5
			C-773.4-652.1-772.4-652.3-771.5-652.5z"/>
		<path id="path7270" class="st3" d="M-771.5-652.5c-2,0.4-4,0.7-6,1l0,0c1-0.1,2.1-0.3,3.1-0.5
			C-773.4-652.1-772.4-652.3-771.5-652.5z"/>
		<path id="path7272" class="st2" d="M-766.3-677.8L-766.3-677.8C-766.4-677.8-766.4-677.8-766.3-677.8c0.3,0,0.6-0.1,0.9-0.1
			c1.3-0.2,2.6-0.4,3.8-0.7C-763.1-678.3-764.7-678.1-766.3-677.8L-766.3-677.8L-766.3-677.8z"/>
		<path id="path7274" class="st3" d="M-766.3-677.8L-766.3-677.8C-766.4-677.8-766.4-677.8-766.3-677.8c0.3,0,0.6-0.1,0.9-0.1
			c1.3-0.2,2.6-0.4,3.8-0.7C-763.1-678.3-764.7-678.1-766.3-677.8L-766.3-677.8L-766.3-677.8z"/>
		
			<linearGradient id="path7286_1_" gradientUnits="userSpaceOnUse" x1="-133715.375" y1="-88983.5156" x2="-133175.7031" y2="-88983.5156" gradientTransform="matrix(0.104 -5.699813e-02 -5.699813e-02 -0.104 7843.771 -17225.5273)">
			<stop  offset="0.3233" style="stop-color:#9E2064"/>
			<stop  offset="0.6302" style="stop-color:#C92037"/>
			<stop  offset="0.7514" style="stop-color:#CD2335"/>
			<stop  offset="1" style="stop-color:#E97826"/>
		</linearGradient>
		<path id="path7286" class="st4" d="M-788.9-752.3c4.7-8.7,9.4-17.2,14.1-25.5c4.9-8.6,9.9-16.9,15-25c0.3-0.5,0.6-1,0.9-1.4
			c5-7.9,10-15.5,15.1-22.8l-15.3-28.8c-1.1,1.4-2.3,2.8-3.5,4.3c-4.4,5.5-9,11.4-13.7,17.7c-5.3,7.1-10.7,14.6-16.3,22.5
			c-5.1,7.3-10.3,15-15.5,22.9c-4.4,6.8-8.8,13.7-13.2,20.8c-0.2,0.3-0.3,0.5-0.5,0.8l19.9,39.3
			C-797.5-735.8-793.2-744.1-788.9-752.3z"/>
		
			<linearGradient id="path7298_1_" gradientUnits="userSpaceOnUse" x1="-133001.9844" y1="-89027.1719" x2="-132680.3906" y2="-89027.1719" gradientTransform="matrix(0.104 -5.699813e-02 -5.699813e-02 -0.104 7843.771 -17225.5273)">
			<stop  offset="0" style="stop-color:#282662"/>
			<stop  offset="9.548389e-02" style="stop-color:#662E8D"/>
			<stop  offset="0.7882" style="stop-color:#9F2064"/>
			<stop  offset="0.9487" style="stop-color:#CD2032"/>
		</linearGradient>
		<path id="path7298" class="st5" d="M-879.6-530.6c-2.6,7.2-5.3,14.6-7.9,22.2c0,0.1-0.1,0.2-0.1,0.3c-0.4,1.1-0.8,2.1-1.1,3.2
			c-1.8,5.1-3.3,9.7-6.9,20.1c5.9,2.7,10.6,9.7,15,17.7c-0.5-8.3-3.9-16.1-10.4-22.1c28.9,1.3,53.9-6,66.7-27.2
			c1.1-1.9,2.2-3.9,3.2-6c-5.9,7.4-13.1,10.6-26.8,9.8h-0.1h0.1c20.1-9,30.2-17.7,39.1-32c2.1-3.4,4.2-7.1,6.3-11.2
			c-17.6,18.1-38,23.2-59.5,19.3l-16.1,1.8C-878.6-533.3-879.1-532-879.6-530.6z"/>
		
			<linearGradient id="path7310_1_" gradientUnits="userSpaceOnUse" x1="-133534.2188" y1="-88798.4141" x2="-132994.5313" y2="-88798.4141" gradientTransform="matrix(0.104 -5.699813e-02 -5.699813e-02 -0.104 7843.771 -17225.5273)">
			<stop  offset="0.3233" style="stop-color:#9E2064"/>
			<stop  offset="0.6302" style="stop-color:#C92037"/>
			<stop  offset="0.7514" style="stop-color:#CD2335"/>
			<stop  offset="1" style="stop-color:#E97826"/>
		</linearGradient>
		<path id="path7310" class="st6" d="M-872.1-566.7c3.5-9,7.1-18.1,10.7-27.3c3.5-8.8,7.1-17.6,10.8-26.5
			c3.7-8.9,7.5-17.8,11.3-26.7c3.9-9.1,7.9-18.1,12-27.1c4-8.9,8.2-17.8,12.3-26.6c1.5-3.2,3-6.3,4.6-9.5c2.6-5.4,5.3-10.8,8-16.2
			c0.1-0.3,0.3-0.6,0.4-0.9l-19.7-39.2c-0.3,0.5-0.6,1.1-1,1.6c-4.6,7.6-9.3,15.3-13.8,23.2c-4.6,8-9.1,16.1-13.5,24.4
			c-3.7,7-7.3,14-10.9,21.1c-0.7,1.4-1.4,2.9-2.1,4.3c-4.3,8.9-8.3,17.6-11.8,25.9c-4,9.4-7.5,18.4-10.6,26.9
			c-2,5.6-3.9,11-5.6,16.2c-1.4,4.4-2.7,8.9-4,13.3c-3,10.4-5.5,20.8-7.6,31.2l20,39.5c2.6-7.1,5.4-14.2,8.1-21.5
			C-873.7-562.6-872.9-564.6-872.1-566.7z"/>
		
			<linearGradient id="path7322_1_" gradientUnits="userSpaceOnUse" x1="-133229.7969" y1="-88652.3125" x2="-132946.1719" y2="-88652.3125" gradientTransform="matrix(0.104 -5.699813e-02 -5.699813e-02 -0.104 7843.771 -17225.5273)">
			<stop  offset="0" style="stop-color:#282662"/>
			<stop  offset="9.548389e-02" style="stop-color:#662E8D"/>
			<stop  offset="0.7882" style="stop-color:#9F2064"/>
			<stop  offset="0.9487" style="stop-color:#CD2032"/>
		</linearGradient>
		<path id="path7322" class="st7" d="M-902.9-577.2c-2.5,12.6-4.3,25.2-5.2,37.8c0,0.4-0.1,0.9-0.1,1.3c-6.2-10-23-19.8-22.9-19.7
			c12,17.4,21.1,34.6,22.4,51.5c-6.4,1.3-15.2-0.6-25.3-4.3c10.6,9.7,18.5,12.4,21.6,13.1c-9.7,0.6-19.8,7.3-30,15
			c14.9-6.1,27-8.5,35.6-6.5c-13.7,38.7-27.4,81.5-41.1,126.9c4.2-1.2,6.7-4.1,8.1-7.9c2.4-8.2,18.7-62.2,44.1-133.1
			c0.7-2,1.5-4,2.2-6.1c0.2-0.6,0.4-1.1,0.6-1.7c2.7-7.4,5.5-15,8.4-22.8c0.7-1.8,1.3-3.5,2-5.3v-0.1l-20-39.5
			C-902.7-578.1-902.8-577.7-902.9-577.2z"/>
		
			<linearGradient id="path7334_1_" gradientUnits="userSpaceOnUse" x1="-133255.5938" y1="-89178.0391" x2="-132715.9063" y2="-89178.0391" gradientTransform="matrix(0.104 -5.699813e-02 -5.699813e-02 -0.104 7843.771 -17225.5273)">
			<stop  offset="0.3233" style="stop-color:#9E2064"/>
			<stop  offset="0.6302" style="stop-color:#C92037"/>
			<stop  offset="0.7514" style="stop-color:#CD2335"/>
			<stop  offset="1" style="stop-color:#E97826"/>
		</linearGradient>
		<path id="path7334" class="st8" d="M-798.7-724.1c-0.6,1.2-1.1,2.3-1.7,3.5c-1.7,3.6-3.5,7.2-5.2,10.9c-1.9,4-3.8,8.1-5.8,12.3
			c-1,2.1-2,4.2-3,6.4c-3,6.5-6,13.2-9.1,20.1c-3.8,8.5-7.6,17.3-11.5,26.5c-3.7,8.7-7.5,17.8-11.3,27.1c-3.6,8.9-7.3,18-11,27.5
			c-3.3,8.4-6.6,17.1-10,26c-0.2,0.4-0.3,0.9-0.5,1.3c-3.3,8.8-6.7,17.9-10.1,27.2c-0.1,0.2-0.2,0.4-0.2,0.6l16.1-1.8
			c-0.3-0.1-0.6-0.1-1-0.2c19.3-2.4,44.9-16.8,61.4-34.6c7.6-8.2,14.5-17.8,20.9-29.1c4.8-8.4,9.2-17.7,13.5-28.1
			c3.7-9,7.3-18.8,10.7-29.4c-4.4,2.3-9.5,4-15.1,5.2c-1,0.2-2,0.4-3,0.6c-1,0.2-2,0.3-3.1,0.5l0,0l0,0l0,0
			c18-6.9,29.3-20.2,37.5-36.6c-4.7,3.2-12.4,7.4-21.6,9.5c-1.2,0.3-2.5,0.5-3.8,0.7c-0.3,0-0.6,0.1-1,0.1l0,0l0,0l0,0l0,0l0,0
			c6.2-2.6,11.5-5.5,16.1-9c1-0.7,1.9-1.5,2.8-2.3c1.4-1.2,2.7-2.5,4-3.8c0.8-0.9,1.6-1.7,2.4-2.6c1.8-2.1,3.5-4.4,5-6.9
			c0.5-0.8,1-1.5,1.4-2.3c0.6-1.2,1.2-2.3,1.7-3.4c2.5-5,4.5-9.5,6.1-13.5c0.8-2,1.5-3.8,2.1-5.5c0.2-0.7,0.5-1.3,0.7-2
			c0.6-1.9,1.2-3.6,1.6-5.1c0.6-2.2,1-4,1.2-5.3l0,0l0,0c-0.6,0.5-1.3,1-2.1,1.4c-5.4,3.2-14.7,6.2-22.2,7.6l14.8-1.6l-14.8,1.6
			c-0.1,0-0.2,0-0.3,0.1c-0.7,0.1-1.5,0.2-2.3,0.4c0.1-0.1,0.3-0.1,0.4-0.2l-50.6,5.5C-798.5-724.4-798.6-724.2-798.7-724.1z"/>
		
			<linearGradient id="path7346_1_" gradientUnits="userSpaceOnUse" x1="-133496.6563" y1="-89326.6563" x2="-132956.9688" y2="-89326.6563" gradientTransform="matrix(0.104 -5.699813e-02 -5.699813e-02 -0.104 7843.771 -17225.5273)">
			<stop  offset="0.3233" style="stop-color:#9E2064"/>
			<stop  offset="0.6302" style="stop-color:#C92037"/>
			<stop  offset="0.7514" style="stop-color:#CD2335"/>
			<stop  offset="1" style="stop-color:#E97826"/>
		</linearGradient>
		<path id="path7346" class="st9" d="M-741.7-826.3c-4.5,6.9-9.4,14.8-14.7,23.6c-0.3,0.5-0.6,0.9-0.8,1.4
			c-4.6,7.7-9.4,16.1-14.5,25.4c-4.4,8-9,16.5-13.8,25.8c-4.2,8-8.4,16.5-12.9,25.5l50.6-5.5c14.7-6.8,21.3-12.9,27.7-21.8
			c1.7-2.4,3.4-5,5.1-7.7c5.2-8.1,10.3-17,14.8-25.9c4.4-8.6,8.3-17.1,11.2-24.7c1.9-4.9,3.4-9.4,4.5-13.4c0.9-3.5,1.6-6.8,2.2-10
			C-701.9-830.3-726-827.1-741.7-826.3z"/>
		<path id="path7348" class="st2" d="M-774.4-651.9c-1,0.2-2,0.3-3.1,0.5l0,0C-776.5-651.6-775.5-651.8-774.4-651.9z"/>
		<path id="path7350" class="st3" d="M-774.4-651.9c-1,0.2-2,0.3-3.1,0.5l0,0C-776.5-651.6-775.5-651.8-774.4-651.9z"/>
		
			<linearGradient id="path7362_1_" gradientUnits="userSpaceOnUse" x1="-133172.1406" y1="-89291.7422" x2="-132632.4531" y2="-89291.7422" gradientTransform="matrix(0.104 -5.699813e-02 -5.699813e-02 -0.104 7843.771 -17225.5273)">
			<stop  offset="0.3233" style="stop-color:#9E2064"/>
			<stop  offset="0.6302" style="stop-color:#C92037"/>
			<stop  offset="0.7514" style="stop-color:#CD2335"/>
			<stop  offset="1" style="stop-color:#E97826"/>
		</linearGradient>
		<path id="path7362" class="st10" d="M-774.4-651.9c-1,0.2-2,0.3-3.1,0.5l0,0C-776.5-651.6-775.5-651.8-774.4-651.9z"/>
		<path id="path7364" class="st2" d="M-766.4-677.8c0.3,0,0.6-0.1,1-0.1C-765.7-677.9-766-677.8-766.4-677.8L-766.4-677.8z"/>
		<path id="path7366" class="st3" d="M-766.4-677.8c0.3,0,0.6-0.1,1-0.1C-765.7-677.9-766-677.8-766.4-677.8L-766.4-677.8z"/>
		
			<linearGradient id="path7378_1_" gradientUnits="userSpaceOnUse" x1="-133181.9375" y1="-89278.3984" x2="-132642.2656" y2="-89278.3984" gradientTransform="matrix(0.104 -5.699813e-02 -5.699813e-02 -0.104 7843.771 -17225.5273)">
			<stop  offset="0.3233" style="stop-color:#9E2064"/>
			<stop  offset="0.6302" style="stop-color:#C92037"/>
			<stop  offset="0.7514" style="stop-color:#CD2335"/>
			<stop  offset="1" style="stop-color:#E97826"/>
		</linearGradient>
		<path id="path7378" class="st11" d="M-766.4-677.8c0.3,0,0.6-0.1,1-0.1C-765.7-677.9-766-677.8-766.4-677.8L-766.4-677.8z"/>
		<path id="path7380" class="st2" d="M-766.3-677.8L-766.3-677.8L-766.3-677.8L-766.3-677.8L-766.3-677.8L-766.3-677.8z"/>
		<path id="path7382" class="st3" d="M-766.3-677.8L-766.3-677.8L-766.3-677.8L-766.3-677.8L-766.3-677.8L-766.3-677.8z"/>
		
			<linearGradient id="path7394_1_" gradientUnits="userSpaceOnUse" x1="-130717.8281" y1="-87466.2969" x2="-130717.8281" y2="-87466.2969" gradientTransform="matrix(0.104 -5.699813e-02 -5.699813e-02 -0.104 7843.771 -17225.5273)">
			<stop  offset="0.3233" style="stop-color:#9E2064"/>
			<stop  offset="0.6302" style="stop-color:#C92037"/>
			<stop  offset="0.7514" style="stop-color:#CD2335"/>
			<stop  offset="1" style="stop-color:#E97826"/>
		</linearGradient>
		<path id="path7394" class="st12" d="M-766.3-677.8L-766.3-677.8L-766.3-677.8L-766.3-677.8L-766.3-677.8L-766.3-677.8z"/>
	</g>
	<g id="text5492" class="st13">
		<path id="path4317" class="st14" d="M-135-15.5h13.1c1.1,0,2.1,0,3.2,0c1.1,0,1.9,0.2,2.4,0.7c0.4,0.3,0.6,0.8,0.7,1.5
			c0.1,0.6,0.2,1.2,0.3,1.8c0.1,1.1,0.3,2.2,0.4,3.3c0.2,1.1,0.4,2.2,0.5,3.3c0.7,4.2,1.3,8.5,1.8,12.8c0.5,4.3,1.2,8.6,1.9,12.9
			c0.3,1.3,0.5,2.7,0.6,4.1s0.3,2.8,0.6,4.1c0.1,0.3,0.1,0.7,0.2,1s0.2,0.6,0.5,0.8c0.1,0.1,0.2,0.1,0.3,0.2c0.1,0.1,0.3,0,0.5-0.1
			c0.5-0.1,1-0.5,1.3-1.2c0.3-0.7,0.7-1.3,1-1.8c0.8-1.5,1.6-3,2.3-4.5c0.7-1.5,1.5-3.1,2.4-4.6c2.1-4.1,4.3-8.1,6.4-12.2
			c2.2-4.1,4.4-8.3,6.5-12.4c0.5-1.1,1.1-2.1,1.6-3.1c0.6-1.1,1.2-2.1,1.7-3.2c0.3-0.5,0.6-1.1,0.9-1.6s0.8-1,1.4-1.3
			c0.5-0.3,1-0.5,1.6-0.5c0.7,0,1.3,0,2,0h6.5h6.9c0.6,0,1.2,0,1.8,0c0.7,0,1.1,0.1,1.4,0.4c0.7,0.4,0.9,1.2,0.6,2.3
			c-0.2,1.1-0.4,2.2-0.6,3.3l-3,15l-7.5,37.2l-1.7,8.7c-0.1,0.7-0.3,1.5-0.5,2.2c-0.2,0.7-0.5,1.2-1,1.5c-0.5,0.3-1,0.5-1.6,0.6
			c-0.6,0-1.3,0-2,0h-4.8h-2.7c-0.5-0.1-0.9-0.2-1.3-0.3c-0.3-0.1-0.6-0.3-0.8-0.7c-0.2-0.3-0.3-0.8-0.2-1.3
			c0.1-0.5,0.3-1.1,0.4-1.7l1-5.1l5.2-25.7c0.1-0.9,0.3-1.8,0.4-2.6c0.2-0.9,0.4-1.7,0.5-2.6c0.1-0.5,0.3-1.1,0.4-1.6
			c0.1-0.6,0.2-1.2,0.2-1.7c-0.1-0.5-0.1-1,0-1.5c0.1-0.5,0-0.9-0.3-1c-0.2-0.1-0.4,0-0.5,0.1c-0.1,0.1-0.2,0.2-0.3,0.3
			c-0.3,0.3-0.6,0.6-0.9,1c-0.2,0.3-0.4,0.7-0.6,1c-0.6,1-1.2,2-1.8,3.1c-0.5,1.1-1.1,2.1-1.8,3.2c-0.2,0.4-0.4,0.8-0.6,1.2
			c-0.1,0.4-0.3,0.8-0.6,1.2c-0.5,0.9-1,1.7-1.5,2.6c-0.4,0.9-0.9,1.7-1.4,2.6c-0.1,0.2-0.2,0.4-0.3,0.7c-0.1,0.2-0.2,0.4-0.3,0.6
			c-0.4,0.6-0.8,1.2-1.1,1.9c-0.3,0.7-0.6,1.3-1.1,2c-0.4,0.6-0.8,1.2-1.1,1.9c-0.3,0.7-0.6,1.3-1,2c-1.2,1.9-2.3,3.9-3.3,5.9
			c-1,1.9-2,3.9-3.1,5.8c-0.2,0.2-0.3,0.4-0.4,0.6c0,0.2-0.1,0.4-0.3,0.6c-0.5,0.7-0.9,1.5-1.3,2.3c-0.3,0.7-0.7,1.5-1.2,2.2
			c-0.3,0.5-0.5,0.9-0.8,1.3c-0.3,0.4-0.6,0.7-0.9,1c-0.4,0.3-0.8,0.4-1.1,0.5c-0.3,0-0.8,0.1-1.3,0.2h-2.3c-0.5,0-1,0-1.7,0.1
			c-0.6,0-1.2,0-1.9,0c-0.6,0-1.2,0-1.7-0.1s-0.9-0.2-1.1-0.4c-0.5-0.3-0.8-0.7-0.9-1.1c-0.1-0.5-0.2-1-0.4-1.6
			c-0.1-0.8-0.2-1.6-0.3-2.4c-0.1-0.9-0.2-1.7-0.4-2.5l-0.1-0.9c-0.2-0.8-0.3-1.6-0.4-2.5c-0.1-0.9-0.2-1.8-0.4-2.6
			c0-0.2,0-0.4,0-0.5c0-0.2,0-0.4-0.1-0.6c-0.2-0.6-0.3-1.2-0.4-1.9c-0.1-0.7-0.2-1.3-0.3-2c0-0.1,0-0.3,0-0.5s0-0.4-0.1-0.5
			c-0.1-0.7-0.2-1.3-0.3-2c0-0.7-0.1-1.3-0.3-2c-0.3-1.3-0.5-2.7-0.7-4.2c-0.1-1.5-0.3-2.9-0.6-4.3c-0.3-1.7-0.5-3.4-0.7-5.1
			c-0.1-1.7-0.4-3.4-0.9-5c-0.1-0.9-0.3-1.7-0.6-2.3c-0.1-0.1-0.3-0.2-0.4-0.3c-0.1-0.1-0.2-0.1-0.4,0c-0.4,0.2-0.7,0.5-0.8,1
			c-0.1,0.5-0.2,0.9-0.4,1.4c-0.3,0.5-0.4,1-0.5,1.5c-0.1,0.5-0.1,1-0.2,1.5c-0.1,0.7-0.3,1.5-0.5,2.2c-0.1,0.7-0.3,1.5-0.5,2.2
			l-5.3,26.6l-1,4.9c-0.1,0.5-0.3,1.1-0.4,1.6c-0.1,0.5-0.3,1-0.6,1.3c-0.3,0.5-0.9,0.8-1.7,0.9c-0.5,0.1-1,0.2-1.5,0.2
			c-0.5-0.1-1.1-0.1-1.6-0.1h-5.2c-0.7,0-1.4,0-2,0c-0.6-0.1-1.1-0.3-1.4-0.6c-0.3-0.3-0.5-0.8-0.4-1.5c0.1-0.7,0.3-1.5,0.4-2.2
			l1.7-8.8l7.5-37.2l2.8-14c0.1-0.4,0.1-0.9,0.2-1.4c0.1-0.6,0.3-1.2,0.4-1.7c0.1-0.5,0.3-1,0.4-1.5c0.2-0.5,0.4-0.9,0.5-1.2
			c0.4-0.5,1-0.8,1.8-1c0.2-0.1,0.3-0.1,0.4,0C-135.4-15.4-135.2-15.4-135-15.5L-135-15.5z"/>
		<path id="path4319" class="st14" d="M-15.5,51.8c0,0.7-0.1,1.5-0.2,2.2s-0.6,1.2-1.3,1.5c-0.5,0.2-1,0.3-1.5,0.3s-1.1,0-1.6,0
			h-5.4c-0.6,0-1.2,0-1.8,0c-0.5-0.1-0.9-0.2-1.2-0.5c-0.4-0.3-0.7-0.6-0.8-1.1c-0.1-0.5-0.4-1-0.7-1.3c-0.1-0.1-0.3-0.2-0.5-0.3
			c-0.1-0.1-0.4-0.2-0.7-0.1c-0.4,0.1-0.8,0.3-1.1,0.5c-0.3,0.2-0.7,0.4-1,0.5c-0.4,0.3-0.8,0.5-1.3,0.7c-0.4,0.2-0.8,0.4-1.3,0.6
			c-0.9,0.4-1.9,0.7-2.9,1c-1,0.2-2,0.4-3,0.7c-0.5,0.1-1,0.2-1.5,0.2c-0.4,0.1-0.8,0.1-1.3,0.2c-0.2,0-0.4,0-0.6,0
			c-0.2,0.1-0.4,0.1-0.6,0.1h-1.1c-0.7,0.1-1.4,0.1-2,0h-0.9c-0.5-0.1-0.9-0.2-1.4-0.2c-0.4,0.1-0.8,0-1.2-0.1
			c-0.6-0.1-1.2-0.3-1.8-0.4c-0.6-0.1-1.1-0.2-1.6-0.5c-1.8-0.7-3.3-1.7-4.4-2.8c-1.1-1.2-1.9-2.8-2.3-4.7c-0.1-0.5-0.2-1-0.3-1.5
			c0-0.5,0-1.1-0.1-1.7c-0.1-0.3-0.1-0.7,0-1c0.1-0.3,0.2-0.7,0.2-1c0-0.2,0-0.6,0.1-1.2c0.1-0.7,0.3-1.1,0.4-1.4
			c0.3-0.7,0.4-1.2,0.5-1.7c0.3-0.7,0.7-1.5,1-2.2c0.4-0.8,0.8-1.5,1.3-2.1c1.5-1.9,3-3.4,4.7-4.4c1.7-1,3.7-1.9,6.2-2.6
			c0.9-0.3,1.9-0.6,2.8-0.7c0.9-0.1,1.9-0.3,2.9-0.5c0.5-0.1,1.1-0.2,1.7-0.2c0.7-0.1,1.3-0.2,1.9-0.3c0.5-0.1,0.9-0.2,1.4-0.1
			c0.5,0,1-0.1,1.6-0.2c0.5-0.1,0.9-0.2,1.4-0.2s1-0.1,1.5-0.2c1.5-0.3,2.8-0.6,4-0.8c1.3-0.3,2.5-0.9,3.6-1.8
			c0.7-0.6,1.2-1.3,1.6-2C-24,20.3-24,20.2-24,20s0-0.3,0.1-0.4c0.1-0.1,0.2-0.3,0.2-0.6c0.1-0.3,0.1-0.5,0.2-0.6c0-0.3,0-0.5,0-0.8
			c0-0.3,0-0.5,0-0.7c-0.3-2-1.4-3.4-3.4-4.1c-0.5-0.2-1.2-0.3-2.1-0.4c-0.8-0.1-1.6-0.2-2.5-0.1c-0.9,0-1.7,0.1-2.6,0.2
			c-0.8,0.1-1.5,0.3-2.1,0.5c-0.5,0.1-0.9,0.3-1.3,0.6c-0.4,0.2-0.8,0.4-1.2,0.7s-0.8,0.6-1.3,1.1c-0.5,0.5-0.8,0.9-1,1.3
			c-0.5,0.7-0.9,1.3-1.2,1.9c-0.3,0.6-0.9,1-1.7,1.2C-44.4,20-45,20-45.6,20s-1.2,0-1.8,0h-3.8c-0.3,0-0.7,0-1.1,0.1
			c-0.3,0-0.6,0-0.8-0.1H-54c-0.1-0.1-0.3-0.1-0.5-0.1c-0.2,0-0.4-0.1-0.5-0.2c-0.5-0.1-0.7-0.6-0.8-1.3c0-0.3,0.1-0.7,0.2-1
			c0.1-0.3,0.3-0.6,0.4-0.9c0.3-0.7,0.7-1.4,1-2c0.4-0.7,0.8-1.3,1.2-1.8c0.3-0.3,0.5-0.7,0.8-1c0.3-0.3,0.5-0.7,0.8-1
			c0.7-0.7,1.5-1.4,2.4-2.1c0.2-0.1,0.4-0.2,0.7-0.5c0.4-0.3,0.7-0.5,1-0.7c0.3-0.2,0.7-0.4,1.1-0.6c1.3-0.7,2.6-1.3,3.9-1.7
			c1.4-0.5,2.8-0.9,4.2-1.3c0.9-0.2,1.7-0.3,2.6-0.4c0.9-0.1,1.8-0.2,2.7-0.4c0.3-0.1,0.7-0.1,1.2,0c0.5,0.1,0.9,0,1.1-0.1
			c2.7-0.1,5.3,0,7.7,0.3c2.5,0.3,4.6,0.8,6.5,1.5c1.9,0.7,3.5,1.7,4.7,3c1.3,1.2,2.1,2.8,2.5,4.7c0.2,1.1,0.2,2.4,0,3.9
			s-0.5,3-0.8,4.5l-4.5,22.3c-0.2,1.3-0.4,2.6-0.7,3.9c-0.3,1.3-0.4,2.4-0.3,3.5c0,0.2,0,0.4-0.1,0.7
			C-15.5,51.4-15.5,51.6-15.5,51.8L-15.5,51.8z M-27.1,36.4c0.1-0.3,0.2-0.7,0.3-1.1c0.1-0.5,0.1-0.9,0.1-1.2c0-0.4,0-0.8,0.1-1.1
			c0.1-0.3,0-0.6-0.3-0.8c-0.3-0.3-0.7-0.4-1.4-0.4c-0.3,0.1-0.5,0.1-0.7,0.2c-0.2,0-0.5,0-0.8,0.1c-0.5,0.1-1,0.2-1.5,0.3
			c-0.5,0.1-1.1,0.2-1.7,0.3c-0.2,0.1-0.5,0.1-0.9,0.1c-0.9,0.2-1.8,0.3-2.7,0.4c-0.9,0.1-1.7,0.2-2.6,0.5c-0.5,0.1-1.1,0.3-1.6,0.4
			c-0.5,0.1-0.9,0.2-1.4,0.4c-1.5,0.6-2.9,1.5-4.1,2.7s-1.9,2.9-2.1,5c-0.1,1.1,0.1,2.1,0.6,2.8c0.3,0.7,0.8,1.3,1.7,1.8
			c0.9,0.4,1.8,0.7,2.9,0.9c1.1,0.2,2.2,0.3,3.4,0.2c1.3-0.1,2.5-0.4,3.6-0.7c1.9-0.5,3.4-1.4,4.6-2.5c1.3-1.2,2.3-2.7,3.2-4.4
			c0.2-0.5,0.4-0.9,0.5-1.4c0.1-0.5,0.3-1.1,0.6-1.6L-27.1,36.4L-27.1,36.4z"/>
		<path id="path4321" class="st15" d="M2.7,4.2H10c0.7,0,1.4,0,2.1,0.1c0.7,0,1.2,0.1,1.6,0.4c0.7,0.5,1,1.3,1,2.6
			c0.1,1.2,0.2,2.3,0.4,3.2c0.3,2.2,0.5,4.5,0.7,6.8c0.2,2.3,0.4,4.5,0.7,6.8c0.3,1.6,0.5,3.2,0.6,4.9c0.1,1.7,0.3,3.3,0.6,4.8
			c0.1,0.6,0.1,1.2,0.2,1.9c0.1,0.7,0.6,1,1.3,1c0.2-0.1,0.3-0.2,0.4-0.2c0.1-0.1,0.2-0.2,0.3-0.3c0.3-0.3,0.5-0.7,0.7-1
			c0.2-0.3,0.4-0.7,0.6-1.1c0.5-0.7,0.9-1.5,1.2-2.3c0.3-0.8,0.7-1.6,1.2-2.3c1.5-2.8,2.9-5.6,4.3-8.4c1.4-2.9,2.8-5.7,4.3-8.5
			c0.5-0.8,1-1.6,1.3-2.4c0.4-0.9,0.8-1.7,1.2-2.4c0.3-0.5,0.5-1.1,0.8-1.6c0.3-0.5,0.7-1,1.2-1.3c0.2-0.1,0.7-0.3,1.4-0.6
			c0.4-0.1,0.8-0.2,1.3-0.1c0.5,0,0.9,0,1.3,0h4.9c0.7,0,1.4,0,2,0.1c0.7,0,1.1,0.2,1.4,0.5c0.3,0.3,0.4,0.8,0.1,1.5
			c-0.2,0.6-0.4,1.1-0.6,1.5c-0.5,0.9-1.1,1.9-1.6,3c-0.5,1-1.1,2-1.6,2.9c-0.3,0.5-0.5,0.9-0.7,1.4c-0.2,0.4-0.4,0.8-0.6,1.2
			c-0.5,0.7-0.9,1.5-1.3,2.2s-0.8,1.5-1.2,2.2c-0.1,0.2-0.2,0.4-0.3,0.7c-0.1,0.2-0.2,0.4-0.3,0.6c-0.6,1-1.2,2-1.7,3.1
			c-0.5,1-1.1,2-1.6,3c-1.1,2-2.2,4.1-3.3,6.2c-1.1,2.1-2.2,4.1-3.4,6.1c-0.5,0.9-1,1.9-1.5,2.8C29,44.1,28.6,45,28,45.9
			c-0.2,0.3-0.4,0.6-0.5,0.9c-0.1,0.2-0.3,0.5-0.5,0.8c-0.4,0.7-0.8,1.5-1.2,2.3c-0.3,0.7-0.7,1.5-1.2,2.2c-0.5,0.7-0.9,1.4-1.3,2.1
			c-0.4,0.6-1,1-1.7,1.3c-0.6,0.2-1.2,0.3-1.8,0.3c-0.6-0.1-1.2-0.1-1.8-0.1h-6.5c-0.7,0-1.5,0-2.2,0c-0.7,0-1.2-0.1-1.7-0.4
			C7.2,55,7,54.6,6.8,54.1c-0.1-0.5-0.1-1.1-0.2-1.7c-0.2-0.8-0.4-1.6-0.5-2.5c-0.1-0.9-0.2-1.7-0.3-2.5c-0.1-0.3-0.1-0.5-0.1-0.7
			c0-0.3,0-0.6-0.1-0.9c-0.2-0.8-0.3-1.6-0.4-2.5S5,41.6,4.8,40.7c-0.1-0.3-0.1-0.6-0.1-0.9c0-0.3,0-0.7-0.1-1
			c-0.1-0.6-0.2-1.2-0.3-1.8c-0.1-0.7-0.2-1.3-0.3-1.9c-0.1-0.2-0.1-0.4-0.1-0.6C4,34.3,4,34,3.9,33.8c-0.1-0.6-0.2-1.2-0.3-1.8
			c-0.1-0.6-0.2-1.2-0.3-1.9c-0.3-1.5-0.5-3.1-0.7-4.7c-0.2-1.7-0.4-3.3-0.6-4.9c-0.4-1.8-0.7-3.6-0.9-5.4C1,13.3,0.8,11.4,0.4,9.6
			L0.1,6.9C0.1,6.7,0,6.5,0,6.2c0.1-0.3,0.2-0.6,0.4-0.9c0.3-0.5,0.8-0.8,1.6-1C2.4,4.3,2.6,4.3,2.7,4.2L2.7,4.2z"/>
		<path id="path4323" class="st14" d="M100.5,29.5c0,0.5-0.1,1.1-0.4,1.8s-0.6,1.1-1,1.3c-0.3,0.3-0.8,0.5-1.5,0.6
			c-0.7,0.1-1.4,0.1-2.2,0.2c-0.7,0-1.5,0-2.3,0c-0.7-0.1-1.4-0.1-2-0.1H66.7c-0.5,0-0.9,0-1.4,0c-0.4,0-0.8,0.1-1.1,0.2
			c-0.6,0.3-1,0.5-1.2,0.8c-0.1,0.1-0.3,0.4-0.6,0.8c-0.2,0.3-0.3,0.7-0.3,1c0.1,0.4,0.1,0.8,0,1.2c0,0.3,0,0.7,0.1,1.1
			c0.2,1.6,0.6,2.9,1.1,4c0.6,1,1.5,1.9,2.6,2.7c0.5,0.3,1,0.6,1.5,0.7c0.6,0.1,1.2,0.2,1.7,0.4c0.5,0.1,1.2,0.2,2.1,0.3
			c0.9,0.1,1.8,0,2.5-0.1h0.9c0.7-0.1,1.3-0.3,1.9-0.4c0.6-0.2,1.2-0.4,1.8-0.6c0.7-0.3,1.6-0.8,2.5-1.3s1.7-1.1,2.2-1.6
			c0.4-0.5,0.8-0.9,1.3-1.3c0.5-0.5,1-0.8,1.5-1c0.7-0.3,1.6-0.5,2.6-0.4c1.1,0,2,0,2.9,0c0.4,0,0.8,0,1.2,0c0.5-0.1,0.9,0,1.2,0.1
			h1c0.6,0.1,1,0.3,1.3,0.5c0.2,0.1,0.3,0.4,0.2,0.9c0,0.5-0.1,0.9-0.3,1.2c-0.5,0.9-1.1,1.8-1.7,2.5c-0.5,0.7-1.1,1.5-1.8,2.2
			c-1.9,2.2-3.9,4-6,5.3s-4.7,2.5-7.7,3.4c-0.8,0.3-1.6,0.4-2.3,0.5s-1.5,0.2-2.4,0.4c-0.3,0.1-0.6,0.1-0.9,0c-0.3,0-0.5,0-0.8,0.1
			h-1.1c-0.4,0.1-0.8,0.2-1.2,0.1c-0.4,0-0.8,0-1.1-0.1c-0.5-0.1-1-0.1-1.4,0c-0.4,0.1-0.8,0-1.3-0.1c-0.3-0.1-0.7-0.2-1.1-0.2
			s-0.7-0.1-1-0.2c-0.7-0.1-1.5-0.3-2.2-0.5c-0.7-0.1-1.3-0.4-1.8-0.7c-0.7-0.3-1.3-0.5-1.9-0.7c-0.6-0.3-1.1-0.6-1.6-0.9
			c-1.9-1.3-3.5-2.9-4.8-4.6c-1.3-1.8-2.2-3.9-2.8-6.2c-0.2-0.7-0.3-1.5-0.4-2.2c0-0.8-0.1-1.6-0.3-2.4c0-0.3,0-0.5,0-0.7
			c0.1-0.3,0.1-0.5,0.1-0.8c-0.1-0.8-0.1-1.7,0-2.6c0.1-0.9,0.3-1.9,0.4-2.8c0.1-0.3,0.1-0.7,0.1-1.1c0.1-0.4,0.2-0.8,0.3-1.1
			l0.3-1.2l0.8-2.4c0.5-1.1,0.9-2.2,1.3-3.3c0.4-1.1,0.9-2.1,1.5-3c4.3-6.9,10.1-11.8,17.6-14.7c1-0.4,2-0.7,3-0.8
			c1-0.2,2.1-0.4,3.2-0.7c0.5-0.1,1-0.1,1.5-0.1s1,0,1.5-0.1c3.4-0.1,6.2,0.3,8.5,1.2c2.3,0.8,4.2,1.9,5.9,3.2
			c0.5,0.4,1,0.9,1.5,1.4c0.5,0.5,1,1,1.3,1.5c0.1,0.3,0.4,0.6,0.7,0.8c0.4,0.7,0.7,1.5,1,2.3c0.3,0.7,0.7,1.5,1.1,2.3
			c0.2,0.6,0.3,1.2,0.4,1.9c0.1,0.6,0.3,1.3,0.4,2c0.1,0.9,0.2,1.8,0.2,2.7c0.1,0.9,0.1,1.9,0.2,2.8c0,0.5-0.1,1.1-0.3,1.8
			c-0.1,0.6-0.2,1.2-0.1,1.7L100.5,29.5L100.5,29.5z M86.6,23.6c0.6-0.7,0.8-1.5,0.6-2.4c-0.1-1-0.2-1.7-0.3-2.2
			c-0.6-1.8-1.6-3.2-2.9-4.1c-1.3-1-3.4-1.5-6.1-1.6c-0.2,0.1-0.4,0.2-0.7,0.1c-0.3-0.1-0.5-0.1-0.7,0c-0.4,0.1-0.8,0.2-1.2,0.3
			c-0.4,0-0.8,0.1-1.1,0.2c-3.1,0.9-5.7,2.8-7.6,5.5c-0.2,0.3-0.4,0.6-0.7,1.1c-0.3,0.4-0.5,0.8-0.6,1.3c-0.1,0.4-0.2,0.8-0.2,1.2
			c0,0.4,0.2,0.7,0.5,1c0.5,0.3,1.2,0.5,2.1,0.5s1.8,0,2.7,0h11.1c0.9,0,1.9,0,2.9,0C85.4,24.5,86.2,24.2,86.6,23.6z"/>
		<path id="path4325" class="st14" d="M143.6,2.9c4-0.1,7.2,0.4,9.6,1.7c2.5,1.3,4.2,3.1,5.2,5.6c0.3,0.7,0.5,1.5,0.6,2.4
			c0.1,0.8,0.2,1.6,0.3,2.5c0.1,0.5,0.1,1,0,1.5s-0.1,0.9,0,1.4c-0.1,0.4-0.2,0.7-0.1,0.8c-0.1,0.9-0.2,1.9-0.4,2.9s-0.4,2-0.6,2.9
			l-1.7,8.9l-3.3,16.2c-0.3,1.3-0.5,2.5-0.8,3.7c-0.3,1.1-0.9,1.9-1.9,2.2c-0.4,0.1-0.9,0.2-1.4,0.2s-1.1,0-1.6,0h-5.4
			c-0.8,0-1.5,0-2.1-0.1c-0.6-0.1-1-0.4-1.3-0.9c-0.2-0.4-0.3-0.9-0.2-1.5c0.1-0.7,0.3-1.4,0.4-2.1l1.4-7l3-14.9
			c0.5-2.5,0.8-4.7,1-6.8c0.3-2.1,0-3.9-0.7-5.4c-0.7-1.3-1.8-2.3-3.5-2.8c-0.3-0.1-0.7-0.2-1.1-0.2c-0.3,0-0.7-0.1-1-0.2
			c-0.3-0.1-0.8-0.1-1.3,0c-0.5,0-0.8,0-1.1,0.1c-0.3,0.1-0.6,0.1-0.8,0.1s-0.4,0-0.6,0.1c-1.6,0.4-2.9,0.9-4,1.6
			c-2.5,1.5-4.2,3.8-5.2,6.7c-0.9,2.9-1.8,6.2-2.5,9.9L120,44.9l-1.2,6.1c-0.1,0.6-0.3,1.2-0.4,1.8c-0.1,0.6-0.3,1.1-0.6,1.5
			c-0.5,0.7-1.1,1.2-1.9,1.3c-0.7,0.1-1.6,0.2-2.7,0.2h-5c-0.7,0-1.5,0-2.2-0.1s-1.2-0.3-1.4-0.7c-0.4-0.6-0.5-1.5-0.2-2.6
			s0.5-2.2,0.7-3.2l2.7-13.6l4.4-22l1.1-5.1c0.1-0.7,0.3-1.4,0.4-2c0.1-0.6,0.4-1.1,0.9-1.5c0.1-0.2,0.4-0.3,0.7-0.4
			c0.3-0.1,0.7-0.2,1-0.3h0.5c0.3-0.1,0.7-0.1,1-0.1c0.4,0,0.8,0,1.1,0h4.2c0.5,0,1,0,1.5,0.1c0.5,0,1,0.1,1.4,0.2
			c0.4,0.2,0.6,0.5,0.7,0.9c0.1,0.4,0.2,0.9,0.2,1.4c0,0.3,0,0.5-0.1,0.7s-0.1,0.4,0,0.6c0.1,0.3,0.1,0.5,0.2,0.6
			c0.1,0.1,0.3,0.2,0.5,0.3c0.7,0.1,1.3-0.2,1.9-0.7c0.6-0.6,1.2-1.1,1.8-1.4c2.1-1.3,4.3-2.4,6.6-3.2c0.7-0.2,1.3-0.3,1.9-0.4
			c0.7-0.1,1.4-0.2,2.2-0.3c0.2-0.1,0.5-0.1,0.9,0C143.2,3,143.5,3,143.6,2.9z"/>
	</g>
	<g id="text9112" class="st13">
		<path id="path4328" class="st14" d="M168.4,2.8c0.1,0.1,0.1,0.2,0.1,0.3s0,0.3-0.1,0.5l0,0.2c-0.1,0.1-0.1,0.2-0.2,0.3
			c-0.1,0.1-0.1,0.1-0.3,0.2c-0.1,0-0.3,0-0.5,0c-0.2,0-0.4,0-0.5,0h-0.3c-0.1,0-0.1,0-0.2,0c-0.1,0-0.1,0-0.2,0
			c-0.1,0.1-0.3,0.2-0.4,0.4c0,0.1-0.1,0.1-0.1,0.2c0,0.1,0,0.2,0,0.3l-1,4.7c0,0.1,0,0.1,0,0.2s0,0.1,0,0.2l0,0.2c0,0,0,0.1,0,0.1
			c0,0,0,0.1-0.1,0.1c-0.1,0.1-0.1,0.2-0.3,0.2c-0.1,0-0.1,0-0.2,0c-0.1,0-0.2,0-0.3,0c-0.2,0-0.4,0-0.6,0s-0.4-0.1-0.5-0.2
			c0-0.1-0.1-0.2,0-0.3c0-0.1,0.1-0.2,0.1-0.4l0.9-4.7c0-0.1,0-0.1,0-0.2c0-0.1,0-0.1,0-0.2l0-0.3c0-0.2-0.1-0.3-0.2-0.4
			c-0.1-0.1-0.3-0.1-0.5-0.1c-0.2,0-0.4,0-0.6,0c-0.1,0-0.1,0-0.2,0c-0.1,0-0.1,0-0.1,0c-0.1,0-0.1,0-0.1,0c0,0-0.1,0-0.1,0
			c-0.1-0.1-0.2-0.2-0.2-0.3c0-0.1,0-0.3,0.1-0.5c0-0.1,0-0.2,0-0.2c0-0.1,0.1-0.1,0.1-0.2c0-0.1,0.1-0.1,0.2-0.1
			c0.1,0,0.1-0.1,0.2-0.1c0,0,0.1,0,0.1,0c0,0,0.1,0,0.1,0h5.3c0.1,0,0.2,0,0.3,0C168.2,2.8,168.3,2.8,168.4,2.8L168.4,2.8z
			 M179,2.9c0.1,0.1,0.1,0.2,0,0.3c0,0.1,0,0.3-0.1,0.4l-1.3,6.5c0,0.1-0.1,0.3-0.1,0.4c0,0.1-0.1,0.2-0.1,0.3
			c-0.1,0.1-0.2,0.2-0.4,0.2c-0.2,0-0.4,0-0.6,0c-0.1,0-0.2,0-0.3,0c-0.1,0-0.1,0-0.2,0c-0.1,0-0.2-0.1-0.2-0.2c0-0.1,0-0.2,0-0.3
			l0.1-0.3c0,0,0-0.1,0-0.1c0-0.1,0-0.1,0-0.2l0.5-2.5c0-0.2,0.1-0.3,0.1-0.5c0-0.2,0.1-0.3,0.1-0.4c0-0.1,0-0.1,0-0.2
			c0-0.1,0-0.1-0.1-0.1c0,0,0,0-0.1,0c0,0-0.1,0.1-0.1,0.1c-0.1,0.2-0.3,0.3-0.4,0.5c-0.1,0.2-0.2,0.4-0.3,0.6
			c-0.2,0.4-0.5,0.8-0.7,1.3c-0.2,0.4-0.5,0.8-0.7,1.2c-0.1,0.2-0.2,0.4-0.3,0.6c-0.1,0.2-0.3,0.4-0.4,0.5c-0.1,0.1-0.2,0.1-0.3,0.1
			c-0.1,0-0.2,0-0.3,0h-0.3c-0.1,0-0.1,0-0.2-0.1c-0.1,0-0.1-0.1-0.1-0.1c0,0-0.1-0.1-0.1-0.2c0-0.1,0-0.1,0-0.2
			c0-0.1-0.1-0.2-0.1-0.4c0-0.1,0-0.3-0.1-0.4c-0.1-0.4-0.1-0.8-0.2-1.2c-0.1-0.4-0.1-0.8-0.2-1.2c0-0.2-0.1-0.5-0.1-0.7
			c0-0.2-0.1-0.4-0.2-0.6c0,0,0,0-0.1,0c0,0,0,0,0,0c-0.1,0.1-0.1,0.1-0.1,0.2c0,0.1-0.1,0.1-0.1,0.2c0,0.1,0,0.1,0,0.2l-0.1,0.3
			c0,0.1,0,0.1-0.1,0.2s0,0.1,0,0.1l-0.5,2.3c0,0.2-0.1,0.4-0.1,0.6c0,0.2-0.1,0.4-0.2,0.5c0,0-0.1,0.1-0.1,0.1c0,0-0.1,0-0.1,0.1
			c-0.1,0-0.1,0-0.2,0.1c-0.1,0-0.2,0-0.3,0c-0.2,0-0.3,0-0.5,0c-0.2,0-0.3,0-0.4-0.1c-0.1-0.1-0.1-0.1-0.1-0.3c0-0.1,0-0.3,0.1-0.4
			l1.3-6.6c0-0.1,0.1-0.2,0.1-0.3c0-0.1,0.1-0.2,0.1-0.3c0.1-0.1,0.2-0.2,0.3-0.2c0,0,0.1,0,0.1,0c0,0,0.1,0,0.1,0h1.3
			c0.1,0,0.3,0,0.4,0c0.1,0,0.2,0,0.3,0.1c0.1,0.1,0.2,0.2,0.2,0.4c0,0.2,0.1,0.3,0.1,0.5c0.1,0.4,0.1,0.8,0.2,1.1
			c0.1,0.4,0.1,0.8,0.2,1.1c0.1,0.2,0.1,0.4,0.1,0.6c0,0.2,0.1,0.4,0.1,0.6c0,0.1,0,0.2,0.1,0.3c0,0.1,0.1,0.1,0.2,0.2
			c0.1,0,0.1,0,0.2,0c0.1-0.1,0.1-0.1,0.1-0.1c0.1-0.1,0.2-0.3,0.3-0.5c0.1-0.2,0.2-0.3,0.3-0.5c0.3-0.4,0.5-0.9,0.8-1.3
			c0.3-0.5,0.5-0.9,0.8-1.4c0.1-0.2,0.2-0.4,0.3-0.6c0.1-0.2,0.3-0.4,0.5-0.4c0.1,0,0.2,0,0.3,0c0.1,0,0.2,0,0.3,0h0.9
			c0.1,0,0.2,0,0.2,0c0.1,0,0.2,0,0.2,0h0.1c0.1,0,0.1,0,0.2,0.1C178.9,2.8,179,2.8,179,2.9L179,2.9z"/>
	</g>
	<g id="g4701" transform="matrix(0.13272567,0.01947468,-0.01947468,0.13272567,170.19741,12.570146)">
		
			<linearGradient id="path4710_1_" gradientUnits="userSpaceOnUse" x1="-108871.2656" y1="-21306.3887" x2="-108795.6172" y2="-21394.8418" gradientTransform="matrix(3.843945e-02 -0.1285 -0.1285 -3.843945e-02 498.6223 -14711.2588)">
			<stop  offset="0" style="stop-color:#F69923"/>
			<stop  offset="0.3123" style="stop-color:#F79A23"/>
			<stop  offset="0.8383" style="stop-color:#E97826"/>
		</linearGradient>
		<path id="path4710" class="st16" d="M-922.1,57c-8.4,5-22.4,19-39,39.3l15.3,28.9c10.7-15.4,21.7-29.2,32.7-41
			c0.8-0.9,1.3-1.4,1.3-1.4c-0.4,0.5-0.9,0.9-1.3,1.4c-3.6,3.9-14.4,16.5-30.7,41.6c15.7-0.8,39.8-4,59.5-7.4
			c5.9-32.8-5.7-47.8-5.7-47.8S-904.8,46.7-922.1,57z"/>
		<path id="path4712" class="st1" d="M-948.1,221.8c0.1,0,0.2,0,0.3-0.1l-2.2,0.2c-0.1,0.1-0.3,0.1-0.4,0.2
			C-949.6,222-948.8,221.9-948.1,221.8z"/>
		<path id="path4714" class="st1" d="M-963.7,273.5c-1.2,0.3-2.5,0.5-3.8,0.7C-966.2,274-964.9,273.8-963.7,273.5z"/>
		<path id="path4716" class="st1" d="M-1069.9,389.6c0.2-0.4,0.3-0.9,0.5-1.3c3.4-8.9,6.7-17.5,10-26c3.7-9.4,7.4-18.6,11-27.5
			c3.8-9.3,7.6-18.4,11.3-27.1c3.9-9.2,7.7-18,11.5-26.5c3.1-6.9,6.1-13.6,9.1-20.1c1-2.2,2-4.3,3-6.4c2-4.2,3.9-8.3,5.8-12.3
			c1.8-3.7,3.5-7.3,5.2-10.9c0.6-1.2,1.2-2.4,1.7-3.5c0.1-0.2,0.2-0.4,0.3-0.6l-1.9,0.2l-1.5-2.9c-0.1,0.3-0.3,0.6-0.4,0.9
			c-2.7,5.3-5.4,10.7-8,16.2c-1.5,3.1-3,6.3-4.6,9.5c-4.2,8.8-8.3,17.6-12.3,26.6c-4.1,9-8.1,18.1-12,27.1
			c-3.9,8.9-7.6,17.8-11.3,26.7c-3.7,8.9-7.3,17.7-10.8,26.5c-3.7,9.2-7.3,18.3-10.7,27.3c-0.8,2-1.6,4.1-2.3,6.1
			c-2.8,7.3-5.5,14.4-8.1,21.5l2.4,4.7l2.1-0.2c0.1-0.2,0.2-0.4,0.2-0.6C-1076.6,407.5-1073.2,398.4-1069.9,389.6z"/>
		<path id="path4718" class="st1" d="M-968.5,274.3L-968.5,274.3L-968.5,274.3L-968.5,274.3z"/>
		<path id="path4720" class="st2" d="M-973.6,299.6c-2,0.4-4,0.7-6,1l0,0c1-0.1,2.1-0.3,3.1-0.5C-975.5,300-974.5,299.8-973.6,299.6
			z"/>
		<path id="path4722" class="st3" d="M-973.6,299.6c-2,0.4-4,0.7-6,1l0,0c1-0.1,2.1-0.3,3.1-0.5C-975.5,300-974.5,299.8-973.6,299.6
			z"/>
		<path id="path4724" class="st2" d="M-968.4,274.3L-968.4,274.3C-968.5,274.3-968.5,274.3-968.4,274.3c0.3,0,0.6-0.1,0.9-0.1
			c1.3-0.2,2.6-0.4,3.8-0.7C-965.2,273.8-966.8,274-968.4,274.3L-968.4,274.3L-968.4,274.3z"/>
		<path id="path4726" class="st3" d="M-968.4,274.3L-968.4,274.3C-968.5,274.3-968.5,274.3-968.4,274.3c0.3,0,0.6-0.1,0.9-0.1
			c1.3-0.2,2.6-0.4,3.8-0.7C-965.2,273.8-966.8,274-968.4,274.3L-968.4,274.3L-968.4,274.3z"/>
		
			<linearGradient id="path4737_1_" gradientUnits="userSpaceOnUse" x1="-112989.4453" y1="-20626.7949" x2="-112449.7656" y2="-20626.7949" gradientTransform="matrix(3.843945e-02 -0.1285 -0.1285 -3.843945e-02 498.6223 -14711.2588)">
			<stop  offset="0.3233" style="stop-color:#9E2064"/>
			<stop  offset="0.6302" style="stop-color:#C92037"/>
			<stop  offset="0.7514" style="stop-color:#CD2335"/>
			<stop  offset="1" style="stop-color:#E97826"/>
		</linearGradient>
		<path id="path4737" class="st17" d="M-991,199.8c4.7-8.7,9.4-17.2,14.1-25.5c4.9-8.6,9.9-16.9,15-25c0.3-0.5,0.6-1,0.9-1.4
			c5-7.9,10-15.5,15.1-22.8l-15.3-28.8c-1.1,1.4-2.3,2.8-3.5,4.3c-4.4,5.5-9,11.4-13.7,17.7c-5.3,7.1-10.7,14.6-16.3,22.5
			c-5.1,7.3-10.3,15-15.5,22.9c-4.4,6.8-8.8,13.7-13.2,20.8c-0.2,0.3-0.3,0.5-0.5,0.8l19.9,39.3C-999.6,216.3-995.3,208-991,199.8z"
			/>
		
			<linearGradient id="path4748_1_" gradientUnits="userSpaceOnUse" x1="-112567.6484" y1="-21097.3203" x2="-112246.0547" y2="-21097.3203" gradientTransform="matrix(3.843945e-02 -0.1285 -0.1285 -3.843945e-02 498.6223 -14711.2588)">
			<stop  offset="0" style="stop-color:#282662"/>
			<stop  offset="9.548389e-02" style="stop-color:#662E8D"/>
			<stop  offset="0.7882" style="stop-color:#9F2064"/>
			<stop  offset="0.9487" style="stop-color:#CD2032"/>
		</linearGradient>
		<path id="path4748" class="st18" d="M-1081.7,421.5c-2.6,7.2-5.3,14.6-7.9,22.2c0,0.1-0.1,0.2-0.1,0.3c-0.4,1.1-0.8,2.1-1.1,3.2
			c-1.8,5.1-3.3,9.7-6.9,20.1c5.9,2.7,10.6,9.7,15,17.7c-0.5-8.3-3.9-16.1-10.4-22.1c28.9,1.3,53.9-6,66.7-27.2
			c1.1-1.9,2.2-3.9,3.2-6c-5.9,7.4-13.1,10.6-26.8,9.8h-0.1h0.1c20.1-9,30.2-17.7,39.1-32c2.1-3.4,4.2-7.1,6.3-11.2
			c-17.6,18.1-38,23.2-59.5,19.3l-16.1,1.8C-1080.7,418.8-1081.2,420.1-1081.7,421.5z"/>
		
			<linearGradient id="path4759_1_" gradientUnits="userSpaceOnUse" x1="-112760.4922" y1="-20622.832" x2="-112220.8125" y2="-20622.832" gradientTransform="matrix(3.843945e-02 -0.1285 -0.1285 -3.843945e-02 498.6223 -14711.2588)">
			<stop  offset="0.3233" style="stop-color:#9E2064"/>
			<stop  offset="0.6302" style="stop-color:#C92037"/>
			<stop  offset="0.7514" style="stop-color:#CD2335"/>
			<stop  offset="1" style="stop-color:#E97826"/>
		</linearGradient>
		<path id="path4759" class="st19" d="M-1074.2,385.4c3.5-9,7.1-18.1,10.7-27.3c3.5-8.8,7.1-17.6,10.8-26.5
			c3.7-8.9,7.5-17.8,11.3-26.7c3.9-9.1,7.9-18.1,12-27.1c4-8.9,8.2-17.8,12.3-26.6c1.5-3.2,3-6.3,4.6-9.5c2.6-5.4,5.3-10.8,8-16.2
			c0.1-0.3,0.3-0.6,0.4-0.9l-19.7-39.2c-0.3,0.5-0.6,1.1-1,1.6c-4.6,7.6-9.3,15.3-13.8,23.2c-4.6,8-9.1,16.1-13.5,24.4
			c-3.7,7-7.3,14-10.9,21.1c-0.7,1.4-1.4,2.9-2.1,4.3c-4.3,8.9-8.3,17.6-11.8,25.9c-4,9.4-7.5,18.4-10.6,26.9
			c-2,5.6-3.9,11-5.6,16.2c-1.4,4.4-2.7,8.9-4,13.3c-3,10.4-5.5,20.8-7.6,31.2l20,39.5c2.6-7.1,5.4-14.2,8.1-21.5
			C-1075.8,389.5-1075,387.5-1074.2,385.4z"/>
		
			<linearGradient id="path4770_1_" gradientUnits="userSpaceOnUse" x1="-112478.1953" y1="-20719.9609" x2="-112194.5781" y2="-20719.9609" gradientTransform="matrix(3.843945e-02 -0.1285 -0.1285 -3.843945e-02 498.6223 -14711.2588)">
			<stop  offset="0" style="stop-color:#282662"/>
			<stop  offset="9.548389e-02" style="stop-color:#662E8D"/>
			<stop  offset="0.7882" style="stop-color:#9F2064"/>
			<stop  offset="0.9487" style="stop-color:#CD2032"/>
		</linearGradient>
		<path id="path4770" class="st20" d="M-1105,374.9c-2.5,12.6-4.3,25.2-5.2,37.8c0,0.4-0.1,0.9-0.1,1.3c-6.2-10-23-19.8-22.9-19.7
			c12,17.4,21.1,34.6,22.4,51.5c-6.4,1.3-15.2-0.6-25.3-4.3c10.6,9.7,18.5,12.4,21.6,13.1c-9.7,0.6-19.8,7.3-30,15
			c14.9-6.1,27-8.5,35.6-6.5c-13.7,38.7-27.4,81.5-41.1,126.9c4.2-1.2,6.7-4.1,8.1-7.9c2.4-8.2,18.7-62.2,44.1-133.1
			c0.7-2,1.5-4,2.2-6.1c0.2-0.6,0.4-1.1,0.6-1.7c2.7-7.4,5.5-15,8.4-22.8c0.7-1.8,1.3-3.5,2-5.3V413l-20-39.5
			C-1104.8,374-1104.9,374.4-1105,374.9z"/>
		
			<linearGradient id="path4781_1_" gradientUnits="userSpaceOnUse" x1="-112820.9375" y1="-21034.752" x2="-112281.2578" y2="-21034.752" gradientTransform="matrix(3.843945e-02 -0.1285 -0.1285 -3.843945e-02 498.6223 -14711.2588)">
			<stop  offset="0.3233" style="stop-color:#9E2064"/>
			<stop  offset="0.6302" style="stop-color:#C92037"/>
			<stop  offset="0.7514" style="stop-color:#CD2335"/>
			<stop  offset="1" style="stop-color:#E97826"/>
		</linearGradient>
		<path id="path4781" class="st21" d="M-1000.8,228c-0.6,1.2-1.1,2.3-1.7,3.5c-1.7,3.6-3.5,7.2-5.2,10.9c-1.9,4-3.8,8.1-5.8,12.3
			c-1,2.1-2,4.2-3,6.4c-3,6.5-6,13.2-9.1,20.1c-3.8,8.5-7.6,17.3-11.5,26.5c-3.7,8.7-7.5,17.8-11.3,27.1c-3.6,8.9-7.3,18-11,27.5
			c-3.3,8.4-6.6,17.1-10,26c-0.2,0.4-0.3,0.9-0.5,1.3c-3.3,8.8-6.7,17.9-10.1,27.2c-0.1,0.2-0.2,0.4-0.2,0.6l16.1-1.8
			c-0.3-0.1-0.6-0.1-1-0.2c19.3-2.4,44.9-16.8,61.4-34.6c7.6-8.2,14.5-17.8,20.9-29.1c4.8-8.4,9.2-17.7,13.5-28.1
			c3.7-9,7.3-18.8,10.7-29.4c-4.4,2.3-9.5,4-15.1,5.2c-1,0.2-2,0.4-3,0.6s-2,0.3-3.1,0.5l0,0l0,0l0,0c18-6.9,29.3-20.2,37.5-36.6
			c-4.7,3.2-12.4,7.4-21.6,9.5c-1.2,0.3-2.5,0.5-3.8,0.7c-0.3,0-0.6,0.1-1,0.1l0,0l0,0l0,0l0,0l0,0c6.2-2.6,11.5-5.5,16.1-9
			c1-0.7,1.9-1.5,2.8-2.3c1.4-1.2,2.7-2.5,4-3.8c0.8-0.9,1.6-1.7,2.4-2.6c1.8-2.1,3.5-4.4,5-6.9c0.5-0.8,1-1.5,1.4-2.3
			c0.6-1.2,1.2-2.3,1.7-3.4c2.5-5,4.5-9.5,6.1-13.5c0.8-2,1.5-3.8,2.1-5.5c0.2-0.7,0.5-1.3,0.7-2c0.6-1.9,1.2-3.6,1.6-5.1
			c0.6-2.2,1-4,1.2-5.3l0,0l0,0c-0.6,0.5-1.3,1-2.1,1.4c-5.4,3.2-14.7,6.2-22.2,7.6l14.8-1.6l-14.8,1.6c-0.1,0-0.2,0-0.3,0.1
			c-0.7,0.1-1.5,0.2-2.3,0.4c0.1-0.1,0.3-0.1,0.4-0.2l-50.6,5.5C-1000.6,227.7-1000.7,227.9-1000.8,228z"/>
		
			<linearGradient id="path4792_1_" gradientUnits="userSpaceOnUse" x1="-113064.9219" y1="-20978.5566" x2="-112525.2422" y2="-20978.5566" gradientTransform="matrix(3.843945e-02 -0.1285 -0.1285 -3.843945e-02 498.6223 -14711.2588)">
			<stop  offset="0.3233" style="stop-color:#9E2064"/>
			<stop  offset="0.6302" style="stop-color:#C92037"/>
			<stop  offset="0.7514" style="stop-color:#CD2335"/>
			<stop  offset="1" style="stop-color:#E97826"/>
		</linearGradient>
		<path id="path4792" class="st22" d="M-943.8,125.8c-4.5,6.9-9.4,14.8-14.7,23.6c-0.3,0.5-0.6,0.9-0.8,1.4
			c-4.6,7.7-9.4,16.1-14.5,25.4c-4.4,8-9,16.5-13.8,25.8c-4.2,8-8.4,16.5-12.9,25.5l50.6-5.5c14.7-6.8,21.3-12.9,27.7-21.8
			c1.7-2.4,3.4-5,5.1-7.7c5.2-8.1,10.3-17,14.8-25.9c4.4-8.6,8.3-17.1,11.2-24.7c1.9-4.9,3.4-9.4,4.5-13.4c0.9-3.5,1.6-6.8,2.2-10
			C-904,121.8-928.1,125-943.8,125.8z"/>
		<path id="path4794" class="st2" d="M-976.5,300.2c-1,0.2-2,0.3-3.1,0.5l0,0C-978.6,300.5-977.6,300.3-976.5,300.2z"/>
		<path id="path4796" class="st3" d="M-976.5,300.2c-1,0.2-2,0.3-3.1,0.5l0,0C-978.6,300.5-977.6,300.3-976.5,300.2z"/>
		
			<linearGradient id="path4807_1_" gradientUnits="userSpaceOnUse" x1="-112839.0391" y1="-21158.1289" x2="-112299.3594" y2="-21158.1289" gradientTransform="matrix(3.843945e-02 -0.1285 -0.1285 -3.843945e-02 498.6223 -14711.2588)">
			<stop  offset="0.3233" style="stop-color:#9E2064"/>
			<stop  offset="0.6302" style="stop-color:#C92037"/>
			<stop  offset="0.7514" style="stop-color:#CD2335"/>
			<stop  offset="1" style="stop-color:#E97826"/>
		</linearGradient>
		<path id="path4807" class="st23" d="M-976.5,300.2c-1,0.2-2,0.3-3.1,0.5l0,0C-978.6,300.5-977.6,300.3-976.5,300.2z"/>
		<path id="path4809" class="st2" d="M-968.5,274.3c0.3,0,0.6-0.1,1-0.1C-967.8,274.2-968.1,274.3-968.5,274.3L-968.5,274.3z"/>
		<path id="path4811" class="st3" d="M-968.5,274.3c0.3,0,0.6-0.1,1-0.1C-967.8,274.2-968.1,274.3-968.5,274.3L-968.5,274.3z"/>
		
			<linearGradient id="path4822_1_" gradientUnits="userSpaceOnUse" x1="-112836.9141" y1="-21143.6445" x2="-112297.2344" y2="-21143.6445" gradientTransform="matrix(3.843945e-02 -0.1285 -0.1285 -3.843945e-02 498.6223 -14711.2588)">
			<stop  offset="0.3233" style="stop-color:#9E2064"/>
			<stop  offset="0.6302" style="stop-color:#C92037"/>
			<stop  offset="0.7514" style="stop-color:#CD2335"/>
			<stop  offset="1" style="stop-color:#E97826"/>
		</linearGradient>
		<path id="path4822" class="st24" d="M-968.5,274.3c0.3,0,0.6-0.1,1-0.1C-967.8,274.2-968.1,274.3-968.5,274.3L-968.5,274.3z"/>
		<path id="path4824" class="st2" d="M-968.4,274.3L-968.4,274.3L-968.4,274.3L-968.4,274.3L-968.4,274.3L-968.4,274.3z"/>
		<path id="path4826" class="st3" d="M-968.4,274.3L-968.4,274.3L-968.4,274.3L-968.4,274.3L-968.4,274.3L-968.4,274.3z"/>
		
			<linearGradient id="path4837_1_" gradientUnits="userSpaceOnUse" x1="-110160.9531" y1="-21533.7168" x2="-110160.9531" y2="-21533.7168" gradientTransform="matrix(3.843945e-02 -0.1285 -0.1285 -3.843945e-02 498.6223 -14711.2588)">
			<stop  offset="0.3233" style="stop-color:#9E2064"/>
			<stop  offset="0.6302" style="stop-color:#C92037"/>
			<stop  offset="0.7514" style="stop-color:#CD2335"/>
			<stop  offset="1" style="stop-color:#E97826"/>
		</linearGradient>
		<path id="path4837" class="st25" d="M-968.4,274.3L-968.4,274.3L-968.4,274.3L-968.4,274.3L-968.4,274.3L-968.4,274.3z"/>
	</g>
</g>
<g id="g4845" transform="translate(385.61463,-191.53704)">
</g>
<g id="g4847" transform="translate(385.61463,-191.53704)">
</g>
<g id="g4849" transform="translate(385.61463,-191.53704)">
</g>
<g id="g4851" transform="translate(385.61463,-191.53704)">
</g>
<g id="g4853" transform="translate(385.61463,-191.53704)">
</g>
<g id="g4855" transform="translate(385.61463,-191.53704)">
</g>
</svg>
