<?xml version="1.0" encoding="utf-8"?>
<!-- Generator: Adobe Illustrator 23.0.0, SVG Export Plug-In . SVG Version: 6.00 Build 0)  -->
<svg version="1.1"
	 id="svg3055" inkscape:version="0.92.4 (5da689c313, 2019-01-14)" sodipodi:docname="maven.svg" xmlns:cc="http://creativecommons.org/ns#" xmlns:dc="http://purl.org/dc/elements/1.1/" xmlns:inkscape="http://www.inkscape.org/namespaces/inkscape" xmlns:rdf="http://www.w3.org/1999/02/22-rdf-syntax-ns#" xmlns:sodipodi="http://sodipodi.sourceforge.net/DTD/sodipodi-0.dtd" xmlns:svg="http://www.w3.org/2000/svg"
	 xmlns="http://www.w3.org/2000/svg" xmlns:xlink="http://www.w3.org/1999/xlink" x="0px" y="0px" viewBox="0 0 80 80"
	 style="enable-background:new 0 0 80 80;" xml:space="preserve">
<style type="text/css">
	.st0{fill:url(#path7258_1_);}
	.st1{fill:none;}
	.st2{fill:#BE202E;}
	.st3{opacity:0.35;fill:#BE202E;enable-background:new    ;}
	.st4{fill:url(#path7286_1_);}
	.st5{fill:url(#path7298_1_);}
	.st6{fill:url(#path7310_1_);}
	.st7{fill:url(#path7322_1_);}
	.st8{fill:url(#path7334_1_);}
	.st9{fill:url(#path7346_1_);}
	.st10{fill:url(#path7362_1_);}
	.st11{fill:url(#path7378_1_);}
	.st12{fill:url(#path7394_1_);}
	.st13{display:none;}
	.st14{display:inline;}
	.st15{display:inline;fill:none;}
	.st16{fill:url(#path4710_1_);}
	.st17{fill:url(#path4737_1_);}
	.st18{fill:url(#path4748_1_);}
	.st19{fill:url(#path4759_1_);}
	.st20{fill:url(#path4770_1_);}
	.st21{fill:url(#path4781_1_);}
	.st22{fill:url(#path4792_1_);}
	.st23{fill:url(#path4807_1_);}
	.st24{fill:url(#path4822_1_);}
	.st25{fill:url(#path4837_1_);}
</style>
<sodipodi:namedview  bordercolor="#666666" borderopacity="1" gridtolerance="10" guidetolerance="10" id="namedview188" inkscape:current-layer="svg3055" inkscape:cx="170" inkscape:cy="43" inkscape:pageopacity="0" inkscape:pageshadow="2" inkscape:window-height="877" inkscape:window-maximized="1" inkscape:window-width="1600" inkscape:window-x="-8" inkscape:window-y="-8" inkscape:zoom="0.91176471" objecttolerance="10" pagecolor="#ffffff" showgrid="false">
	</sodipodi:namedview>
<g id="g8927">
	<g id="g7248" transform="matrix(0.09561334,-0.07017507,0.07017507,0.09561334,132.73733,36.368381)">
		
			<linearGradient id="path7258_1_" gradientUnits="userSpaceOnUse" x1="-2081221.25" y1="122185.2109" x2="-2081145.625" y2="122273.6641" gradientTransform="matrix(5.943940e-03 -1.274799e-02 1.274799e-02 5.943940e-03 10169.8535 -27994.2598)">
			<stop  offset="0" style="stop-color:#F69923"/>
			<stop  offset="0.3123" style="stop-color:#F79A23"/>
			<stop  offset="0.8383" style="stop-color:#E97826"/>
		</linearGradient>
		<path id="path7258" class="st0" d="M-623.6-764.2c-8.4,5-22.4,19-39,39.3l15.3,28.9c10.7-15.4,21.7-29.2,32.7-41
			c0.8-0.9,1.3-1.4,1.3-1.4c-0.4,0.5-0.9,0.9-1.3,1.4c-3.6,3.9-14.4,16.5-30.7,41.6c15.7-0.8,39.8-4,59.5-7.4
			c5.9-32.8-5.7-47.8-5.7-47.8S-606.3-774.5-623.6-764.2z"/>
		<path id="path7260" class="st1" d="M-649.6-599.4c0.1,0,0.2,0,0.3-0.1l-2.2,0.2c-0.1,0.1-0.3,0.1-0.4,0.2
			C-651.1-599.2-650.3-599.3-649.6-599.4z"/>
		<path id="path7262" class="st1" d="M-665.2-547.7c-1.2,0.3-2.5,0.5-3.8,0.7C-667.7-547.2-666.4-547.4-665.2-547.7z"/>
		<path id="path7264" class="st1" d="M-771.4-431.6c0.2-0.4,0.3-0.9,0.5-1.3c3.4-8.9,6.7-17.5,10-26c3.7-9.4,7.4-18.6,11-27.5
			c3.8-9.3,7.6-18.4,11.3-27.1c3.9-9.2,7.7-18,11.5-26.5c3.1-6.9,6.1-13.6,9.1-20.1c1-2.2,2-4.3,3-6.4c2-4.2,3.9-8.3,5.8-12.3
			c1.8-3.7,3.5-7.3,5.2-10.9c0.6-1.2,1.2-2.4,1.7-3.5c0.1-0.2,0.2-0.4,0.3-0.6l-1.9,0.2l-1.5-2.9c-0.1,0.3-0.3,0.6-0.4,0.9
			c-2.7,5.3-5.4,10.7-8,16.2c-1.5,3.1-3,6.3-4.6,9.5c-4.2,8.8-8.3,17.6-12.3,26.6c-4.1,9-8.1,18.1-12,27.1
			c-3.9,8.9-7.6,17.8-11.3,26.7c-3.7,8.9-7.3,17.7-10.8,26.5c-3.7,9.2-7.3,18.3-10.7,27.3c-0.8,2-1.6,4.1-2.3,6.1
			c-2.8,7.3-5.5,14.4-8.1,21.5l2.4,4.7l2.1-0.2c0.1-0.2,0.2-0.4,0.2-0.6C-778.1-413.7-774.7-422.8-771.4-431.6z"/>
		<path id="path7266" class="st1" d="M-670-546.9L-670-546.9L-670-546.9L-670-546.9z"/>
		<path id="path7268" class="st2" d="M-675.1-521.6c-2,0.4-4,0.7-6,1l0,0c1-0.1,2.1-0.3,3.1-0.5C-677-521.2-676-521.4-675.1-521.6z"
			/>
		<path id="path7270" class="st3" d="M-675.1-521.6c-2,0.4-4,0.7-6,1l0,0c1-0.1,2.1-0.3,3.1-0.5C-677-521.2-676-521.4-675.1-521.6z"
			/>
		<path id="path7272" class="st2" d="M-669.9-546.9L-669.9-546.9C-670-546.9-670-546.9-669.9-546.9c0.3,0,0.6-0.1,0.9-0.1
			c1.3-0.2,2.6-0.4,3.8-0.7C-666.7-547.4-668.3-547.2-669.9-546.9L-669.9-546.9L-669.9-546.9z"/>
		<path id="path7274" class="st3" d="M-669.9-546.9L-669.9-546.9C-670-546.9-670-546.9-669.9-546.9c0.3,0,0.6-0.1,0.9-0.1
			c1.3-0.2,2.6-0.4,3.8-0.7C-666.7-547.4-668.3-547.2-669.9-546.9L-669.9-546.9L-669.9-546.9z"/>
		
			<linearGradient id="path7286_1_" gradientUnits="userSpaceOnUse" x1="-2110078" y1="105136.0156" x2="-2109538.5" y2="105136.0156" gradientTransform="matrix(5.943940e-03 -1.274799e-02 1.274799e-02 5.943940e-03 10169.8535 -27994.2598)">
			<stop  offset="0.3233" style="stop-color:#9E2064"/>
			<stop  offset="0.6302" style="stop-color:#C92037"/>
			<stop  offset="0.7514" style="stop-color:#CD2335"/>
			<stop  offset="1" style="stop-color:#E97826"/>
		</linearGradient>
		<path id="path7286" class="st4" d="M-692.5-621.4c4.7-8.7,9.4-17.2,14.1-25.5c4.9-8.6,9.9-16.9,15-25c0.3-0.5,0.6-1,0.9-1.4
			c5-7.9,10-15.5,15.1-22.8l-15.3-28.8c-1.1,1.4-2.3,2.8-3.5,4.3c-4.4,5.5-9,11.4-13.7,17.7c-5.3,7.1-10.7,14.6-16.3,22.5
			c-5.1,7.3-10.3,15-15.5,22.9c-4.4,6.8-8.8,13.7-13.2,20.8c-0.2,0.3-0.3,0.5-0.5,0.8l19.9,39.3
			C-701.1-604.9-696.8-613.2-692.5-621.4z"/>
		
			<linearGradient id="path7298_1_" gradientUnits="userSpaceOnUse" x1="-2113956" y1="120585.5859" x2="-2113634.5" y2="120585.5859" gradientTransform="matrix(5.943940e-03 -1.274799e-02 1.274799e-02 5.943940e-03 10169.8535 -27994.2598)">
			<stop  offset="0" style="stop-color:#282662"/>
			<stop  offset="9.548389e-02" style="stop-color:#662E8D"/>
			<stop  offset="0.7882" style="stop-color:#9F2064"/>
			<stop  offset="0.9487" style="stop-color:#CD2032"/>
		</linearGradient>
		<path id="path7298" class="st5" d="M-783.2-399.7c-2.6,7.2-5.3,14.6-7.9,22.2c0,0.1-0.1,0.2-0.1,0.3c-0.4,1.1-0.8,2.1-1.1,3.2
			c-1.8,5.1-3.3,9.7-6.9,20.1c5.9,2.7,10.6,9.7,15,17.7c-0.5-8.3-3.9-16.1-10.4-22.1c28.9,1.3,53.9-6,66.7-27.2
			c1.1-1.9,2.2-3.9,3.2-6c-5.9,7.4-13.1,10.6-26.8,9.8h-0.1h0.1c20.1-9,30.2-17.7,39.1-32c2.1-3.4,4.2-7.1,6.3-11.2
			c-17.6,18.1-38,23.2-59.5,19.3l-16.1,1.8C-782.2-402.4-782.7-401.1-783.2-399.7z"/>
		
			<linearGradient id="path7310_1_" gradientUnits="userSpaceOnUse" x1="-2112516.5" y1="111039.8672" x2="-2111976.75" y2="111039.8672" gradientTransform="matrix(5.943940e-03 -1.274799e-02 1.274799e-02 5.943940e-03 10169.8535 -27994.2598)">
			<stop  offset="0.3233" style="stop-color:#9E2064"/>
			<stop  offset="0.6302" style="stop-color:#C92037"/>
			<stop  offset="0.7514" style="stop-color:#CD2335"/>
			<stop  offset="1" style="stop-color:#E97826"/>
		</linearGradient>
		<path id="path7310" class="st6" d="M-775.7-435.8c3.5-9,7.1-18.1,10.7-27.3c3.5-8.8,7.1-17.6,10.8-26.5
			c3.7-8.9,7.5-17.8,11.3-26.7c3.9-9.1,7.9-18.1,12-27.1c4-8.9,8.2-17.8,12.3-26.6c1.5-3.2,3-6.3,4.6-9.5c2.6-5.4,5.3-10.8,8-16.2
			c0.1-0.3,0.3-0.6,0.4-0.9l-19.7-39.2c-0.3,0.5-0.6,1.1-1,1.6c-4.6,7.6-9.3,15.3-13.8,23.2c-4.6,8-9.1,16.1-13.5,24.4
			c-3.7,7-7.3,14-10.9,21.1c-0.7,1.4-1.4,2.9-2.1,4.3c-4.3,8.9-8.3,17.6-11.8,25.9c-4,9.4-7.5,18.4-10.6,26.9
			c-2,5.6-3.9,11-5.6,16.2c-1.4,4.4-2.7,8.9-4,13.3c-3,10.4-5.5,20.8-7.6,31.2l20,39.5c2.6-7.1,5.4-14.2,8.1-21.5
			C-777.3-431.7-776.5-433.7-775.7-435.8z"/>
		
			<linearGradient id="path7322_1_" gradientUnits="userSpaceOnUse" x1="-2115711" y1="119730.5234" x2="-2115427.5" y2="119730.5234" gradientTransform="matrix(5.943940e-03 -1.274799e-02 1.274799e-02 5.943940e-03 10169.8535 -27994.2598)">
			<stop  offset="0" style="stop-color:#282662"/>
			<stop  offset="9.548389e-02" style="stop-color:#662E8D"/>
			<stop  offset="0.7882" style="stop-color:#9F2064"/>
			<stop  offset="0.9487" style="stop-color:#CD2032"/>
		</linearGradient>
		<path id="path7322" class="st7" d="M-806.5-446.3c-2.5,12.6-4.3,25.2-5.2,37.8c0,0.4-0.1,0.9-0.1,1.3c-6.2-10-23-19.8-22.9-19.7
			c12,17.4,21.1,34.6,22.4,51.5c-6.4,1.3-15.2-0.6-25.3-4.3c10.6,9.7,18.5,12.4,21.6,13.1c-9.7,0.6-19.8,7.3-30,15
			c14.9-6.1,27-8.5,35.6-6.5c-13.7,38.7-27.4,81.5-41.1,126.9c4.2-1.2,6.7-4.1,8.1-7.9c2.4-8.2,18.7-62.2,44.1-133.1
			c0.7-2,1.5-4,2.2-6.1c0.2-0.6,0.4-1.1,0.6-1.7c2.7-7.4,5.5-15,8.4-22.8c0.7-1.8,1.3-3.5,2-5.3v-0.1l-20-39.5
			C-806.3-447.2-806.4-446.8-806.5-446.3z"/>
		
			<linearGradient id="path7334_1_" gradientUnits="userSpaceOnUse" x1="-2111980" y1="114279.1953" x2="-2111440.25" y2="114279.1953" gradientTransform="matrix(5.943940e-03 -1.274799e-02 1.274799e-02 5.943940e-03 10169.8535 -27994.2598)">
			<stop  offset="0.3233" style="stop-color:#9E2064"/>
			<stop  offset="0.6302" style="stop-color:#C92037"/>
			<stop  offset="0.7514" style="stop-color:#CD2335"/>
			<stop  offset="1" style="stop-color:#E97826"/>
		</linearGradient>
		<path id="path7334" class="st8" d="M-702.3-593.2c-0.6,1.2-1.1,2.3-1.7,3.5c-1.7,3.6-3.5,7.2-5.2,10.9c-1.9,4-3.8,8.1-5.8,12.3
			c-1,2.1-2,4.2-3,6.4c-3,6.5-6,13.2-9.1,20.1c-3.8,8.5-7.6,17.3-11.5,26.5c-3.7,8.7-7.5,17.8-11.3,27.1c-3.6,8.9-7.3,18-11,27.5
			c-3.3,8.4-6.6,17.1-10,26c-0.2,0.4-0.3,0.9-0.5,1.3c-3.3,8.8-6.7,17.9-10.1,27.2c-0.1,0.2-0.2,0.4-0.2,0.6l16.1-1.8
			c-0.3-0.1-0.6-0.1-1-0.2c19.3-2.4,44.9-16.8,61.4-34.6c7.6-8.2,14.5-17.8,20.9-29.1c4.8-8.4,9.2-17.7,13.5-28.1
			c3.7-9,7.3-18.8,10.7-29.4c-4.4,2.3-9.5,4-15.1,5.2c-1,0.2-2,0.4-3,0.6c-1,0.2-2,0.3-3.1,0.5l0,0l0,0l0,0
			c18-6.9,29.3-20.2,37.5-36.6c-4.7,3.2-12.4,7.4-21.6,9.5c-1.2,0.3-2.5,0.5-3.8,0.7c-0.3,0-0.6,0.1-1,0.1l0,0l0,0l0,0l0,0l0,0
			c6.2-2.6,11.5-5.5,16.1-9c1-0.7,1.9-1.5,2.8-2.3c1.4-1.2,2.7-2.5,4-3.8c0.8-0.9,1.6-1.7,2.4-2.6c1.8-2.1,3.5-4.4,5-6.9
			c0.5-0.8,1-1.5,1.4-2.3c0.6-1.2,1.2-2.3,1.7-3.4c2.5-5,4.5-9.5,6.1-13.5c0.8-2,1.5-3.8,2.1-5.5c0.2-0.7,0.5-1.3,0.7-2
			c0.6-1.9,1.2-3.6,1.6-5.1c0.6-2.2,1-4,1.2-5.3l0,0l0,0c-0.6,0.5-1.3,1-2.1,1.4c-5.4,3.2-14.7,6.2-22.2,7.6l14.8-1.6l-14.8,1.6
			c-0.1,0-0.2,0-0.3,0.1c-0.7,0.1-1.5,0.2-2.3,0.4c0.1-0.1,0.3-0.1,0.4-0.2l-50.6,5.5C-702.1-593.5-702.2-593.3-702.3-593.2z"/>
		
			<linearGradient id="path7346_1_" gradientUnits="userSpaceOnUse" x1="-2109816.25" y1="107896.0313" x2="-2109276.5" y2="107896.0313" gradientTransform="matrix(5.943940e-03 -1.274799e-02 1.274799e-02 5.943940e-03 10169.8535 -27994.2598)">
			<stop  offset="0.3233" style="stop-color:#9E2064"/>
			<stop  offset="0.6302" style="stop-color:#C92037"/>
			<stop  offset="0.7514" style="stop-color:#CD2335"/>
			<stop  offset="1" style="stop-color:#E97826"/>
		</linearGradient>
		<path id="path7346" class="st9" d="M-645.3-695.4c-4.5,6.9-9.4,14.8-14.7,23.6c-0.3,0.5-0.6,0.9-0.8,1.4
			c-4.6,7.7-9.4,16.1-14.5,25.4c-4.4,8-9,16.5-13.8,25.8c-4.2,8-8.4,16.5-12.9,25.5l50.6-5.5c14.7-6.8,21.3-12.9,27.7-21.8
			c1.7-2.4,3.4-5,5.1-7.7c5.2-8.1,10.3-17,14.8-25.9c4.4-8.6,8.3-17.1,11.2-24.7c1.9-4.9,3.4-9.4,4.5-13.4c0.9-3.5,1.6-6.8,2.2-10
			C-605.5-699.4-629.6-696.2-645.3-695.4z"/>
		<path id="path7348" class="st2" d="M-678-521c-1,0.2-2,0.3-3.1,0.5l0,0C-680.1-520.7-679.1-520.9-678-521z"/>
		<path id="path7350" class="st3" d="M-678-521c-1,0.2-2,0.3-3.1,0.5l0,0C-680.1-520.7-679.1-520.9-678-521z"/>
		
			<linearGradient id="path7362_1_" gradientUnits="userSpaceOnUse" x1="-2111642" y1="115008.0703" x2="-2111102.25" y2="115008.0703" gradientTransform="matrix(5.943940e-03 -1.274799e-02 1.274799e-02 5.943940e-03 10169.8535 -27994.2598)">
			<stop  offset="0.3233" style="stop-color:#9E2064"/>
			<stop  offset="0.6302" style="stop-color:#C92037"/>
			<stop  offset="0.7514" style="stop-color:#CD2335"/>
			<stop  offset="1" style="stop-color:#E97826"/>
		</linearGradient>
		<path id="path7362" class="st10" d="M-678-521c-1,0.2-2,0.3-3.1,0.5l0,0C-680.1-520.7-679.1-520.9-678-521z"/>
		<path id="path7364" class="st2" d="M-670-546.9c0.3,0,0.6-0.1,1-0.1C-669.3-547-669.6-546.9-670-546.9L-670-546.9z"/>
		<path id="path7366" class="st3" d="M-670-546.9c0.3,0,0.6-0.1,1-0.1C-669.3-547-669.6-546.9-670-546.9L-670-546.9z"/>
		
			<linearGradient id="path7378_1_" gradientUnits="userSpaceOnUse" x1="-2110945.25" y1="113919.1875" x2="-2110405.75" y2="113919.1875" gradientTransform="matrix(5.943940e-03 -1.274799e-02 1.274799e-02 5.943940e-03 10169.8535 -27994.2598)">
			<stop  offset="0.3233" style="stop-color:#9E2064"/>
			<stop  offset="0.6302" style="stop-color:#C92037"/>
			<stop  offset="0.7514" style="stop-color:#CD2335"/>
			<stop  offset="1" style="stop-color:#E97826"/>
		</linearGradient>
		<path id="path7378" class="st11" d="M-670-546.9c0.3,0,0.6-0.1,1-0.1C-669.3-547-669.6-546.9-670-546.9L-670-546.9z"/>
		<path id="path7380" class="st2" d="M-669.9-546.9L-669.9-546.9L-669.9-546.9L-669.9-546.9L-669.9-546.9L-669.9-546.9z"/>
		<path id="path7382" class="st3" d="M-669.9-546.9L-669.9-546.9L-669.9-546.9L-669.9-546.9L-669.9-546.9L-669.9-546.9z"/>
		
			<linearGradient id="path7394_1_" gradientUnits="userSpaceOnUse" x1="-2094247.125" y1="126161.7188" x2="-2094247.125" y2="126161.7188" gradientTransform="matrix(5.943940e-03 -1.274799e-02 1.274799e-02 5.943940e-03 10169.8535 -27994.2598)">
			<stop  offset="0.3233" style="stop-color:#9E2064"/>
			<stop  offset="0.6302" style="stop-color:#C92037"/>
			<stop  offset="0.7514" style="stop-color:#CD2335"/>
			<stop  offset="1" style="stop-color:#E97826"/>
		</linearGradient>
		<path id="path7394" class="st12" d="M-669.9-546.9L-669.9-546.9L-669.9-546.9L-669.9-546.9L-669.9-546.9L-669.9-546.9z"/>
	</g>
	<g id="text5492" class="st13">
		<path id="path4317" class="st14" d="M-116.6-9.8h13.1c1.1,0,2.1,0,3.2,0s1.9,0.2,2.4,0.7c0.4,0.3,0.6,0.8,0.7,1.5
			c0.1,0.6,0.2,1.2,0.3,1.8c0.1,1.1,0.3,2.2,0.4,3.3c0.2,1.1,0.4,2.2,0.5,3.3c0.7,4.2,1.3,8.5,1.8,12.8s1.2,8.6,1.9,12.9
			c0.3,1.3,0.5,2.7,0.6,4.1s0.3,2.8,0.6,4.1c0.1,0.3,0.1,0.7,0.2,1s0.2,0.6,0.5,0.8c0.1,0.1,0.2,0.1,0.3,0.2c0.1,0.1,0.3,0,0.5-0.1
			c0.5-0.1,1-0.5,1.3-1.2s0.7-1.3,1-1.8c0.8-1.5,1.6-3,2.3-4.5c0.7-1.5,1.5-3.1,2.4-4.6c2.1-4.1,4.3-8.1,6.4-12.2
			C-74,8.3-71.8,4-69.7-0.1c0.5-1.1,1.1-2.1,1.6-3.1c0.6-1.1,1.2-2.1,1.7-3.2c0.3-0.5,0.6-1.1,0.9-1.6s0.8-1,1.4-1.3
			c0.5-0.3,1-0.5,1.6-0.5c0.7,0,1.3,0,2,0h6.5h6.9c0.6,0,1.2,0,1.8,0c0.7,0,1.1,0.1,1.4,0.4c0.7,0.4,0.9,1.2,0.6,2.3
			c-0.2,1.1-0.4,2.2-0.6,3.3l-3,15l-7.5,37.2l-1.7,8.7c-0.1,0.7-0.3,1.5-0.5,2.2s-0.5,1.2-1,1.5s-1,0.5-1.6,0.6c-0.6,0-1.3,0-2,0
			H-66h-2.7c-0.5-0.1-0.9-0.2-1.3-0.3c-0.3-0.1-0.6-0.3-0.8-0.7c-0.2-0.3-0.3-0.8-0.2-1.3c0.1-0.5,0.3-1.1,0.4-1.7l1-5.1l5.2-25.7
			c0.1-0.9,0.3-1.8,0.4-2.6c0.2-0.9,0.4-1.7,0.5-2.6c0.1-0.5,0.3-1.1,0.4-1.6c0.1-0.6,0.2-1.2,0.2-1.7c-0.1-0.5-0.1-1,0-1.5
			s0-0.9-0.3-1c-0.2-0.1-0.4,0-0.5,0.1s-0.2,0.2-0.3,0.3c-0.3,0.3-0.6,0.6-0.9,1c-0.2,0.3-0.4,0.7-0.6,1c-0.6,1-1.2,2-1.8,3.1
			c-0.5,1.1-1.1,2.1-1.8,3.2c-0.2,0.4-0.4,0.8-0.6,1.2c-0.1,0.4-0.3,0.8-0.6,1.2c-0.5,0.9-1,1.7-1.5,2.6c-0.4,0.9-0.9,1.7-1.4,2.6
			c-0.1,0.2-0.2,0.4-0.3,0.7c-0.1,0.2-0.2,0.4-0.3,0.6c-0.4,0.6-0.8,1.2-1.1,1.9c-0.3,0.7-0.6,1.3-1.1,2c-0.4,0.6-0.8,1.2-1.1,1.9
			c-0.3,0.7-0.6,1.3-1,2c-1.2,1.9-2.3,3.9-3.3,5.9c-1,1.9-2,3.9-3.1,5.8c-0.2,0.2-0.3,0.4-0.4,0.6c0,0.2-0.1,0.4-0.3,0.6
			c-0.5,0.7-0.9,1.5-1.3,2.3c-0.3,0.7-0.7,1.5-1.2,2.2c-0.3,0.5-0.5,0.9-0.8,1.3c-0.3,0.4-0.6,0.7-0.9,1c-0.4,0.3-0.8,0.4-1.1,0.5
			c-0.3,0-0.8,0.1-1.3,0.2h-2.3c-0.5,0-1,0-1.7,0.1c-0.6,0-1.2,0-1.9,0c-0.6,0-1.2,0-1.7-0.1s-0.9-0.2-1.1-0.4
			c-0.5-0.3-0.8-0.7-0.9-1.1c-0.1-0.5-0.2-1-0.4-1.6c-0.1-0.8-0.2-1.6-0.3-2.4c-0.1-0.9-0.2-1.7-0.4-2.5l-0.1-0.9
			c-0.2-0.8-0.3-1.6-0.4-2.5s-0.2-1.8-0.4-2.6c0-0.2,0-0.4,0-0.5c0-0.2,0-0.4-0.1-0.6c-0.2-0.6-0.3-1.2-0.4-1.9s-0.2-1.3-0.3-2
			c0-0.1,0-0.3,0-0.5s0-0.4-0.1-0.5c-0.1-0.7-0.2-1.3-0.3-2c0-0.7-0.1-1.3-0.3-2c-0.3-1.3-0.5-2.7-0.7-4.2c-0.1-1.5-0.3-2.9-0.6-4.3
			c-0.3-1.7-0.5-3.4-0.7-5.1c-0.1-1.7-0.4-3.4-0.9-5c-0.1-0.9-0.3-1.7-0.6-2.3c-0.1-0.1-0.3-0.2-0.4-0.3s-0.2-0.1-0.4,0
			c-0.4,0.2-0.7,0.5-0.8,1s-0.2,0.9-0.4,1.4c-0.3,0.5-0.4,1-0.5,1.5s-0.1,1-0.2,1.5c-0.1,0.7-0.3,1.5-0.5,2.2
			c-0.1,0.7-0.3,1.5-0.5,2.2l-5.3,26.6l-1,4.9c-0.1,0.5-0.3,1.1-0.4,1.6c-0.1,0.5-0.3,1-0.6,1.3c-0.3,0.5-0.9,0.8-1.7,0.9
			c-0.5,0.1-1,0.2-1.5,0.2c-0.5-0.1-1.1-0.1-1.6-0.1h-5.2c-0.7,0-1.4,0-2,0c-0.6-0.1-1.1-0.3-1.4-0.6c-0.3-0.3-0.5-0.8-0.4-1.5
			s0.3-1.5,0.4-2.2l1.7-8.8l7.5-37.2l2.8-14c0.1-0.4,0.1-0.9,0.2-1.4c0.1-0.6,0.3-1.2,0.4-1.7c0.1-0.5,0.3-1,0.4-1.5
			c0.2-0.5,0.4-0.9,0.5-1.2c0.4-0.5,1-0.8,1.8-1c0.2-0.1,0.3-0.1,0.4,0C-117-9.6-116.8-9.6-116.6-9.8L-116.6-9.8z"/>
		<path id="path4319" class="st14" d="M2.9,57.5c0,0.7-0.1,1.5-0.2,2.2S2.1,61,1.4,61.3c-0.5,0.2-1,0.3-1.5,0.3s-1.1,0-1.6,0h-5.4
			c-0.6,0-1.2,0-1.8,0c-0.5-0.1-0.9-0.2-1.2-0.5c-0.4-0.3-0.7-0.6-0.8-1.1c-0.1-0.5-0.4-1-0.7-1.3c-0.1-0.1-0.3-0.2-0.5-0.3
			c-0.1-0.1-0.4-0.2-0.7-0.1c-0.4,0.1-0.8,0.3-1.1,0.5s-0.7,0.4-1,0.5c-0.4,0.3-0.8,0.5-1.3,0.7c-0.4,0.2-0.8,0.4-1.3,0.6
			c-0.9,0.4-1.9,0.7-2.9,1c-1,0.2-2,0.4-3,0.7c-0.5,0.1-1,0.2-1.5,0.2c-0.4,0.1-0.8,0.1-1.3,0.2c-0.2,0-0.4,0-0.6,0
			c-0.2,0.1-0.4,0.1-0.6,0.1h-1.1c-0.7,0.1-1.4,0.1-2,0h-0.9c-0.5-0.1-0.9-0.2-1.4-0.2c-0.4,0.1-0.8,0-1.2-0.1
			c-0.6-0.1-1.2-0.3-1.8-0.4c-0.6-0.1-1.1-0.2-1.6-0.5c-1.8-0.7-3.3-1.7-4.4-2.8c-1.1-1.2-1.9-2.8-2.3-4.7c-0.1-0.5-0.2-1-0.3-1.5
			c0-0.5,0-1.1-0.1-1.7c-0.1-0.3-0.1-0.7,0-1s0.2-0.7,0.2-1c0-0.2,0-0.6,0.1-1.2c0.1-0.7,0.3-1.1,0.4-1.4c0.3-0.7,0.4-1.2,0.5-1.7
			c0.3-0.7,0.7-1.5,1-2.2c0.4-0.8,0.8-1.5,1.3-2.1c1.5-1.9,3-3.4,4.7-4.4c1.7-1,3.7-1.9,6.2-2.6c0.9-0.3,1.9-0.6,2.8-0.7
			c0.9-0.1,1.9-0.3,2.9-0.5c0.5-0.1,1.1-0.2,1.7-0.2c0.7-0.1,1.3-0.2,1.9-0.3c0.5-0.1,0.9-0.2,1.4-0.1c0.5,0,1-0.1,1.6-0.2
			c0.5-0.1,0.9-0.2,1.4-0.2s1-0.1,1.5-0.2c1.5-0.3,2.8-0.6,4-0.8c1.3-0.3,2.5-0.9,3.6-1.8c0.7-0.6,1.2-1.3,1.6-2
			c0.1-0.2,0.1-0.3,0.1-0.5s0-0.3,0.1-0.4s0.2-0.3,0.2-0.6c0.1-0.3,0.1-0.5,0.2-0.6c0-0.3,0-0.5,0-0.8s0-0.5,0-0.7
			c-0.3-2-1.4-3.4-3.4-4.1c-0.5-0.2-1.2-0.3-2.1-0.4c-0.8-0.1-1.6-0.2-2.5-0.1c-0.9,0-1.7,0.1-2.6,0.2c-0.8,0.1-1.5,0.3-2.1,0.5
			c-0.5,0.1-0.9,0.3-1.3,0.6c-0.4,0.2-0.8,0.4-1.2,0.7c-0.4,0.3-0.8,0.6-1.3,1.1s-0.8,0.9-1,1.3c-0.5,0.7-0.9,1.3-1.2,1.9
			s-0.9,1-1.7,1.2c-0.5,0.2-1.1,0.2-1.7,0.2s-1.2,0-1.8,0h-3.8c-0.3,0-0.7,0-1.1,0.1c-0.3,0-0.6,0-0.8-0.1h-0.9
			c-0.1-0.1-0.3-0.1-0.5-0.1c-0.2,0-0.4-0.1-0.5-0.2c-0.5-0.1-0.7-0.6-0.8-1.3c0-0.3,0.1-0.7,0.2-1c0.1-0.3,0.3-0.6,0.4-0.9
			c0.3-0.7,0.7-1.4,1-2c0.4-0.7,0.8-1.3,1.2-1.8c0.3-0.3,0.5-0.7,0.8-1c0.3-0.3,0.5-0.7,0.8-1c0.7-0.7,1.5-1.4,2.4-2.1
			c0.2-0.1,0.4-0.2,0.7-0.5c0.4-0.3,0.7-0.5,1-0.7s0.7-0.4,1.1-0.6c1.3-0.7,2.6-1.3,3.9-1.7c1.4-0.5,2.8-0.9,4.2-1.3
			c0.9-0.2,1.7-0.3,2.6-0.4c0.9-0.1,1.8-0.2,2.7-0.4c0.3-0.1,0.7-0.1,1.2,0c0.5,0.1,0.9,0,1.1-0.1c2.7-0.1,5.3,0,7.7,0.3
			c2.5,0.3,4.6,0.8,6.5,1.5s3.5,1.7,4.7,3c1.3,1.2,2.1,2.8,2.5,4.7c0.2,1.1,0.2,2.4,0,3.9s-0.5,3-0.8,4.5L4,48.8
			c-0.2,1.3-0.4,2.6-0.7,3.9C3,54,2.9,55.2,3,56.3c0,0.2,0,0.4-0.1,0.7C2.9,57.2,2.9,57.3,2.9,57.5L2.9,57.5z M-8.7,42.2
			c0.1-0.3,0.2-0.7,0.3-1.1c0.1-0.5,0.1-0.9,0.1-1.2c0-0.4,0-0.8,0.1-1.1s0-0.6-0.3-0.8c-0.3-0.3-0.7-0.4-1.4-0.4
			c-0.3,0.1-0.5,0.1-0.7,0.2c-0.2,0-0.5,0-0.8,0.1c-0.5,0.1-1,0.2-1.5,0.3s-1.1,0.2-1.7,0.3c-0.2,0.1-0.5,0.1-0.9,0.1
			c-0.9,0.2-1.8,0.3-2.7,0.4c-0.9,0.1-1.7,0.2-2.6,0.5c-0.5,0.1-1.1,0.3-1.6,0.4c-0.5,0.1-0.9,0.2-1.4,0.4c-1.5,0.6-2.9,1.5-4.1,2.7
			s-1.9,2.9-2.1,5c-0.1,1.1,0.1,2.1,0.6,2.8c0.3,0.7,0.8,1.3,1.7,1.8c0.9,0.4,1.8,0.7,2.9,0.9c1.1,0.2,2.2,0.3,3.4,0.2
			c1.3-0.1,2.5-0.4,3.6-0.7c1.9-0.5,3.4-1.4,4.6-2.5c1.3-1.2,2.3-2.7,3.2-4.4c0.2-0.5,0.4-0.9,0.5-1.4s0.3-1.1,0.6-1.6L-8.7,42.2
			L-8.7,42.2z"/>
		<path id="path4321" class="st15" d="M21.1,9.9h7.3c0.7,0,1.4,0,2.1,0.1c0.7,0,1.2,0.1,1.6,0.4c0.7,0.5,1,1.3,1,2.6
			c0.1,1.2,0.2,2.3,0.4,3.2c0.3,2.2,0.5,4.5,0.7,6.8s0.4,4.5,0.7,6.8c0.3,1.6,0.5,3.2,0.6,4.9s0.3,3.3,0.6,4.8
			c0.1,0.6,0.1,1.2,0.2,1.9c0.1,0.7,0.6,1,1.3,1c0.2-0.1,0.3-0.2,0.4-0.2c0.1-0.1,0.2-0.2,0.3-0.3c0.3-0.3,0.5-0.7,0.7-1
			s0.4-0.7,0.6-1.1c0.5-0.7,0.9-1.5,1.2-2.3c0.3-0.8,0.7-1.6,1.2-2.3c1.5-2.8,2.9-5.6,4.3-8.4c1.4-2.9,2.8-5.7,4.3-8.5
			c0.5-0.8,1-1.6,1.3-2.4c0.4-0.9,0.8-1.7,1.2-2.4c0.3-0.5,0.5-1.1,0.8-1.6c0.3-0.5,0.7-1,1.2-1.3c0.2-0.1,0.7-0.3,1.4-0.6
			c0.4-0.1,0.8-0.2,1.3-0.1c0.5,0,0.9,0,1.3,0H64c0.7,0,1.4,0,2,0.1c0.7,0,1.1,0.2,1.4,0.5s0.4,0.8,0.1,1.5
			c-0.2,0.6-0.4,1.1-0.6,1.5c-0.5,0.9-1.1,1.9-1.6,3c-0.5,1-1.1,2-1.6,2.9c-0.3,0.5-0.5,0.9-0.7,1.4c-0.2,0.4-0.4,0.8-0.6,1.2
			c-0.5,0.7-0.9,1.5-1.3,2.2c-0.4,0.7-0.8,1.5-1.2,2.2c-0.1,0.2-0.2,0.4-0.3,0.7c-0.1,0.2-0.2,0.4-0.3,0.6c-0.6,1-1.2,2-1.7,3.1
			c-0.5,1-1.1,2-1.6,3c-1.1,2-2.2,4.1-3.3,6.2s-2.2,4.1-3.4,6.1c-0.5,0.9-1,1.9-1.5,2.8c-0.4,0.9-0.8,1.8-1.4,2.7
			c-0.2,0.3-0.4,0.6-0.5,0.9c-0.1,0.2-0.3,0.5-0.5,0.8c-0.4,0.7-0.8,1.5-1.2,2.3c-0.3,0.7-0.7,1.5-1.2,2.2s-0.9,1.4-1.3,2.1
			c-0.4,0.6-1,1-1.7,1.3c-0.6,0.2-1.2,0.3-1.8,0.3c-0.6-0.1-1.2-0.1-1.8-0.1h-6.5c-0.7,0-1.5,0-2.2,0c-0.7,0-1.2-0.1-1.7-0.4
			c-0.4-0.3-0.6-0.7-0.8-1.2c-0.1-0.5-0.1-1.1-0.2-1.7c-0.2-0.8-0.4-1.6-0.5-2.5s-0.2-1.7-0.3-2.5c-0.1-0.3-0.1-0.5-0.1-0.7
			c0-0.3,0-0.6-0.1-0.9c-0.2-0.8-0.3-1.6-0.4-2.5s-0.2-1.7-0.4-2.6c-0.1-0.3-0.1-0.6-0.1-0.9c0-0.3,0-0.7-0.1-1
			c-0.1-0.6-0.2-1.2-0.3-1.8c-0.1-0.7-0.2-1.3-0.3-1.9c-0.1-0.2-0.1-0.4-0.1-0.6c0.1-0.2,0.1-0.5,0-0.7c-0.1-0.6-0.2-1.2-0.3-1.8
			s-0.2-1.2-0.3-1.9c-0.3-1.5-0.5-3.1-0.7-4.7c-0.2-1.7-0.4-3.3-0.6-4.9c-0.4-1.8-0.7-3.6-0.9-5.4c-0.1-1.8-0.3-3.7-0.7-5.5
			l-0.3-2.7c0-0.2-0.1-0.4-0.1-0.7c0.1-0.3,0.2-0.6,0.4-0.9c0.3-0.5,0.8-0.8,1.6-1C20.8,10.1,21,10.1,21.1,9.9L21.1,9.9z"/>
		<path id="path4323" class="st14" d="M118.9,35.3c0,0.5-0.1,1.1-0.4,1.8c-0.3,0.7-0.6,1.1-1,1.3c-0.3,0.3-0.8,0.5-1.5,0.6
			s-1.4,0.1-2.2,0.2c-0.7,0-1.5,0-2.3,0c-0.7-0.1-1.4-0.1-2-0.1H85.1c-0.5,0-0.9,0-1.4,0c-0.4,0-0.8,0.1-1.1,0.2
			c-0.6,0.3-1,0.5-1.2,0.8c-0.1,0.1-0.3,0.4-0.6,0.8c-0.2,0.3-0.3,0.7-0.3,1c0.1,0.4,0.1,0.8,0,1.2c0,0.3,0,0.7,0.1,1.1
			c0.2,1.6,0.6,2.9,1.1,4c0.6,1,1.5,1.9,2.6,2.7c0.5,0.3,1,0.6,1.5,0.7c0.6,0.1,1.2,0.2,1.7,0.4c0.5,0.1,1.2,0.2,2.1,0.3
			s1.8,0,2.5-0.1H93c0.7-0.1,1.3-0.3,1.9-0.4c0.6-0.2,1.2-0.4,1.8-0.6c0.7-0.3,1.6-0.8,2.5-1.3s1.7-1.1,2.2-1.6
			c0.4-0.5,0.8-0.9,1.3-1.3c0.5-0.5,1-0.8,1.5-1c0.7-0.3,1.6-0.5,2.6-0.4c1.1,0,2,0,2.9,0c0.4,0,0.8,0,1.2,0c0.5-0.1,0.9,0,1.2,0.1
			h1c0.6,0.1,1,0.3,1.3,0.5c0.2,0.1,0.3,0.4,0.2,0.9c0,0.5-0.1,0.9-0.3,1.2c-0.5,0.9-1.1,1.8-1.7,2.5c-0.5,0.7-1.1,1.5-1.8,2.2
			c-1.9,2.2-3.9,4-6,5.3s-4.7,2.5-7.7,3.4c-0.8,0.3-1.6,0.4-2.3,0.5s-1.5,0.2-2.4,0.4c-0.3,0.1-0.6,0.1-0.9,0c-0.3,0-0.5,0-0.8,0.1
			h-1.1c-0.4,0.1-0.8,0.2-1.2,0.1c-0.4,0-0.8,0-1.1-0.1c-0.5-0.1-1-0.1-1.4,0s-0.8,0-1.3-0.1c-0.3-0.1-0.7-0.2-1.1-0.2
			s-0.7-0.1-1-0.2c-0.7-0.1-1.5-0.3-2.2-0.5c-0.7-0.1-1.3-0.4-1.8-0.7c-0.7-0.3-1.3-0.5-1.9-0.7C76,60,75.5,59.7,75,59.4
			c-1.9-1.3-3.5-2.9-4.8-4.6c-1.3-1.8-2.2-3.9-2.8-6.2c-0.2-0.7-0.3-1.5-0.4-2.2c0-0.8-0.1-1.6-0.3-2.4c0-0.3,0-0.5,0-0.7
			c0.1-0.3,0.1-0.5,0.1-0.8c-0.1-0.8-0.1-1.7,0-2.6c0.1-0.9,0.3-1.9,0.4-2.8c0.1-0.3,0.1-0.7,0.1-1.1c0.1-0.4,0.2-0.8,0.3-1.1
			l0.3-1.2l0.8-2.4c0.5-1.1,0.9-2.2,1.3-3.3c0.4-1.1,0.9-2.1,1.5-3c4.3-6.9,10.1-11.8,17.6-14.7c1-0.4,2-0.7,3-0.8
			c1-0.2,2.1-0.4,3.2-0.7c0.5-0.1,1-0.1,1.5-0.1s1,0,1.5-0.1c3.4-0.1,6.2,0.3,8.5,1.2c2.3,0.8,4.2,1.9,5.9,3.2
			c0.5,0.4,1,0.9,1.5,1.4s1,1,1.3,1.5c0.1,0.3,0.4,0.6,0.7,0.8c0.4,0.7,0.7,1.5,1,2.3c0.3,0.7,0.7,1.5,1.1,2.3
			c0.2,0.6,0.3,1.2,0.4,1.9c0.1,0.6,0.3,1.3,0.4,2c0.1,0.9,0.2,1.8,0.2,2.7c0.1,0.9,0.1,1.9,0.2,2.8c0,0.5-0.1,1.1-0.3,1.8
			c-0.1,0.6-0.2,1.2-0.1,1.7L118.9,35.3L118.9,35.3z M105,29.4c0.6-0.7,0.8-1.5,0.6-2.4c-0.1-1-0.2-1.7-0.3-2.2
			c-0.6-1.8-1.6-3.2-2.9-4.1c-1.3-1-3.4-1.5-6.1-1.6c-0.2,0.1-0.4,0.2-0.7,0.1c-0.3-0.1-0.5-0.1-0.7,0c-0.4,0.1-0.8,0.2-1.2,0.3
			c-0.4,0-0.8,0.1-1.1,0.2c-3.1,0.9-5.7,2.8-7.6,5.5c-0.2,0.3-0.4,0.6-0.7,1.1c-0.3,0.4-0.5,0.8-0.6,1.3c-0.1,0.4-0.2,0.8-0.2,1.2
			c0,0.4,0.2,0.7,0.5,1c0.5,0.3,1.2,0.5,2.1,0.5s1.8,0,2.7,0h11.1c0.9,0,1.9,0,2.9,0C103.8,30.3,104.6,30,105,29.4z"/>
		<path id="path4325" class="st14" d="M162,8.7c4-0.1,7.2,0.4,9.6,1.7c2.5,1.3,4.2,3.1,5.2,5.6c0.3,0.7,0.5,1.5,0.6,2.4
			c0.1,0.8,0.2,1.6,0.3,2.5c0.1,0.5,0.1,1,0,1.5s-0.1,0.9,0,1.4c-0.1,0.4-0.2,0.7-0.1,0.8c-0.1,0.9-0.2,1.9-0.4,2.9s-0.4,2-0.6,2.9
			l-1.7,8.9l-3.3,16.2c-0.3,1.3-0.5,2.5-0.8,3.7c-0.3,1.1-0.9,1.9-1.9,2.2c-0.4,0.1-0.9,0.2-1.4,0.2s-1.1,0-1.6,0h-5.4
			c-0.8,0-1.5,0-2.1-0.1s-1-0.4-1.3-0.9c-0.2-0.4-0.3-0.9-0.2-1.5c0.1-0.7,0.3-1.4,0.4-2.1l1.4-7l3-14.9c0.5-2.5,0.8-4.7,1-6.8
			c0.3-2.1,0-3.9-0.7-5.4c-0.7-1.3-1.8-2.3-3.5-2.8c-0.3-0.1-0.7-0.2-1.1-0.2c-0.3,0-0.7-0.1-1-0.2c-0.3-0.1-0.8-0.1-1.3,0
			c-0.5,0-0.8,0-1.1,0.1s-0.6,0.1-0.8,0.1s-0.4,0-0.6,0.1c-1.6,0.4-2.9,0.9-4,1.6c-2.5,1.5-4.2,3.8-5.2,6.7
			c-0.9,2.9-1.8,6.2-2.5,9.9l-2.5,12.5l-1.2,6.1c-0.1,0.6-0.3,1.2-0.4,1.8c-0.1,0.6-0.3,1.1-0.6,1.5c-0.5,0.7-1.1,1.2-1.9,1.3
			c-0.7,0.1-1.6,0.2-2.7,0.2h-5c-0.7,0-1.5,0-2.2-0.1s-1.2-0.3-1.4-0.7c-0.4-0.6-0.5-1.5-0.2-2.6s0.5-2.2,0.7-3.2l2.7-13.6l4.4-22
			l1.1-5.1c0.1-0.7,0.3-1.4,0.4-2c0.1-0.6,0.4-1.1,0.9-1.5c0.1-0.2,0.4-0.3,0.7-0.4c0.3-0.1,0.7-0.2,1-0.3h0.5
			c0.3-0.1,0.7-0.1,1-0.1c0.4,0,0.8,0,1.1,0h4.2c0.5,0,1,0,1.5,0.1c0.5,0,1,0.1,1.4,0.2c0.4,0.2,0.6,0.5,0.7,0.9
			c0.1,0.4,0.2,0.9,0.2,1.4c0,0.3,0,0.5-0.1,0.7c-0.1,0.2-0.1,0.4,0,0.6c0.1,0.3,0.1,0.5,0.2,0.6c0.1,0.1,0.3,0.2,0.5,0.3
			c0.7,0.1,1.3-0.2,1.9-0.7c0.6-0.6,1.2-1.1,1.8-1.4c2.1-1.3,4.3-2.4,6.6-3.2c0.7-0.2,1.3-0.3,1.9-0.4c0.7-0.1,1.4-0.2,2.2-0.3
			c0.2-0.1,0.5-0.1,0.9,0C161.6,8.8,161.9,8.8,162,8.7z"/>
	</g>
	<g id="text9112" class="st13">
		<path id="path4328" class="st14" d="M186.8,8.6c0.1,0.1,0.1,0.2,0.1,0.3c0,0.1,0,0.3-0.1,0.5v0.2c-0.1,0.1-0.1,0.2-0.2,0.3
			c-0.1,0.1-0.1,0.1-0.3,0.2c-0.1,0-0.3,0-0.5,0s-0.4,0-0.5,0H185c-0.1,0-0.1,0-0.2,0c-0.1,0-0.1,0-0.2,0c-0.1,0.1-0.3,0.2-0.4,0.4
			c0,0.1-0.1,0.1-0.1,0.2c0,0.1,0,0.2,0,0.3l-1,4.7c0,0.1,0,0.1,0,0.2s0,0.1,0,0.2v0.2v0.1c0,0,0,0.1-0.1,0.1
			c-0.1,0.1-0.1,0.2-0.3,0.2c-0.1,0-0.1,0-0.2,0c-0.1,0-0.2,0-0.3,0c-0.2,0-0.4,0-0.6,0s-0.4-0.1-0.5-0.2c0-0.1-0.1-0.2,0-0.3
			c0-0.1,0.1-0.2,0.1-0.4l0.9-4.7c0-0.1,0-0.1,0-0.2c0-0.1,0-0.1,0-0.2v-0.3c0-0.2-0.1-0.3-0.2-0.4c-0.1-0.1-0.3-0.1-0.5-0.1
			s-0.4,0-0.6,0c-0.1,0-0.1,0-0.2,0c-0.1,0-0.1,0-0.1,0c-0.1,0-0.1,0-0.1,0h-0.1c-0.1-0.1-0.2-0.2-0.2-0.3c0-0.1,0-0.3,0.1-0.5
			c0-0.1,0-0.2,0-0.2c0-0.1,0.1-0.1,0.1-0.2s0.1-0.1,0.2-0.1c0.1,0,0.1-0.1,0.2-0.1h0.1h0.1h5.3c0.1,0,0.2,0,0.3,0
			C186.6,8.6,186.7,8.6,186.8,8.6L186.8,8.6z M197.4,8.7c0.1,0.1,0.1,0.2,0,0.3c0,0.1,0,0.3-0.1,0.4l-1.3,6.5c0,0.1-0.1,0.3-0.1,0.4
			c0,0.1-0.1,0.2-0.1,0.3c-0.1,0.1-0.2,0.2-0.4,0.2s-0.4,0-0.6,0c-0.1,0-0.2,0-0.3,0s-0.1,0-0.2,0c-0.1,0-0.2-0.1-0.2-0.2
			c0-0.1,0-0.2,0-0.3l0.1-0.3v-0.1c0-0.1,0-0.1,0-0.2l0.5-2.5c0-0.2,0.1-0.3,0.1-0.5s0.1-0.3,0.1-0.4c0-0.1,0-0.1,0-0.2
			c0-0.1,0-0.1-0.1-0.1c0,0,0,0-0.1,0l-0.1,0.1c-0.1,0.2-0.3,0.3-0.4,0.5c-0.1,0.2-0.2,0.4-0.3,0.6c-0.2,0.4-0.5,0.8-0.7,1.3
			c-0.2,0.4-0.5,0.8-0.7,1.2c-0.1,0.2-0.2,0.4-0.3,0.6s-0.3,0.4-0.4,0.5c-0.1,0.1-0.2,0.1-0.3,0.1s-0.2,0-0.3,0h-0.3
			c-0.1,0-0.1,0-0.2-0.1c-0.1,0-0.1-0.1-0.1-0.1s-0.1-0.1-0.1-0.2c0-0.1,0-0.1,0-0.2s-0.1-0.2-0.1-0.4c0-0.1,0-0.3-0.1-0.4
			c-0.1-0.4-0.1-0.8-0.2-1.2c-0.1-0.4-0.1-0.8-0.2-1.2c0-0.2-0.1-0.5-0.1-0.7s-0.1-0.4-0.2-0.6c0,0,0,0-0.1,0l0,0
			c-0.1,0.1-0.1,0.1-0.1,0.2c0,0.1-0.1,0.1-0.1,0.2c0,0.1,0,0.1,0,0.2l-0.1,0.3c0,0.1,0,0.1-0.1,0.2c-0.1,0.1,0,0.1,0,0.1l-0.5,2.3
			c0,0.2-0.1,0.4-0.1,0.6c0,0.2-0.1,0.4-0.2,0.5l-0.1,0.1c0,0-0.1,0-0.1,0.1c-0.1,0-0.1,0-0.2,0.1c-0.1,0-0.2,0-0.3,0
			c-0.2,0-0.3,0-0.5,0s-0.3,0-0.4-0.1c-0.1-0.1-0.1-0.1-0.1-0.3c0-0.1,0-0.3,0.1-0.4l1.3-6.6c0-0.1,0.1-0.2,0.1-0.3
			c0-0.1,0.1-0.2,0.1-0.3c0.1-0.1,0.2-0.2,0.3-0.2h0.1h0.1h1.3c0.1,0,0.3,0,0.4,0c0.1,0,0.2,0,0.3,0.1c0.1,0.1,0.2,0.2,0.2,0.4
			s0.1,0.3,0.1,0.5c0.1,0.4,0.1,0.8,0.2,1.1c0.1,0.4,0.1,0.8,0.2,1.1c0.1,0.2,0.1,0.4,0.1,0.6s0.1,0.4,0.1,0.6c0,0.1,0,0.2,0.1,0.3
			c0,0.1,0.1,0.1,0.2,0.2c0.1,0,0.1,0,0.2,0c0.1-0.1,0.1-0.1,0.1-0.1c0.1-0.1,0.2-0.3,0.3-0.5s0.2-0.3,0.3-0.5
			c0.3-0.4,0.5-0.9,0.8-1.3c0.3-0.5,0.5-0.9,0.8-1.4c0.1-0.2,0.2-0.4,0.3-0.6s0.3-0.4,0.5-0.4c0.1,0,0.2,0,0.3,0s0.2,0,0.3,0h0.9
			c0.1,0,0.2,0,0.2,0c0.1,0,0.2,0,0.2,0h0.1C197.3,8.6,197.3,8.6,197.4,8.7C197.3,8.6,197.4,8.6,197.4,8.7L197.4,8.7z"/>
	</g>
	<g id="g4701" transform="matrix(0.13272567,0.01947468,-0.01947468,0.13272567,170.19741,12.570146)">
		
			<linearGradient id="path4710_1_" gradientUnits="userSpaceOnUse" x1="-1070442.875" y1="741617.5" x2="-1070367.125" y2="741706" gradientTransform="matrix(7.604398e-03 -1.630665e-02 1.630665e-02 7.604398e-03 -4756.0635 -22966.3691)">
			<stop  offset="0" style="stop-color:#F69923"/>
			<stop  offset="0.3123" style="stop-color:#F79A23"/>
			<stop  offset="0.8383" style="stop-color:#E97826"/>
		</linearGradient>
		<path id="path4710" class="st16" d="M-780.2,79.5c-8.4,5-22.4,19-39,39.3l15.3,28.9c10.7-15.4,21.7-29.2,32.7-41
			c0.8-0.9,1.3-1.4,1.3-1.4c-0.4,0.5-0.9,0.9-1.3,1.4c-3.6,3.9-14.4,16.5-30.7,41.6c15.7-0.8,39.8-4,59.5-7.4
			c5.9-32.8-5.7-47.8-5.7-47.8S-762.9,69.2-780.2,79.5z"/>
		<path id="path4712" class="st1" d="M-806.2,244.3c0.1,0,0.2,0,0.3-0.1l-2.2,0.2c-0.1,0.1-0.3,0.1-0.4,0.2
			C-807.7,244.5-806.9,244.4-806.2,244.3z"/>
		<path id="path4714" class="st1" d="M-821.8,296c-1.2,0.3-2.5,0.5-3.8,0.7C-824.3,296.5-823,296.3-821.8,296z"/>
		<path id="path4716" class="st1" d="M-928,412.1c0.2-0.4,0.3-0.9,0.5-1.3c3.4-8.9,6.7-17.5,10-26c3.7-9.4,7.4-18.6,11-27.5
			c3.8-9.3,7.6-18.4,11.3-27.1c3.9-9.2,7.7-18,11.5-26.5c3.1-6.9,6.1-13.6,9.1-20.1c1-2.2,2-4.3,3-6.4c2-4.2,3.9-8.3,5.8-12.3
			c1.8-3.7,3.5-7.3,5.2-10.9c0.6-1.2,1.2-2.4,1.7-3.5c0.1-0.2,0.2-0.4,0.3-0.6l-1.9,0.2l-1.5-2.9c-0.1,0.3-0.3,0.6-0.4,0.9
			c-2.7,5.3-5.4,10.7-8,16.2c-1.5,3.1-3,6.3-4.6,9.5c-4.2,8.8-8.3,17.6-12.3,26.6c-4.1,9-8.1,18.1-12,27.1
			c-3.9,8.9-7.6,17.8-11.3,26.7c-3.7,8.9-7.3,17.7-10.8,26.5c-3.7,9.2-7.3,18.3-10.7,27.3c-0.8,2-1.6,4.1-2.3,6.1
			c-2.8,7.3-5.5,14.4-8.1,21.5l2.4,4.7l2.1-0.2c0.1-0.2,0.2-0.4,0.2-0.6C-934.7,430-931.3,420.9-928,412.1z"/>
		<path id="path4718" class="st1" d="M-826.6,296.8L-826.6,296.8L-826.6,296.8L-826.6,296.8z"/>
		<path id="path4720" class="st2" d="M-831.7,322.1c-2,0.4-4,0.7-6,1l0,0c1-0.1,2.1-0.3,3.1-0.5
			C-833.6,322.5-832.6,322.3-831.7,322.1z"/>
		<path id="path4722" class="st3" d="M-831.7,322.1c-2,0.4-4,0.7-6,1l0,0c1-0.1,2.1-0.3,3.1-0.5
			C-833.6,322.5-832.6,322.3-831.7,322.1z"/>
		<path id="path4724" class="st2" d="M-826.5,296.8L-826.5,296.8C-826.6,296.8-826.6,296.8-826.5,296.8c0.3,0,0.6-0.1,0.9-0.1
			c1.3-0.2,2.6-0.4,3.8-0.7C-823.3,296.3-824.9,296.5-826.5,296.8L-826.5,296.8L-826.5,296.8z"/>
		<path id="path4726" class="st3" d="M-826.5,296.8L-826.5,296.8C-826.6,296.8-826.6,296.8-826.5,296.8c0.3,0,0.6-0.1,0.9-0.1
			c1.3-0.2,2.6-0.4,3.8-0.7C-823.3,296.3-824.9,296.5-826.5,296.8L-826.5,296.8L-826.5,296.8z"/>
		
			<linearGradient id="path4737_1_" gradientUnits="userSpaceOnUse" x1="-1100632.625" y1="744679.375" x2="-1100093" y2="744679.375" gradientTransform="matrix(7.604398e-03 -1.630665e-02 1.630665e-02 7.604398e-03 -4756.0635 -22966.3691)">
			<stop  offset="0.3233" style="stop-color:#9E2064"/>
			<stop  offset="0.6302" style="stop-color:#C92037"/>
			<stop  offset="0.7514" style="stop-color:#CD2335"/>
			<stop  offset="1" style="stop-color:#E97826"/>
		</linearGradient>
		<path id="path4737" class="st17" d="M-849.1,222.3c4.7-8.7,9.4-17.2,14.1-25.5c4.9-8.6,9.9-16.9,15-25c0.3-0.5,0.6-1,0.9-1.4
			c5-7.9,10-15.5,15.1-22.8l-15.3-28.8c-1.1,1.4-2.3,2.8-3.5,4.3c-4.4,5.5-9,11.4-13.7,17.7c-5.3,7.1-10.7,14.6-16.3,22.5
			c-5.1,7.3-10.3,15-15.5,22.9c-4.4,6.8-8.8,13.7-13.2,20.8c-0.2,0.3-0.3,0.5-0.5,0.8l19.9,39.3
			C-857.7,238.8-853.4,230.5-849.1,222.3z"/>
		
			<linearGradient id="path4748_1_" gradientUnits="userSpaceOnUse" x1="-1097394.125" y1="745091.75" x2="-1097072.625" y2="745091.75" gradientTransform="matrix(7.604398e-03 -1.630665e-02 1.630665e-02 7.604398e-03 -4756.0635 -22966.3691)">
			<stop  offset="0" style="stop-color:#282662"/>
			<stop  offset="9.548389e-02" style="stop-color:#662E8D"/>
			<stop  offset="0.7882" style="stop-color:#9F2064"/>
			<stop  offset="0.9487" style="stop-color:#CD2032"/>
		</linearGradient>
		<path id="path4748" class="st18" d="M-939.8,444c-2.6,7.2-5.3,14.6-7.9,22.2c0,0.1-0.1,0.2-0.1,0.3c-0.4,1.1-0.8,2.1-1.1,3.2
			c-1.8,5.1-3.3,9.7-6.9,20.1c5.9,2.7,10.6,9.7,15,17.7c-0.5-8.3-3.9-16.1-10.4-22.1c28.9,1.3,53.9-6,66.7-27.2
			c1.1-1.9,2.2-3.9,3.2-6c-5.9,7.4-13.1,10.6-26.8,9.8h-0.1h0.1c20.1-9,30.2-17.7,39.1-32c2.1-3.4,4.2-7.1,6.3-11.2
			c-17.6,18.1-38,23.2-59.5,19.3l-16.1,1.8C-938.8,441.3-939.3,442.6-939.8,444z"/>
		
			<linearGradient id="path4759_1_" gradientUnits="userSpaceOnUse" x1="-1099155.375" y1="742990.8125" x2="-1098615.75" y2="742990.8125" gradientTransform="matrix(7.604398e-03 -1.630665e-02 1.630665e-02 7.604398e-03 -4756.0635 -22966.3691)">
			<stop  offset="0.3233" style="stop-color:#9E2064"/>
			<stop  offset="0.6302" style="stop-color:#C92037"/>
			<stop  offset="0.7514" style="stop-color:#CD2335"/>
			<stop  offset="1" style="stop-color:#E97826"/>
		</linearGradient>
		<path id="path4759" class="st19" d="M-932.3,407.9c3.5-9,7.1-18.1,10.7-27.3c3.5-8.8,7.1-17.6,10.8-26.5
			c3.7-8.9,7.5-17.8,11.3-26.7c3.9-9.1,7.9-18.1,12-27.1c4-8.9,8.2-17.8,12.3-26.6c1.5-3.2,3-6.3,4.6-9.5c2.6-5.4,5.3-10.8,8-16.2
			c0.1-0.3,0.3-0.6,0.4-0.9l-19.7-39.2c-0.3,0.5-0.6,1.1-1,1.6c-4.6,7.6-9.3,15.3-13.8,23.2c-4.6,8-9.1,16.1-13.5,24.4
			c-3.7,7-7.3,14-10.9,21.1c-0.7,1.4-1.4,2.9-2.1,4.3c-4.3,8.9-8.3,17.6-11.8,25.9c-4,9.4-7.5,18.4-10.6,26.9
			c-2,5.6-3.9,11-5.6,16.2c-1.4,4.4-2.7,8.9-4,13.3c-3,10.4-5.5,20.8-7.6,31.2l20,39.5c2.6-7.1,5.4-14.2,8.1-21.5
			C-933.9,412-933.1,410-932.3,407.9z"/>
		
			<linearGradient id="path4770_1_" gradientUnits="userSpaceOnUse" x1="-1097245.75" y1="741509.625" x2="-1096962.25" y2="741509.625" gradientTransform="matrix(7.604398e-03 -1.630665e-02 1.630665e-02 7.604398e-03 -4756.0635 -22966.3691)">
			<stop  offset="0" style="stop-color:#282662"/>
			<stop  offset="9.548389e-02" style="stop-color:#662E8D"/>
			<stop  offset="0.7882" style="stop-color:#9F2064"/>
			<stop  offset="0.9487" style="stop-color:#CD2032"/>
		</linearGradient>
		<path id="path4770" class="st20" d="M-963.1,397.4c-2.5,12.6-4.3,25.2-5.2,37.8c0,0.4-0.1,0.9-0.1,1.3c-6.2-10-23-19.8-22.9-19.7
			c12,17.4,21.1,34.6,22.4,51.5c-6.4,1.3-15.2-0.6-25.3-4.3c10.6,9.7,18.5,12.4,21.6,13.1c-9.7,0.6-19.8,7.3-30,15
			c14.9-6.1,27-8.5,35.6-6.5c-13.7,38.7-27.4,81.5-41.1,126.9c4.2-1.2,6.7-4.1,8.1-7.9c2.4-8.2,18.7-62.2,44.1-133.1
			c0.7-2,1.5-4,2.2-6.1c0.2-0.6,0.4-1.1,0.6-1.7c2.7-7.4,5.5-15,8.4-22.8c0.7-1.8,1.3-3.5,2-5.3v-0.1l-20-39.5
			C-962.9,396.5-963,396.9-963.1,397.4z"/>
		
			<linearGradient id="path4781_1_" gradientUnits="userSpaceOnUse" x1="-1099150.375" y1="746128.75" x2="-1098610.75" y2="746128.75" gradientTransform="matrix(7.604398e-03 -1.630665e-02 1.630665e-02 7.604398e-03 -4756.0635 -22966.3691)">
			<stop  offset="0.3233" style="stop-color:#9E2064"/>
			<stop  offset="0.6302" style="stop-color:#C92037"/>
			<stop  offset="0.7514" style="stop-color:#CD2335"/>
			<stop  offset="1" style="stop-color:#E97826"/>
		</linearGradient>
		<path id="path4781" class="st21" d="M-858.9,250.5c-0.6,1.2-1.1,2.3-1.7,3.5c-1.7,3.6-3.5,7.2-5.2,10.9c-1.9,4-3.8,8.1-5.8,12.3
			c-1,2.1-2,4.2-3,6.4c-3,6.5-6,13.2-9.1,20.1c-3.8,8.5-7.6,17.3-11.5,26.5c-3.7,8.7-7.5,17.8-11.3,27.1c-3.6,8.9-7.3,18-11,27.5
			c-3.3,8.4-6.6,17.1-10,26c-0.2,0.4-0.3,0.9-0.5,1.3c-3.3,8.8-6.7,17.9-10.1,27.2c-0.1,0.2-0.2,0.4-0.2,0.6l16.1-1.8
			c-0.3-0.1-0.6-0.1-1-0.2c19.3-2.4,44.9-16.8,61.4-34.6c7.6-8.2,14.5-17.8,20.9-29.1c4.8-8.4,9.2-17.7,13.5-28.1
			c3.7-9,7.3-18.8,10.7-29.4c-4.4,2.3-9.5,4-15.1,5.2c-1,0.2-2,0.4-3,0.6c-1,0.2-2,0.3-3.1,0.5l0,0l0,0l0,0
			c18-6.9,29.3-20.2,37.5-36.6c-4.7,3.2-12.4,7.4-21.6,9.5c-1.2,0.3-2.5,0.5-3.8,0.7c-0.3,0-0.6,0.1-1,0.1l0,0l0,0l0,0l0,0l0,0
			c6.2-2.6,11.5-5.5,16.1-9c1-0.7,1.9-1.5,2.8-2.3c1.4-1.2,2.7-2.5,4-3.8c0.8-0.9,1.6-1.7,2.4-2.6c1.8-2.1,3.5-4.4,5-6.9
			c0.5-0.8,1-1.5,1.4-2.3c0.6-1.2,1.2-2.3,1.7-3.4c2.5-5,4.5-9.5,6.1-13.5c0.8-2,1.5-3.8,2.1-5.5c0.2-0.7,0.5-1.3,0.7-2
			c0.6-1.9,1.2-3.6,1.6-5.1c0.6-2.2,1-4,1.2-5.3l0,0l0,0c-0.6,0.5-1.3,1-2.1,1.4c-5.4,3.2-14.7,6.2-22.2,7.6l14.8-1.6L-806,244
			c-0.1,0-0.2,0-0.3,0.1c-0.7,0.1-1.5,0.2-2.3,0.4c0.1-0.1,0.3-0.1,0.4-0.2l-50.6,5.5C-858.7,250.2-858.8,250.4-858.9,250.5z"/>
		
			<linearGradient id="path4792_1_" gradientUnits="userSpaceOnUse" x1="-1100816.875" y1="747299.5625" x2="-1100277.125" y2="747299.5625" gradientTransform="matrix(7.604398e-03 -1.630665e-02 1.630665e-02 7.604398e-03 -4756.0635 -22966.3691)">
			<stop  offset="0.3233" style="stop-color:#9E2064"/>
			<stop  offset="0.6302" style="stop-color:#C92037"/>
			<stop  offset="0.7514" style="stop-color:#CD2335"/>
			<stop  offset="1" style="stop-color:#E97826"/>
		</linearGradient>
		<path id="path4792" class="st22" d="M-801.9,148.3c-4.5,6.9-9.4,14.8-14.7,23.6c-0.3,0.5-0.6,0.9-0.8,1.4
			c-4.6,7.7-9.4,16.1-14.5,25.4c-4.4,8-9,16.5-13.8,25.8c-4.2,8-8.4,16.5-12.9,25.5l50.6-5.5c14.7-6.8,21.3-12.9,27.7-21.8
			c1.7-2.4,3.4-5,5.1-7.7c5.2-8.1,10.3-17,14.8-25.9c4.4-8.6,8.3-17.1,11.2-24.7c1.9-4.9,3.4-9.4,4.5-13.4c0.9-3.5,1.6-6.8,2.2-10
			C-762.1,144.3-786.2,147.5-801.9,148.3z"/>
		<path id="path4794" class="st2" d="M-834.6,322.7c-1,0.2-2,0.3-3.1,0.5l0,0C-836.7,323-835.7,322.8-834.6,322.7z"/>
		<path id="path4796" class="st3" d="M-834.6,322.7c-1,0.2-2,0.3-3.1,0.5l0,0C-836.7,323-835.7,322.8-834.6,322.7z"/>
		
			<linearGradient id="path4807_1_" gradientUnits="userSpaceOnUse" x1="-1099134.5" y1="747166.5625" x2="-1098594.75" y2="747166.5625" gradientTransform="matrix(7.604398e-03 -1.630665e-02 1.630665e-02 7.604398e-03 -4756.0635 -22966.3691)">
			<stop  offset="0.3233" style="stop-color:#9E2064"/>
			<stop  offset="0.6302" style="stop-color:#C92037"/>
			<stop  offset="0.7514" style="stop-color:#CD2335"/>
			<stop  offset="1" style="stop-color:#E97826"/>
		</linearGradient>
		<path id="path4807" class="st23" d="M-834.6,322.7c-1,0.2-2,0.3-3.1,0.5l0,0C-836.7,323-835.7,322.8-834.6,322.7z"/>
		<path id="path4809" class="st2" d="M-826.6,296.8c0.3,0,0.6-0.1,1-0.1C-825.9,296.7-826.2,296.8-826.6,296.8L-826.6,296.8z"/>
		<path id="path4811" class="st3" d="M-826.6,296.8c0.3,0,0.6-0.1,1-0.1C-825.9,296.7-826.2,296.8-826.6,296.8L-826.6,296.8z"/>
		
			<linearGradient id="path4822_1_" gradientUnits="userSpaceOnUse" x1="-1099101.75" y1="747280.8125" x2="-1098562" y2="747280.8125" gradientTransform="matrix(7.604398e-03 -1.630665e-02 1.630665e-02 7.604398e-03 -4756.0635 -22966.3691)">
			<stop  offset="0.3233" style="stop-color:#9E2064"/>
			<stop  offset="0.6302" style="stop-color:#C92037"/>
			<stop  offset="0.7514" style="stop-color:#CD2335"/>
			<stop  offset="1" style="stop-color:#E97826"/>
		</linearGradient>
		<path id="path4822" class="st24" d="M-826.6,296.8c0.3,0,0.6-0.1,1-0.1C-825.9,296.7-826.2,296.8-826.6,296.8L-826.6,296.8z"/>
		<path id="path4824" class="st2" d="M-826.5,296.8L-826.5,296.8L-826.5,296.8L-826.5,296.8L-826.5,296.8L-826.5,296.8z"/>
		<path id="path4826" class="st3" d="M-826.5,296.8L-826.5,296.8L-826.5,296.8L-826.5,296.8L-826.5,296.8L-826.5,296.8z"/>
		
			<linearGradient id="path4837_1_" gradientUnits="userSpaceOnUse" x1="-1079473.75" y1="744380.0625" x2="-1079473.75" y2="744380.0625" gradientTransform="matrix(7.604398e-03 -1.630665e-02 1.630665e-02 7.604398e-03 -4756.0635 -22966.3691)">
			<stop  offset="0.3233" style="stop-color:#9E2064"/>
			<stop  offset="0.6302" style="stop-color:#C92037"/>
			<stop  offset="0.7514" style="stop-color:#CD2335"/>
			<stop  offset="1" style="stop-color:#E97826"/>
		</linearGradient>
		<path id="path4837" class="st25" d="M-826.5,296.8L-826.5,296.8L-826.5,296.8L-826.5,296.8L-826.5,296.8L-826.5,296.8z"/>
	</g>
</g>
<g id="g4845" transform="translate(385.61463,-191.53704)">
</g>
<g id="g4847" transform="translate(385.61463,-191.53704)">
</g>
<g id="g4849" transform="translate(385.61463,-191.53704)">
</g>
<g id="g4851" transform="translate(385.61463,-191.53704)">
</g>
<g id="g4853" transform="translate(385.61463,-191.53704)">
</g>
<g id="g4855" transform="translate(385.61463,-191.53704)">
</g>
</svg>
