<?xml version="1.0" encoding="utf-8"?>
<!-- Generator: Adobe Illustrator 23.0.0, SVG Export Plug-In . SVG Version: 6.00 Build 0)  -->
<svg version="1.1" id="Слой_1" xmlns="http://www.w3.org/2000/svg" xmlns:xlink="http://www.w3.org/1999/xlink" x="0px" y="0px"
	 viewBox="0 0 224 222.3" style="enable-background:new 0 0 224 222.3;" xml:space="preserve">
<style type="text/css">
	.st0{display:none;fill:#4D77CF;}
	.st1{fill:#4DABCF;}
	.st2{fill:#4D77CF;}
</style>
<g id="Layer_1">
	<path class="st0" d="M255.2,73.8c0.6,0.1,1.1,0.2,1.6,0.4c0.5,0.2,1,0.6,1.4,0.9c0.5,0.5,1,1,1.5,1.6l41.5,52.5
		c-0.2-1.7-0.3-3.3-0.4-4.9s-0.1-3.1-0.1-4.5V73.6h17.9V161h-10.6c-1.4,0-2.7-0.2-4-0.7c-1.2-0.6-2.3-1.5-3.1-2.6l-41.2-52
		c0.1,1.5,0.2,3,0.3,4.5s0.1,2.8,0.1,4.1V161h-17.9V73.6H253C253.7,73.6,254.5,73.7,255.2,73.8z"/>
	<path class="st0" d="M348,98.8v39.5c0,3.1,0.7,5.5,2.1,7.1c1.6,1.7,3.8,2.7,6.2,2.5c2,0,3.9-0.4,5.7-1.3c1.9-0.9,3.6-2.1,5.2-3.5
		V98.8h18.6v62.2h-11.5c-2.1,0.2-4-1.1-4.6-3.1l-1.1-3.6c-1.2,1.1-2.4,2.2-3.7,3.2c-1.3,0.9-2.7,1.7-4.1,2.4
		c-1.5,0.7-3.1,1.2-4.8,1.6c-1.8,0.4-3.7,0.6-5.5,0.6c-3.1,0.1-6.2-0.5-9-1.8c-2.6-1.1-4.8-2.8-6.6-4.9c-1.8-2.2-3.2-4.8-4.1-7.5
		c-0.9-3.1-1.4-6.3-1.4-9.5V98.8H348z"/>
	<path class="st0" d="M397.8,161V98.8h11.5c1,0,2,0.2,2.9,0.8c0.8,0.6,1.4,1.4,1.6,2.3l1,3.4c1-1.1,2.1-2.1,3.2-3
		c1.1-0.9,2.3-1.7,3.6-2.3c2.8-1.4,6-2.2,9.1-2.1c3.4-0.1,6.6,0.9,9.3,2.9c2.5,2,4.5,4.7,5.6,7.8c1-1.8,2.3-3.5,3.8-4.9
		c1.5-1.3,3.1-2.4,4.9-3.3c1.8-0.8,3.6-1.5,5.5-1.9c1.9-0.4,3.9-0.6,5.8-0.6c3.2-0.1,6.4,0.5,9.5,1.6c2.6,1,5,2.6,6.9,4.6
		c1.9,2.1,3.4,4.7,4.2,7.4c1,3.2,1.5,6.6,1.4,10v39.5h-18.6v-39.5c0-6.4-2.8-9.7-8.3-9.6c-2.3-0.1-4.6,0.8-6.3,2.5
		c-1.7,1.6-2.5,4-2.5,7.2V161h-18.6v-39.5c0-3.6-0.7-6.1-2.1-7.5s-3.5-2.1-6.2-2.1c-1.7,0-3.3,0.4-4.8,1.1c-1.6,0.8-3,1.8-4.2,3.1
		v45L397.8,161z"/>
	<path class="st0" d="M518.9,131.8V161h-20.3V73.6h30.8c5.4-0.1,10.7,0.6,15.9,2.2c4,1.2,7.7,3.3,10.9,6c2.8,2.5,5,5.6,6.3,9.1
		c1.4,3.6,2,7.4,2,11.3c0,4.1-0.7,8.2-2.1,12c-1.4,3.6-3.6,6.8-6.4,9.4c-3.2,2.8-6.9,4.8-10.9,6.1c-5.1,1.6-10.3,2.3-15.7,2.2H518.9
		z M518.9,116.5h10.5c5.3,0,9.1-1.3,11.4-3.8s3.5-6,3.5-10.6c0-1.9-0.3-3.7-0.9-5.5c-0.6-1.6-1.5-3-2.7-4.2
		c-1.3-1.2-2.9-2.2-4.6-2.7c-2.1-0.7-4.4-1-6.6-1h-10.5V116.5z"/>
	<path class="st0" d="M600.6,177.1c-0.4,1.1-1.1,2-2,2.7c-1.2,0.7-2.5,1-3.8,0.9h-13.9l12-25.2L568,98.8h16.4c1.2-0.1,2.4,0.3,3.4,1
		c0.8,0.6,1.3,1.4,1.7,2.3l10.2,26.8c0.9,2.4,1.7,4.9,2.3,7.4c0.4-1.3,0.8-2.5,1.3-3.8s0.9-2.5,1.4-3.8l9.2-26.7
		c0.3-1,1-1.8,1.9-2.3c0.9-0.6,1.9-0.9,3-0.9h15L600.6,177.1z"/>
	<polygon class="st1" points="88.4,45.2 51.3,26.4 10.5,46.8 48.6,65.9 	"/>
	<polygon class="st1" points="105.4,53.7 144.3,73.4 103.9,93.7 65.8,74.5 	"/>
	<polygon class="st1" points="157.4,26.7 197.4,46.8 161.6,64.7 122.6,45 	"/>
	<polygon class="st1" points="140.2,18.1 104.2,0 68.6,17.8 105.7,36.5 	"/>
	<polygon class="st1" points="112,173.1 112,222.3 155.7,200.5 155.6,151.3 	"/>
	<polygon class="st1" points="155.6,134.2 155.6,85.5 112,107.2 112,155.8 	"/>
	<polygon class="st1" points="208,125.1 208,174.4 170.8,192.9 170.7,143.8 	"/>
	<polygon class="st1" points="208,107.8 208,59.5 170.7,78 170.7,126.7 	"/>
	<path class="st2" d="M96.6,107.2L67.3,92.4v63.8c0,0-35.9-76.5-39.3-83.3c-0.4-0.9-2.2-1.9-2.6-2.1C18.9,67.4,0,57.8,0,57.8v112.8
		l26.1,14v-59c0,0,35.5,68.3,35.9,69.1s3.9,7.9,7.7,10.5c5.1,3.4,26.8,16.5,26.8,16.5L96.6,107.2z"/>
</g>
</svg>
