<?xml version="1.0" encoding="utf-8"?>
<!-- Generator: Adobe Illustrator 27.0.1, SVG Export Plug-In . SVG Version: 6.00 Build 0)  -->
<svg version="1.1" id="Слой_1" xmlns="http://www.w3.org/2000/svg" xmlns:xlink="http://www.w3.org/1999/xlink" x="0px" y="0px"
	 viewBox="0 0 74.5 74.4" style="enable-background:new 0 0 74.5 74.4;" xml:space="preserve">
<style type="text/css">
	.st0{fill:#00A3E0;}
	.st1{fill:#B9D9EB;}
</style>
<path class="st0" d="M68.2,29.2c-1.2,0-2.3,1-2.3,2.3c0,18.6-15.1,33.7-33.7,33.7c-1.2,0-2.3,1-2.3,2.3s1,2.3,2.3,2.3
	c21.1,0,38.2-17.1,38.2-38.2C70.5,30.2,69.4,29.2,68.2,29.2z"/>
<path class="st1" d="M54.5,43.7c2.2-3.5,4.3-8.3,3.9-14.9c-0.9-13.7-13.3-24.1-25-23c-4.6,0.4-9.3,4.2-8.9,10.9
	c0.2,2.9,1.6,4.6,3.9,6c2.2,1.3,5,2.1,8.3,3c3.9,1.1,8.4,2.3,11.9,4.9C52.7,33.5,55.5,37,54.5,43.7z"/>
<path class="st0" d="M10.4,19.7c-2.2,3.5-4.3,8.3-3.9,14.9c0.9,13.7,13.3,24.1,25,23c4.6-0.4,9.3-4.2,8.9-10.9
	c-0.2-2.9-1.6-4.6-3.9-6c-2.2-1.3-5-2.1-8.3-3c-3.9-1.1-8.4-2.3-11.9-4.9C12.2,29.8,9.4,26.3,10.4,19.7z"/>
</svg>
