<?xml version="1.0" encoding="utf-8"?>
<!-- Generator: Adobe Illustrator 23.0.0, SVG Export Plug-In . SVG Version: 6.00 Build 0)  -->
<svg version="1.1" id="Layer_1" xmlns="http://www.w3.org/2000/svg" xmlns:xlink="http://www.w3.org/1999/xlink" x="0px" y="0px"
	 viewBox="0 0 250 250" style="enable-background:new 0 0 250 250;" xml:space="preserve">
<style type="text/css">
	.st0{display:none;fill:#130754;}
	.st1{fill:#130754;}
	.st2{fill:#FFCA00;}
	.st3{fill:#E70488;}
</style>
<title>Artboard 63</title>
<path class="st0" d="M294.9,158.6c-10.3,0-20.7-4.3-27.3-12.6v45H247V79.9h18.6l0.7,12.2c6.4-9.4,17.7-14.3,28.5-14.3
	c20.7,0,36,17.4,36,40.4S315.6,158.6,294.9,158.6z M288.5,93.1c-12,0-21.8,9.4-21.8,25.2s9.7,25.2,21.8,25.2s21.8-9.4,21.8-25.2
	S300.5,93.1,288.5,93.1z"/>
<path class="st0" d="M408.4,156.5l-0.7-12.2c-6.4,9.4-17.7,14.4-28.5,14.3c-20.7,0-36-17.4-36-40.4s15.2-40.4,36-40.4
	c10.8,0,22.1,5,28.5,14.4l0.7-12.2H427v76.5H408.4z M385.5,93.1c-12,0-21.8,9.4-21.8,25.2s9.7,25.2,21.8,25.2s21.8-9.4,21.8-25.2
	S397.6,93.1,385.5,93.1L385.5,93.1z"/>
<path class="st0" d="M498.9,156.5v-42.3c0-14.9-5.1-19.8-14.5-19.8c-9.8,0-20.4,8.9-20.4,19.5v42.7h-20.6V80h18.8l0.9,14.2
	c5.1-9.8,16.6-16.3,28.4-16.3c20.4,0,28,14.2,28,33.1v45.5L498.9,156.5z"/>
<path class="st0" d="M594.8,156.5l-0.7-12.2c-6.4,9.4-17.7,14.4-28.5,14.4c-20.7,0-36-17.4-36-40.4s15.2-40.4,36-40.4
	c10.3,0,20.7,4.3,27.3,12.6V50.2h20.6v106.3H594.8z M571.9,93.1c-12,0-21.8,9.4-21.8,25.1s9.7,25.2,21.8,25.2s21.8-9.4,21.8-25.1
	S584,93.1,571.9,93.1z"/>
<path class="st0" d="M690.6,156.5l-0.7-12.2c-6.4,9.4-17.7,14.3-28.5,14.3c-20.7,0-36-17.4-36-40.4s15.2-40.4,36-40.4
	c10.8,0,22.2,5,28.5,14.4l0.7-12.2h18.6v76.5L690.6,156.5z M667.8,93.1c-12,0-21.8,9.4-21.8,25.2s9.8,25.1,21.8,25.1
	s21.8-9.4,21.8-25.2S679.8,93.1,667.8,93.1L667.8,93.1z"/>
<path class="st0" d="M754.7,159c-10.8-0.1-21.4-3.1-30.7-8.7l3.4-14.2c6.2,3.7,15.6,8.5,26.9,8.5c8.2,0,13.8-2.5,13.8-8.9
	c0-5.5-5.8-7.4-16.3-9.9c-18.8-4.1-25.5-14-25.5-24.8c0-12.1,9.4-23.4,30.1-23.4c12.6,0,23.6,5.5,26,6.9l-3.4,13.5
	c-6.7-4-14.3-6.2-22.1-6.4c-8.3,0-12.4,2.8-12.4,7.4c0,5.1,5.3,7.4,13.5,9.4c20.2,4.3,28.3,13.6,28.3,23.9
	C786.5,148.9,774.4,159,754.7,159z"/>
<rect x="90.9" y="27.8" class="st1" width="24.1" height="50"/>
<rect x="90.9" y="130.6" class="st1" width="24.1" height="50"/>
<rect x="90.9" y="92.4" class="st2" width="24.1" height="23.6"/>
<rect x="52.2" y="68.9" class="st1" width="24.1" height="166.3"/>
<rect x="128.8" y="171.8" class="st1" width="24.1" height="50"/>
<rect x="128.8" y="69" class="st1" width="24.1" height="50"/>
<rect x="128.8" y="133.6" class="st3" width="24.1" height="23.6"/>
<rect x="166.7" y="14.8" class="st1" width="24.1" height="166.3"/>
</svg>
