<?xml version="1.0" encoding="utf-8"?>
<!-- Generator: Adobe Illustrator 27.0.1, SVG Export Plug-In . SVG Version: 6.00 Build 0)  -->
<svg version="1.1" id="Слой_1" xmlns="http://www.w3.org/2000/svg" xmlns:xlink="http://www.w3.org/1999/xlink" x="0px" y="0px"
	 viewBox="0 0 120 120" style="enable-background:new 0 0 120 120;" xml:space="preserve">
<style type="text/css">
	.st0{fill:#E92063;}
</style>
<path class="st0" d="M119.2,86.6L98,57.3l0,0L63.8,9.8c-1.7-2.4-5.8-2.4-7.5,0L22,57.3l0,0L0.9,86.6c-0.9,1.2-1.1,2.7-0.6,4.1
	c0.5,1.4,1.5,2.5,3,3l55.4,18.1c0,0,0,0,0,0c0.5,0.2,0.9,0.2,1.4,0.2s1-0.1,1.4-0.2c0,0,0,0,0,0l55.4-18.1c1.4-0.5,2.5-1.6,2.9-3
	C120.3,89.4,120,87.8,119.2,86.6L119.2,86.6z M60,20.4l22.2,30.8l-20.8-6.8c-0.2,0-0.3,0-0.5-0.1s-0.3-0.1-0.5-0.1s-0.3-0.1-0.5-0.1
	s-0.3,0.1-0.5,0.1c-0.2,0-0.3,0-0.5,0.1c-0.2,0-0.3,0-0.5,0.1l0,0L38,51.2l-0.1,0L60,20.4L60,20.4z M28.6,63.9L52.8,56l2.6-0.8v46
	L12.1,86.9L28.6,63.9z M64.7,101.1v-46l26.8,8.8l16.6,23L64.7,101.1z"/>
</svg>
