<?xml version="1.0" encoding="utf-8"?>
<!-- Generator: Adobe Illustrator 23.0.0, SVG Export Plug-In . SVG Version: 6.00 Build 0)  -->
<svg version="1.1" id="Слой_1" xmlns="http://www.w3.org/2000/svg" xmlns:xlink="http://www.w3.org/1999/xlink" x="0px" y="0px"
	 viewBox="0 0 744 744" style="enable-background:new 0 0 744 744;" xml:space="preserve">
<style type="text/css">
	.st0{fill:#696969;}
	.st1{fill:#009FE3;}
	.st2{fill:#C7D302;}
	.st3{fill:#F07E16;}
	.st4{fill:#DF2815;}
	.st5{display:none;}
	.st6{display:inline;fill:#696969;}
	.st7{display:inline;fill:#009FE3;}
</style>
<g id="pytest_logo">
	<g id="graphics">
		<path id="horizontal_bar" class="st0" d="M161.1,154.8h431c11.7,0,21.1,9.5,21.1,21.1l0,0c0,11.7-9.5,21.1-21.1,21.1h-431
			c-11.7,0-21.1-9.5-21.1-21.1l0,0C140,164.2,149.4,154.8,161.1,154.8z"/>
		<g id="top_bars">
			<path class="st1" d="M164.8,112h86.7v20h-86.7V112z"/>
			<path class="st2" d="M278.2,112h86.7v20h-86.7V112z"/>
			<path class="st3" d="M390,112h86.7v20H390V112z"/>
			<path class="st4" d="M501.4,112H588v20h-86.7V112z"/>
		</g>
		<g id="bottom_bars">
			<path class="st4" d="M501.4,219H588v146.5h-86.7V219z"/>
			<path class="st3" d="M390,219h86.8v238H390V219z"/>
			<path class="st2" d="M278.2,219h86.7v356.5h-86.7V219z"/>
			<path class="st1" d="M164.8,219h86.7v434.5h-86.7V219z"/>
		</g>
	</g>
	<g id="pytest" class="st5">
		<path class="st6" d="M-107.5,1114.8c-8.5,0-16.3-0.9-23.2-2.8c-7-1.9-13.2-4.4-18.8-7.5c-5.6-3.1-10.5-6.8-14.8-11
			c-4.3-4.2-8.1-8.6-11.4-13.3h-2.6c0.4,4.9,0.9,9.6,1.3,14.1c0.3,3.8,0.6,7.6,0.9,11.6c0.3,4,0.4,7.1,0.4,9.5v101.9h-39.5V871.9
			h32.2l5.6,32.2h1.7c3.3-5.1,7.1-9.8,11.3-14.2c4.2-4.4,9.1-8.3,14.7-11.5c5.6-3.3,11.8-5.9,18.8-7.8c7-2,14.8-2.9,23.5-2.9
			c13.6,0,26,2.6,37.2,7.8c11.2,5.2,20.7,13,28.6,23.4c7.9,10.4,14,23.2,18.4,38.6c4.3,15.4,6.5,33.2,6.5,53.5
			c0,20.4-2.2,38.4-6.5,53.8c-4.3,15.4-10.5,28.4-18.4,38.8c-7.9,10.4-17.4,18.3-28.6,23.6C-81.5,1112.2-93.9,1114.8-107.5,1114.8z
			 M-115.1,900.4c-11,0-20.3,1.7-27.9,5c-7.6,3.3-13.8,8.4-18.5,15.2c-4.7,6.8-8.2,15.3-10.4,25.4c-2.2,10.1-3.5,22.1-3.8,35.9v8.9
			c0,14.6,1,27.6,2.9,39c2,11.4,5.3,20.9,10,28.7s11,13.6,18.8,17.6c7.8,4,17.6,6,29.3,6c19.6,0,33.9-7.9,43.1-23.7
			c9.2-15.8,13.8-38.5,13.8-68c0-30.1-4.6-52.7-13.8-67.6C-80.8,907.8-95.3,900.4-115.1,900.4z"/>
		<path class="st6" d="M9.8,871.9h41.1l46.7,133.2c2,5.8,4.1,11.9,6.2,18.3c2.1,6.4,4.1,12.7,5.9,19.1c1.8,6.4,3.4,12.5,4.7,18.5
			c1.3,5.9,2.2,11.4,2.8,16.5h1.3c0.7-3.6,1.9-8.5,3.5-14.8c1.6-6.2,3.4-12.9,5.3-19.9c2-7,4-13.9,6.1-20.8
			c2.1-6.8,3.9-12.6,5.5-17.4l43.2-132.8H223l-94.3,269.7c-4.1,11.7-8.4,22.3-13.1,31.6c-4.7,9.3-10.2,17.3-16.4,23.8
			c-6.2,6.5-13.5,11.6-21.9,15.1c-8.4,3.5-18.4,5.3-30,5.3c-7.5,0-14.1-0.4-19.6-1.2c-5.5-0.8-10.2-1.6-14.1-2.5v-31.5
			c3,0.7,6.9,1.3,11.5,1.8c4.6,0.5,9.5,0.8,14.6,0.8c7,0,13-0.8,18-2.5s9.5-4.1,13.3-7.3c3.8-3.2,7-7.1,9.7-11.7
			c2.7-4.6,5.1-9.9,7.3-15.9l12.4-34.8L9.8,871.9z"/>
		<path class="st7" d="M335.1,1082.5c2.6,0,5.5-0.1,8.8-0.4c3.3-0.3,6.4-0.7,9.5-1.1s5.8-0.9,8.4-1.5c2.5-0.6,4.5-1.1,5.8-1.5v30
			c-1.9,0.9-4.3,1.7-7.2,2.6c-2.9,0.9-6.1,1.6-9.6,2.3c-3.5,0.7-7.1,1.2-10.9,1.5c-3.8,0.4-7.5,0.5-11.1,0.5c-9,0-17.3-1.2-25-3.5
			c-7.7-2.3-14.3-6.3-19.9-12c-5.6-5.6-10-13.3-13.1-22.9c-3.2-9.6-4.8-21.8-4.8-36.4V901.7h-33.7v-17.6l33.7-16.9l16.9-50h22.8
			v54.8h60v29.8h-60v138.4c0,14.1,2.3,24.6,6.8,31.7C317.1,1078.9,324.6,1082.5,335.1,1082.5z"/>
		<path class="st7" d="M508,1114.8c-15.9,0-30.5-2.7-43.7-8c-13.2-5.4-24.5-13.2-34-23.5c-9.5-10.3-16.8-23-22.1-38.2
			c-5.2-15.2-7.8-32.6-7.8-52.1c0-19.7,2.4-37.3,7.2-52.8c4.8-15.5,11.5-28.6,20.2-39.4c8.7-10.8,19.1-19,31.2-24.7
			c12.1-5.6,25.5-8.5,40.1-8.5c14.3,0,27.2,2.6,38.7,7.7c11.4,5.1,21.1,12.4,29.1,21.7c8,9.3,14.1,20.6,18.4,33.7
			c4.3,13.1,6.4,27.6,6.4,43.6v24.6H441.3c0.7,28,6.6,48.5,17.7,61.7c11.1,13.2,27.6,19.8,49.4,19.8c7.4,0,14.2-0.4,20.5-1.1
			c6.3-0.7,12.4-1.8,18.3-3.2c5.9-1.4,11.6-3.1,17.1-5.2c5.5-2.1,11.1-4.5,16.7-7.1v35.2c-5.8,2.8-11.5,5.1-17.1,7.2
			c-5.6,2-11.3,3.7-17.2,5c-5.9,1.3-12,2.2-18.3,2.8C522.3,1114.6,515.4,1114.8,508,1114.8z M498.2,900.4
			c-16.5,0-29.6,5.6-39.2,16.9c-9.6,11.3-15.2,27.7-16.8,49.3h106.9c0-9.9-1-18.9-2.9-27.1c-2-8.2-5-15.2-9.1-21
			c-4.1-5.8-9.4-10.3-15.8-13.5C514.9,902,507.2,900.4,498.2,900.4z"/>
		<path class="st7" d="M794.6,1045.1c0,11.6-2.1,21.7-6.3,30.4c-4.2,8.7-10.2,16-18.1,21.8c-7.9,5.9-17.4,10.2-28.6,13.1
			c-11.2,2.9-23.7,4.3-37.6,4.3c-15.8,0-29.3-1.3-40.6-3.8c-11.3-2.5-21.2-6.3-29.8-11.2v-36.1c4.5,2.3,9.5,4.6,15,6.8
			s11.3,4.2,17.4,6c6.1,1.7,12.3,3.2,18.8,4.2c6.4,1.1,12.9,1.6,19.2,1.6c9.4,0,17.4-0.8,24-2.4c6.6-1.6,12-3.9,16.1-6.8
			c4.1-3,7.1-6.6,9-10.9c1.9-4.3,2.8-9,2.8-14.2c0-4.5-0.7-8.5-2.2-12.2c-1.4-3.6-4.1-7.2-7.9-10.8c-3.8-3.5-9.1-7.1-15.8-10.8
			s-15.2-7.7-25.6-12.2c-10.4-4.5-19.8-8.9-28.1-13.3c-8.3-4.3-15.4-9.2-21.2-14.6c-5.8-5.4-10.2-11.6-13.4-18.6
			c-3.1-7-4.7-15.4-4.7-25.1c0-10.1,2-19.2,6-27.1c4-7.9,9.6-14.5,16.8-19.9c7.2-5.4,15.9-9.4,26.1-12.2c10.1-2.8,21.4-4.1,33.9-4.1
			c14.1,0,26.9,1.5,38.6,4.6c11.7,3,22.7,7,33.1,12L777.9,916c-9.4-4.2-19.1-7.9-29-11c-9.9-3.1-20-4.7-30.3-4.7
			c-14.8,0-25.7,2.4-32.8,7.3c-7.1,4.9-10.6,11.8-10.6,20.8c0,5.1,0.8,9.5,2.5,13.3c1.7,3.8,4.5,7.3,8.6,10.6
			c4.1,3.3,9.5,6.7,16.3,10.1c6.8,3.4,15.3,7.2,25.4,11.4c10.4,4.3,19.7,8.7,27.9,13c8.2,4.3,15.2,9.2,21,14.7
			c5.8,5.4,10.2,11.6,13.3,18.6C793.1,1027.1,794.6,1035.4,794.6,1045.1z"/>
		<path class="st7" d="M924.8,1082.5c2.6,0,5.5-0.1,8.8-0.4c3.3-0.3,6.4-0.7,9.5-1.1s5.8-0.9,8.4-1.5c2.5-0.6,4.5-1.1,5.8-1.5v30
			c-1.9,0.9-4.3,1.7-7.2,2.6c-2.9,0.9-6.1,1.6-9.6,2.3c-3.5,0.7-7.1,1.2-10.9,1.5c-3.8,0.4-7.5,0.5-11.1,0.5c-9,0-17.3-1.2-25-3.5
			c-7.7-2.3-14.3-6.3-19.9-12c-5.6-5.6-10-13.3-13.1-22.9c-3.2-9.6-4.8-21.8-4.8-36.4V901.7H822v-17.6l33.7-16.9l16.9-50h22.8v54.8
			h60v29.8h-60v138.4c0,14.1,2.3,24.6,6.8,31.7C906.9,1078.9,914.4,1082.5,924.8,1082.5z"/>
	</g>
</g>
</svg>
