<?xml version="1.0" encoding="utf-8"?>
<!-- Generator: Adobe Illustrator 27.0.1, SVG Export Plug-In . SVG Version: 6.00 Build 0)  -->
<svg version="1.1" id="Слой_1" xmlns="http://www.w3.org/2000/svg" xmlns:xlink="http://www.w3.org/1999/xlink" x="0px" y="0px"
	 viewBox="0 0 94.2 94" style="enable-background:new 0 0 94.2 94;" xml:space="preserve">
<style type="text/css">
	.st0{fill:#362D59;}
</style>
<path class="st0" d="M54.7,10.2c-2.4-4-7.6-5.3-11.5-2.9C41.9,8,41,9,40.3,10.2L28.4,30.5c18.4,9.2,30.6,27.5,32,48h-8.3
	c-1.4-17.6-12-33.2-27.9-40.9l-11,19c8.9,4,15.2,12.3,16.6,21.9H10.7C10,78.5,9.4,77.8,9.5,77c0-0.2,0.1-0.4,0.2-0.5l5.3-9
	c-1.8-1.5-3.8-2.7-6.1-3.4l-5.2,9C1.3,77,2.7,82,6.6,84.3c0,0,0.1,0,0.1,0.1c1.2,0.7,2.6,1.1,4.1,1.1h26.2c1-12.2-4.5-24-14.4-31.2
	l4.2-7.2c12.5,8.6,19.6,23.2,18.6,38.4h22.2c1.1-23-10.2-44.8-29.6-57.3l8.4-14.4c0.4-0.7,1.2-0.9,1.9-0.5
	c1,0.5,36.6,62.6,37.2,63.4c0.4,0.7,0.1,1.5-0.5,1.9c-0.2,0.1-0.5,0.2-0.7,0.2h-8.6c0.1,2.3,0.1,4.6,0,6.9h8.6
	c4.6,0,8.3-3.6,8.3-8.2c0,0,0-0.1,0-0.1c0-1.4-0.4-2.9-1.1-4.1L54.7,10.2z"/>
</svg>
