<?xml version="1.0" encoding="utf-8"?>
<!-- Generator: Adobe Illustrator 23.0.0, SVG Export Plug-In . SVG Version: 6.00 Build 0)  -->
<svg version="1.1" id="Слой_1" xmlns="http://www.w3.org/2000/svg" xmlns:xlink="http://www.w3.org/1999/xlink" x="0px" y="0px"
	 viewBox="0 0 1113 1113" style="enable-background:new 0 0 1113 1113;" xml:space="preserve">
<style type="text/css">
	.st0{fill:#0F80CC;}
	.st1{fill:url(#SVGID_1_);}
	.st2{fill:#003B57;}
</style>
<path class="st0" d="M821.6,48.6H134.5c-46,0-83.7,37.7-83.7,83.7V890c0,46,37.7,83.7,83.7,83.7H587
	C581.9,748.5,658.8,311.6,821.6,48.6L821.6,48.6z"/>
<linearGradient id="SVGID_1_" gradientUnits="userSpaceOnUse" x1="1423.0953" y1="1.7561" x2="1423.0953" y2="2.6801" gradientTransform="matrix(721.3655 0 0 761.6777 -1026135.9375 -1248.9951)">
	<stop  offset="0" style="stop-color:#97D9F6"/>
	<stop  offset="0.9202" style="stop-color:#0F80CC"/>
	<stop  offset="1" style="stop-color:#0F80CC"/>
</linearGradient>
<path class="st1" d="M796.6,73H134.5c-32.7,0-59.3,26.6-59.3,59.3v702.4c149.9-57.5,375-107.2,530.6-104.9
	C637.1,566.2,729,245.8,796.6,73L796.6,73z"/>
<path class="st2" d="M981.8,23.8c-47.1-42-104-25.1-160.2,24.8c-8.3,7.4-16.7,15.6-25,24.4c-96.2,102-185.5,291-213.2,435.4
	c10.8,21.9,19.2,49.9,24.8,71.2c1.4,5.5,2.7,10.6,3.7,15c2.4,10.4,3.8,17.1,3.8,17.1s-0.9-3.3-4.4-13.5c-0.7-2-1.4-4.1-2.3-6.6
	c-0.5-1.2-1-2.5-1.5-3.7c-6.3-14.6-23.6-45.4-31.3-58.8c-6.1,17.8-11.8,35.6-17.1,53.6c22.1,40.3,35.5,109.5,35.5,109.5
	s-1.2-4.5-6.7-20.1c-4.9-13.8-29.4-56.8-35.2-66.8c-9.9,36.7-13.9,61.4-10.3,67.4c6.9,11.7,13.5,31.8,19.3,54.1
	c13,50.2,22.1,111.3,22.1,111.3s0.3,4.1,0.8,10.3c-1.8,42.1-0.7,85.8,2.5,125.3c4.3,52.3,12.5,97.2,22.8,121.2l7-3.8
	c-15.2-47.4-21.4-109.4-18.7-181c4.1-109.4,29.3-241.3,75.8-378.8c78.6-207.6,187.6-374.1,287.4-453.7
	c-91,82.1-214.1,348-250.9,446.5C669.2,634.4,640,737.8,622.4,837c30.4-92.9,128.7-132.9,128.7-132.9s48.2-59.5,104.6-144.4
	c-33.8,7.7-89.2,20.9-107.7,28.7c-27.4,11.5-34.8,15.4-34.8,15.4s88.7-54,164.8-78.5C982.6,360.4,1096.6,126.2,981.8,23.8"/>
</svg>
