<?xml version="1.0" encoding="utf-8"?>
<!-- Generator: Adobe Illustrator 27.0.1, SVG Export Plug-In . SVG Version: 6.00 Build 0)  -->
<svg version="1.1" id="Слой_1" xmlns="http://www.w3.org/2000/svg" xmlns:xlink="http://www.w3.org/1999/xlink" x="0px" y="0px"
	 viewBox="0 0 359 359" style="enable-background:new 0 0 359 359;" xml:space="preserve">
<style type="text/css">
	.st0{fill-rule:evenodd;clip-rule:evenodd;fill:#0066FF;}
</style>
<path class="st0" d="M266.4,289.2c50.9,0,92.3-41.4,92.3-92.3c0-25.4-10.8-50-29.2-67.4c-0.4-49.1-40.4-88.9-89.6-88.9
	c-14.3,0-28.2,3.4-40.8,9.8C182.6,34.8,160.7,26,137.7,26c-48.1,0-87.5,38.1-89.5,85.7C19,128,0.6,158.9,0.6,192.7
	c0,51.2,41.6,92.8,92.8,92.8c2.4,0,4.8-0.1,7.3-0.3c17.1,28.8,48.4,46.8,82.2,46.8c32.4,0,62.2-16.3,79.8-43
	C263.9,289.1,265.1,289.2,266.4,289.2z M182.9,307.7c-27.4,0-52.6-16-64.4-40.8l-4-8.4l-9.1,1.6c-3.9,0.7-7.9,1-12,1
	c-37.7,0-68.4-30.7-68.4-68.4c0-26.9,15.8-51.4,40.4-62.4l7.6-3.4l-0.4-8.3c0-1-0.1-2-0.1-3c0-36,29.3-65.2,65.2-65.2
	c19.4,0,37.5,8.5,50,23.3l7,8.3l9.1-6.1c10.8-7.2,23.2-11,36.2-11c36,0,65.2,29.3,65.2,65.2c0,1.3,0,2.6-0.1,3.9l-0.4,6.2l4.8,3.9
	c15.6,12.8,24.9,32.5,24.9,52.6c0,37.5-30.5,68-68,68c-2.9,0-5.8-0.2-8.7-0.6l-8.3-1.1l-4,7.3C232.9,293.5,209,307.7,182.9,307.7z
	 M229.1,210.2l0.2-0.1c3.2-1.4,4.3-2.6,4.3-5.9v-4.1c0-3.6-2.1-6-5.5-6H228l-0.7,0.2c-7.7,2.7-15.2,4.1-22.4,4.1s-14.2-1.4-21-4
	l-0.2-0.1l-0.8-0.1c-3.4,0-5.5,2.3-5.5,6v4.1c0,3.1,1.2,4.5,3.9,5.7c0.1,0.1,0.2,0.1,0.3,0.1s0.1,0.1,0.3,0.1
	c7.4,3.2,15.2,4.8,23,4.8C212.7,215,220.9,213.4,229.1,210.2z M123.5,176.1c0-3.3,1.7-5.2,4.1-5.7l22.4-5.9l-22.5-5.9
	c-2.3-0.6-4-2.4-4-5.7V146c0-3.1,1.9-4.4,4-4.4c0.7,0,1.4,0.1,2.1,0.4l40,12.9c3,1,4.7,3.4,4.7,6.8v5.8c0,3.3-1.7,5.8-4.7,6.8
	l-40.1,13c-0.7,0.2-1.3,0.3-1.9,0.3c-2.5,0-4.1-1.8-4.1-4.4V176.1z"/>
</svg>
