<?xml version="1.0" encoding="utf-8"?>
<!-- Generator: Adobe Illustrator 27.0.1, SVG Export Plug-In . SVG Version: 6.00 Build 0)  -->
<svg version="1.1" id="Слой_1" xmlns="http://www.w3.org/2000/svg" xmlns:xlink="http://www.w3.org/1999/xlink" x="0px" y="0px"
	 viewBox="0 0 2433 2500" style="enable-background:new 0 0 2433 2500;" xml:space="preserve">
<style type="text/css">
	.st0{fill:#2196F3;}
</style>
<path class="st0" d="M1455.6,1261.5l368.2-635.7l177.9,635.7l-177.9,635.6L1455.6,1261.5L1455.6,1261.5z M1276.2,1364.7l368.2,635.6
	l-641.3-164.3l-463.2-471.3H1276.2z M1644.4,522.5l-368.2,635.7H539.9l463.2-471.3L1644.4,522.5z M2169.9,1045.2l-224.5-835.6
	L1107,433.5L982.9,651.7L731.1,650l-613.6,611.6l613.6,611.6l0,0l251.7-1.9l124.3,218.2l838.2,223.9l224.6-835.4l-127.6-216.4
	L2169.9,1045.2L2169.9,1045.2z"/>
</svg>
