<?xml version="1.0" encoding="utf-8"?>
<!-- Generator: Adobe Illustrator 27.0.1, SVG Export Plug-In . SVG Version: 6.00 Build 0)  -->
<svg version="1.1" id="Слой_1" xmlns="http://www.w3.org/2000/svg" xmlns:xlink="http://www.w3.org/1999/xlink" x="0px" y="0px"
	 viewBox="0 0 25.6 25.6" style="enable-background:new 0 0 25.6 25.6;" xml:space="preserve">
<path d="M12.8,0.8c-6.6,0-12,5.4-12,12s5.4,12,12,12s12-5.4,12-12S19.4,0.8,12.8,0.8z M12.8,2.6c5.6,0,10.1,4.5,10.1,10.1
	s-4.5,10.1-10.1,10.1s-10.2-4.4-10.2-10c0-2.8,1.1-5.3,3-7.2C7.5,3.8,10,2.6,12.8,2.6L12.8,2.6L12.8,2.6z M12.8,5.4
	c-4.4,0.8-8.3,4.8-8.3,9.2c2.1-3.8,3.6-4.1,4-4.1s0.6,0.2,0.6,0.7v5.7c0,0.7-1.4,0.6-1.8,0.5c1.7,2.5,5.5,2.8,5.5,2.8l1.8-1.8
	l1.8,0.9c2.9-1.3,4.6-4.2,4.6-4.6c-0.7,0.9-1.6,1.5-2.7,1.8l0,0c-0.2,0-0.9-0.1-0.9-0.5V9.3c0-0.6,1.3-2.4,1.8-3
	c-3.3,0.9-4.3,2.4-4.3,2.4s-0.3-0.5-1.2-0.5c0.5,0.5,0.8,1.1,0.9,1.8l0,0v5.7c-0.5,0.4-1.1,0.7-1.8,0.8l0,0c-0.6,0-1-0.3-1-0.8
	c0-0.5,0-6.6,0-6.6s-0.9,0.3-0.9-1.6C11,6.6,12.8,5.4,12.8,5.4L12.8,5.4z"/>
</svg>
