<?xml version="1.0" encoding="utf-8"?>
<!-- Generator: Adobe Illustrator 23.0.0, SVG Export Plug-In . SVG Version: 6.00 Build 0)  -->
<svg version="1.1" id="Слой_1" xmlns="http://www.w3.org/2000/svg" xmlns:xlink="http://www.w3.org/1999/xlink" x="0px" y="0px"
	 viewBox="0 0 24 24" style="enable-background:new 0 0 24 24;" xml:space="preserve">
<path d="M12,0C5.4,0,0,5.4,0,12s5.4,12,12,12s12-5.4,12-12S18.6,0,12,0z M12,1.8c5.6,0,10.1,4.5,10.1,10.1c0,5.6-4.5,10.1-10.1,10.1
	S1.8,17.6,1.8,12c0-2.8,1.1-5.3,3-7.2C6.7,3,9.2,1.8,12,1.8L12,1.8L12,1.8z M12,4.6c-4.4,0.8-8.3,4.8-8.3,9.2c2.1-3.8,3.6-4.1,4-4.1
	c0.4,0,0.6,0.2,0.6,0.7v5.7c0,0.7-1.4,0.6-1.8,0.5c1.7,2.5,5.5,2.8,5.5,2.8l1.8-1.8l1.8,0.9c2.9-1.3,4.6-4.2,4.6-4.6
	c-0.7,0.9-1.6,1.5-2.7,1.8l0,0c-0.2,0-0.9-0.1-0.9-0.5V8.5c0-0.6,1.3-2.4,1.8-3c-3.3,0.9-4.3,2.4-4.3,2.4s-0.3-0.5-1.2-0.5
	c0.5,0.5,0.8,1.1,0.9,1.8l0,0v5.7c-0.5,0.4-1.1,0.7-1.8,0.8l0,0c-0.6,0-1-0.3-1-0.8s0-6.6,0-6.6s-0.9,0.3-0.9-1.6
	C10.2,5.8,12,4.6,12,4.6L12,4.6z"/>
</svg>
