<?xml version="1.0" encoding="utf-8"?>
<!-- Generator: Adobe Illustrator 27.0.1, SVG Export Plug-In . SVG Version: 6.00 Build 0)  -->
<svg version="1.1" id="Слой_1" xmlns="http://www.w3.org/2000/svg" xmlns:xlink="http://www.w3.org/1999/xlink" x="0px" y="0px"
	 viewBox="0 0 24 24" style="enable-background:new 0 0 24 24;" xml:space="preserve">
<style type="text/css">
	.st0{fill:#1C7FD7;}
	.st1{fill:#FFFFFF;}
</style>
<path class="st0" d="M20.1,22.1H3.9c-1.1,0-2-0.9-2-2V3.9c0-1.1,0.9-2,2-2h16.2c1.1,0,2,0.9,2,2v16.2C22.1,21.2,21.2,22.1,20.1,22.1
	z"/>
<path class="st1" d="M17.3,19.3H6.7c-1.1,0-2-0.9-2-2V6.7c0-1.1,0.9-2,2-2h10.7c1.1,0,2,0.9,2,2v10.7C19.3,18.4,18.4,19.3,17.3,19.3
	z"/>
<path class="st0" d="M16.7,13.1C16.7,13.1,16.7,13.1,16.7,13.1c-0.3,0.4-0.7,0.7-0.7,0.7c-0.7,0.6-1.4,0.8-1.9,0.9
	c-0.2,0-0.5,0.1-0.8,0c-0.4-0.1-0.6-0.2-1-0.5c-0.5-0.3-0.5-0.4-0.9-0.6c-0.2-0.1-0.4-0.2-0.8-0.2c-0.6-0.1-1.1,0.1-1.3,0.2
	c-0.3,0.1-0.6,0.3-1.1,0.6c-0.4,0.2-0.6,0.4-0.8,0.6V11C8.2,9.6,9.8,9.4,10,9.4c0.2,0,0.5,0,0.8,0c0.6,0.1,1.1,0.5,1.4,0.6
	c0.3,0.2,0.4,0.3,0.7,0.5c0.1,0,0.3,0.1,0.7,0.1c0.6,0.1,1.7-0.5,1.7-0.5c0.4-0.2,0.8-0.5,1.4-0.9C16.7,10.5,16.7,11.8,16.7,13.1z"
	/>
</svg>
