<?xml version="1.0" encoding="utf-8"?>
<!-- Generator: Adobe Illustrator 27.0.1, SVG Export Plug-In . SVG Version: 6.00 Build 0)  -->
<svg version="1.1" id="Слой_1" xmlns="http://www.w3.org/2000/svg" xmlns:xlink="http://www.w3.org/1999/xlink" x="0px" y="0px"
	 viewBox="0 0 65.1 65.1" style="enable-background:new 0 0 65.1 65.1;" xml:space="preserve">
<style type="text/css">
	.st0{fill-rule:evenodd;clip-rule:evenodd;fill:#999999;}
	.st1{fill:#00CC99;}
	.st2{fill:none;}
</style>
<g>
	<path class="st0" d="M61.7,12.7C59.7,23,51,27.9,36.7,28.5c2.3,1.3,9.8,0.7,17.7-1.9c-5.7,5.2-10,10.9-18.1,14.7
		c1.2,0.4,3.4,0.4,5.3,0.5c-4.6,4.2-11.6,6.9-20.3,8.3c1.1,1.1,4.2,0.4,7.5,1.1l-8.3,2.3l0.3,0.1h-3.4c2.4-5.9,5.1-11.5,8.4-16.7
		c8.1-13,19.1-22.2,33.7-27.3c-1.4,0-2.7,0.2-4,0.6c-4.8,1.2-9.8,4.4-13.8,7.3c-7.4,5.3-12.9,11.7-17.8,19.4
		c-3.8,6-6.2,11.2-8.2,16.8h-2.9l-1.1-1.7v-2.7l0.4,0.1l-0.4-1.1v-1.9l1,0.3c-1.6-6.3,0.4-11,3.8-15.3c-0.8,5.5-0.9,10.2-0.1,14
		c-0.5-10.8,2.4-24,14.9-30.5c-0.9,3.2-1.6,6.5-1.6,10.1C33.5,12.7,34,8.7,44,4l-3.1,7.7c0.8-1.4,1.8-2.6,2.5-3.9
		c3.4-6.2,16.2-5.3,18.1,1.7C61.8,10.6,61.9,11.6,61.7,12.7z"/>
</g>
<path class="st1" d="M53.7,6.4H11.5c-2.8,0-5,2.2-5,5v42.2c0,2.8,2.2,5,5,5h42.2c2.8,0,5-2.2,5-5V11.4C58.7,8.7,56.4,6.4,53.7,6.4z
	 M53.6,48.6c0,2.8-2.2,5-5,5H16.5c-2.8,0-5-2.2-5-5V16.5c0-2.8,2.2-5,5-5h32.1c2.8,0,5,2.2,5,5V48.6z"/>
<g>
	<path class="st0" d="M16.3,31.4c-0.5,3.2-0.7,6.3-0.6,9h-3.6C12.5,37,14.2,34.1,16.3,31.4z"/>
	<path class="st0" d="M61.7,12.7C59.7,23,51,27.9,36.7,28.5c2.3,1.3,9.8,0.7,17.7-1.9c-5.7,5.2-10,10.9-18.1,14.7
		c1.2,0.4,3.4,0.4,5.3,0.5c-2.2,2-4.9,3.7-8.1,5v-6.4h-9.8c0.6-1.2,1.3-2.3,2-3.4c8.1-13,19.1-22.2,33.7-27.3c-1.4,0-2.7,0.2-4,0.6
		c-4.8,1.2-9.8,4.4-13.8,7.3c-7.4,5.3-12.9,11.7-17.8,19.4c-0.8,1.2-1.5,2.4-2.1,3.5h-5.4c0.5-9.6,4.2-20,14.8-25.5
		c-0.9,3.2-1.6,6.5-1.6,10.1C33.5,12.7,34,8.7,44,4l-3.1,7.7c0.8-1.4,1.8-2.6,2.5-3.9c3.4-6.2,16.2-5.3,18.1,1.7
		C61.8,10.6,61.9,11.6,61.7,12.7z"/>
</g>
<line class="st2" x1="16.2" y1="40.3" x2="15.7" y2="40.3"/>
</svg>
