<?xml version="1.0" encoding="utf-8"?>
<!-- Generator: Adobe Illustrator 27.0.1, SVG Export Plug-In . SVG Version: 6.00 Build 0)  -->
<svg version="1.1"
	 id="Слой_1" text-rendering="geometricPrecision" image-rendering="optimizeQuality" shape-rendering="geometricPrecision"
	 xmlns="http://www.w3.org/2000/svg" xmlns:xlink="http://www.w3.org/1999/xlink" x="0px" y="0px" viewBox="0 0 1500 1500"
	 style="enable-background:new 0 0 1500 1500;" xml:space="preserve">
<style type="text/css">
	.st0{fill-rule:evenodd;clip-rule:evenodd;fill:url(#SVGID_1_);}
	.st1{fill-rule:evenodd;clip-rule:evenodd;fill:#117BCA;}
	.st2{fill-rule:evenodd;clip-rule:evenodd;fill:#2A74B1;}
	.st3{fill-rule:evenodd;clip-rule:evenodd;fill:#7CCAEB;}
	.st4{fill-rule:evenodd;clip-rule:evenodd;fill:#05A1E6;}
	.st5{fill-rule:evenodd;clip-rule:evenodd;fill:url(#SVGID_00000085937036817674321550000006237827682121903517_);}
	.st6{fill-rule:evenodd;clip-rule:evenodd;fill:url(#SVGID_00000049207466613739436330000016826363227251282088_);}
	.st7{fill-rule:evenodd;clip-rule:evenodd;fill:url(#SVGID_00000061465043601000948980000009025812970566875571_);}
	.st8{fill-rule:evenodd;clip-rule:evenodd;fill:#0C82CA;}
	.st9{fill-rule:evenodd;clip-rule:evenodd;fill:#11599E;}
	.st10{fill-rule:evenodd;clip-rule:evenodd;fill:#5DC4ED;}
	.st11{fill-rule:evenodd;clip-rule:evenodd;fill:url(#SVGID_00000167396961821924923100000002609481914910778038_);}
	.st12{fill-rule:evenodd;clip-rule:evenodd;fill:url(#SVGID_00000055685908195268516780000004140906808933124268_);}
	.st13{fill-rule:evenodd;clip-rule:evenodd;fill:#13549A;}
	.st14{fill-rule:evenodd;clip-rule:evenodd;fill:url(#SVGID_00000046299360429409823960000009989501240117452169_);}
	.st15{fill-rule:evenodd;clip-rule:evenodd;fill:url(#SVGID_00000125567310452410368480000006325483049858213283_);}
	.st16{fill-rule:evenodd;clip-rule:evenodd;fill:url(#SVGID_00000098219235820533063530000005388115189554583681_);}
	.st17{fill-rule:evenodd;clip-rule:evenodd;fill:url(#SVGID_00000167369995304916701090000009001597375495614138_);}
	.st18{fill-rule:evenodd;clip-rule:evenodd;fill:#165EAA;}
	.st19{fill-rule:evenodd;clip-rule:evenodd;fill:#079AE1;}
	.st20{fill-rule:evenodd;clip-rule:evenodd;fill:url(#SVGID_00000050624228461140489550000009831704011945991082_);}
	.st21{fill-rule:evenodd;clip-rule:evenodd;fill:#1869BC;}
	.st22{fill-rule:evenodd;clip-rule:evenodd;fill:url(#SVGID_00000112634259671380120730000006801311603747317167_);}
	.st23{fill-rule:evenodd;clip-rule:evenodd;fill:url(#SVGID_00000180336980635511046780000000524835025280285836_);}
	.st24{fill-rule:evenodd;clip-rule:evenodd;fill:#2F91C3;}
</style>
<g id="Нашивка">
	
		<linearGradient id="SVGID_1_" gradientUnits="userSpaceOnUse" x1="647.8221" y1="1481.8376" x2="647.8221" y2="972.694" gradientTransform="matrix(1.1208 0 0 -1.1208 25.2419 2052.3896)">
		<stop  offset="0" style="stop-color:#325D9F"/>
		<stop  offset="0.3882" style="stop-color:#3698D3"/>
		<stop  offset="0.4" style="stop-color:#3698D3"/>
		<stop  offset="0.8392" style="stop-color:#3583BF"/>
		<stop  offset="0.8392" style="stop-color:#3583BF"/>
		<stop  offset="1" style="stop-color:#3583BF"/>
	</linearGradient>
	<path class="st0" d="M175.9,962.2h5.1c20,0,131.3-11.2,173.8-115.6c33.5-82.3,49.8-144.9,67.7-205.7c30-42.7,62.3-83.7,98-122
		c3.6-3.9,7.4-7.8,11.2-11.6c27.6,91.4,66.1,302.6,124.8,387.6c26.7,38.7,61.6,54.4,99.2,54.8l2.8,0l107.3,0l16.5,0l112.7,0h0
		l41.4,0c0,0,0,0,0,0c38.6,0,89.1-30.8,145.1-94.8c72.7-83,229-357.9,288-463.5h-75.4H1375h-121.9c-106.5,0-166.8,51.8-201.5,164.8
		C1040.6,592,993,748.9,956,846.2c-9.1-27.3-15.6-53.8-20.4-70.8c-30.6-107.6-60.7-241.9-83.5-281.3c-45.2-78.3-72-90.9-121.4-91
		l-9.7,0h0l-44.7,0l-8.8,0l-70.7,0l-160.4-0.1l-6.3,0l-4.1,0c-27.4,0.6-59.6,12.7-96.9,39c-89.5,63-201.5,203.7-296.2,520.2h16.7
		h43.9L175.9,962.2L175.9,962.2z"/>
	<path class="st1" d="M511.6,439.1c-2.3,2.5-4.7,5.1-7,7.9c3.9,5.7,7.6,11.9,11,18.6c4.1-3.2,8.2-6.3,12.3-9.3
		C522.8,450.3,517.3,444.5,511.6,439.1L511.6,439.1z"/>
	<path class="st2" d="M527.9,456.4c-4.1,3-8.2,6-12.3,9.3c2.5,4.9,4.9,10,7.1,15.4c2.9,7,5.9,15.8,9,26.3
		c6.3-6.3,12.8-12.4,19.6-18.4C544.3,477.5,536.5,466.5,527.9,456.4L527.9,456.4z"/>
	<path class="st3" d="M511.6,439.1c3.8-4.1,7.7-7.7,11.6-10.9c-24.7-16.5-52.3-23.7-86.9-25.1l-6.3,0c3.8,0.1,7.4,0.4,11,0.9
		c19.8,1.4,36.9,9.4,51.1,19.3C499,428.1,505.5,433.4,511.6,439.1L511.6,439.1z"/>
	<path class="st4" d="M93.5,962.2c5.8-45.5,14.2-89.6,24.9-131.7c-24.6,48.3-48.2,94.1-68.8,131.7H93.5z"/>
	
		<linearGradient id="SVGID_00000011014731522760059020000009914020152173041306_" gradientUnits="userSpaceOnUse" x1="240.6286" y1="1019.2158" x2="240.6286" y2="1391.3829" gradientTransform="matrix(1.1208 0 0 -1.1208 25.2419 2052.3896)">
		<stop  offset="0" style="stop-color:#2B5195"/>
		<stop  offset="0.4902" style="stop-color:#338AC6"/>
		<stop  offset="0.502" style="stop-color:#338AC6"/>
		<stop  offset="0.9098" style="stop-color:#5CB0DE"/>
		<stop  offset="1" style="stop-color:#5CB0DE"/>
	</linearGradient>
	<path style="fill-rule:evenodd;clip-rule:evenodd;fill:url(#SVGID_00000011014731522760059020000009914020152173041306_);" d="
		M428,547.9c-80.4,85-218.9,318.6-252.1,414.4c28.2-7.5,62.8-18.6,86.8-60.8c25.8-45.3,52.4-90.2,79.3-135.3
		c25.4-42.6,51.9-84.7,80.4-125.2c13-44.3,27-87.7,49-137C457.7,517.2,443.3,531.8,428,547.9L428,547.9z M350.6,440.8
		c-99.3,64.3-186.5,208.8-232.2,389.7C186.4,697,262.4,544.3,303.2,491.8C319.8,470.4,335.6,453.7,350.6,440.8L350.6,440.8z"/>
	
		<linearGradient id="SVGID_00000019651694114707009330000010248570307010549123_" gradientUnits="userSpaceOnUse" x1="188.9506" y1="1127.6096" x2="188.9506" y2="1317.5076" gradientTransform="matrix(1.1208 0 0 -1.1208 25.2419 2052.3896)">
		<stop  offset="0" style="stop-color:#338AC6"/>
		<stop  offset="1" style="stop-color:#338AC6"/>
	</linearGradient>
	<path style="fill-rule:evenodd;clip-rule:evenodd;fill:url(#SVGID_00000019651694114707009330000010248570307010549123_);" d="
		M342.1,766.2c-26.9,45.1-53.5,89.9-79.3,135.3c-24,42.2-58.6,53.3-86.8,60.8h5.1c20,0,131.3-11.2,173.8-115.6
		c33.5-82.3,49.8-144.9,67.7-205.7C394,681.5,367.5,723.5,342.1,766.2L342.1,766.2z M49.6,962.2c20.5-37.7,44.1-83.4,68.8-131.7
		c45.8-180.8,132.9-325.3,232.2-389.7c34.6-29.6,64.9-38.7,90.5-36.8c-3.6-0.5-7.2-0.8-11-0.9l-4.1,0c-27.4,0.6-59.6,12.7-96.9,39
		c-89.5,63-201.5,203.7-296.2,520.2L49.6,962.2L49.6,962.2z"/>
	
		<linearGradient id="SVGID_00000019659424405033058730000003932357354997400492_" gradientUnits="userSpaceOnUse" x1="354.4234" y1="1337.556" x2="451.8752" y2="1337.556" gradientTransform="matrix(1.1208 0 0 -1.1208 25.2419 2052.3896)">
		<stop  offset="0" style="stop-color:#1CAAE4"/>
		<stop  offset="1" style="stop-color:#199CCB"/>
	</linearGradient>
	<path style="fill-rule:evenodd;clip-rule:evenodd;fill:url(#SVGID_00000019659424405033058730000003932357354997400492_);" d="
		M471.5,504c-22.1,49.3-36,92.6-49,137c30-42.7,62.3-83.7,98-122c3.6-3.9,7.4-7.8,11.2-11.6c-3.2-10.5-6.2-19.3-9-26.3
		c-2.2-5.4-4.6-10.5-7.1-15.4C501.3,476.8,486.7,489.5,471.5,504L471.5,504z"/>
	<path class="st8" d="M471.5,504c15.2-14.5,29.8-27.2,44.1-38.4c-3.4-6.7-7.1-12.9-11-18.6c-10,12.2-19.6,27.7-28.7,47.2
		C474.4,497.6,473,500.8,471.5,504L471.5,504z"/>
	<path class="st8" d="M441.1,404c26,3.8,47,19.1,63.5,43.1c2.3-2.8,4.6-5.5,7-7.9c-6.1-5.7-12.5-11-19.4-15.8
		C478,413.3,460.9,405.4,441.1,404L441.1,404z"/>
	<path class="st9" d="M527.9,456.4c8.6,10.2,16.4,21.1,23.4,32.6c5.8-5.2,11.8-10.2,17.9-15.1c-2.9-4-5.8-7.8-8.6-11.2
		c-5.4-6.4-10.8-12.2-16.2-17.4C538.9,448.7,533.4,452.4,527.9,456.4L527.9,456.4z"/>
	<path class="st10" d="M527.9,456.4c5.5-3.9,10.9-7.7,16.4-11.2c-6.9-6.5-13.9-12.2-21.1-17c-3.9,3.2-7.8,6.9-11.6,10.9
		C517.3,444.5,522.8,450.3,527.9,456.4z"/>
	
		<linearGradient id="SVGID_00000032631902667279725440000006015202496200854179_" gradientUnits="userSpaceOnUse" x1="388.258" y1="1496.2924" x2="497.3588" y2="1442.4316" gradientTransform="matrix(1.1208 0 0 -1.1208 25.2419 2052.3896)">
		<stop  offset="0" style="stop-color:#6FC2E3"/>
		<stop  offset="0.702" style="stop-color:#31AFE1"/>
		<stop  offset="1" style="stop-color:#31AFE1"/>
	</linearGradient>
	<path style="fill-rule:evenodd;clip-rule:evenodd;fill:url(#SVGID_00000032631902667279725440000006015202496200854179_);" d="
		M436.4,403.1c34.5,1.4,62.1,8.6,86.9,25.1c24.2-19.9,49.6-24.8,73.5-25.1L436.4,403.1L436.4,403.1z"/>
	
		<linearGradient id="SVGID_00000127032470579943620360000011361809691753538207_" gradientUnits="userSpaceOnUse" x1="457.1573" y1="1437.7936" x2="553.0589" y2="1482.8828" gradientTransform="matrix(1.1208 0 0 -1.1208 25.2419 2052.3896)">
		<stop  offset="0" style="stop-color:#51B9E2"/>
		<stop  offset="1" style="stop-color:#33A2DC"/>
	</linearGradient>
	<path style="fill-rule:evenodd;clip-rule:evenodd;fill:url(#SVGID_00000127032470579943620360000011361809691753538207_);" d="
		M596.8,403.2c-24,0.3-49.4,5.1-73.5,25.1c7.2,4.8,14.2,10.5,21.1,17c38.3-24.5,76.7-37.7,123.2-42L596.8,403.2L596.8,403.2z"/>
	<path class="st13" d="M667.5,403.2c-46.5,4.3-84.9,17.6-123.2,42c5.5,5.2,10.9,11,16.2,17.4c2.9,3.4,5.8,7.2,8.6,11.2
		c30-24,63-44.3,94.7-56.9c11.8-4.7,23.4-8.3,34.7-10.7c-7.9-1.9-15.4-2.7-22.3-3.1L667.5,403.2L667.5,403.2z"/>
	
		<linearGradient id="SVGID_00000071560685803666742700000013252364308709956786_" gradientUnits="userSpaceOnUse" x1="632.8092" y1="1430.1801" x2="632.8092" y2="1025.139" gradientTransform="matrix(1.1208 0 0 -1.1208 25.2419 2052.3896)">
		<stop  offset="0" style="stop-color:#325D9F"/>
		<stop  offset="0.3882" style="stop-color:#3698D3"/>
		<stop  offset="0.4" style="stop-color:#3698D3"/>
		<stop  offset="0.8392" style="stop-color:#3583BF"/>
		<stop  offset="0.8392" style="stop-color:#3583BF"/>
		<stop  offset="1" style="stop-color:#3583BF"/>
	</linearGradient>
	<path style="fill-rule:evenodd;clip-rule:evenodd;fill:url(#SVGID_00000071560685803666742700000013252364308709956786_);" d="
		M663.9,416.9c45.3,27.7,72.6,70.3,106.5,163.3c30.7,84,53.5,183.9,85,246.6c13.6,27,27.2,50.2,41.9,68.9c6.9-4.9,13.7-10,20.3-15.3
		c-38.7-85.6-79-347.6-156.8-434.3c-22.1-24.6-43.3-35.4-62.2-40C687.4,408.6,675.7,412.2,663.9,416.9L663.9,416.9z M728.3,830.2
		c-38.6-68.4-98.7-272.1-159.1-356.4c-6.1,4.9-12.1,9.9-17.9,15.1c33.1,54.1,49.4,118.4,61.6,155.9
		c17.7,54.6,60.1,267.5,174.8,301.9c10.9-2.1,21.9-5.3,32.9-9.3C790.6,921.2,760.9,888.1,728.3,830.2L728.3,830.2z"/>
	
		<linearGradient id="SVGID_00000175289032804431934840000015748597131732011919_" gradientUnits="userSpaceOnUse" x1="715.6403" y1="1045.6029" x2="715.6403" y2="1471.457" gradientTransform="matrix(1.1208 0 0 -1.1208 25.2419 2052.3896)">
		<stop  offset="0" style="stop-color:#34579A"/>
		<stop  offset="0.502" style="stop-color:#1CAAE4"/>
		<stop  offset="1" style="stop-color:#1CAAE4"/>
	</linearGradient>
	<path style="fill-rule:evenodd;clip-rule:evenodd;fill:url(#SVGID_00000175289032804431934840000015748597131732011919_);" d="
		M760.8,446.2c77.8,86.6,118.1,348.6,156.8,434.3c13.3-10.6,25.9-21.9,37.5-33.4c0.3-0.3,0.6-0.6,0.9-0.9
		c-9.1-27.3-15.6-53.8-20.4-70.8c-30.6-107.6-60.7-241.9-83.5-281.3c-45.2-78.3-72-90.9-121.4-91l-9.7,0c-7.2,0.4-14.7,1.4-22.4,3
		C717.5,410.8,738.7,421.6,760.8,446.2L760.8,446.2z"/>
	
		<linearGradient id="SVGID_00000157310346807698867860000000168665460639256202_" gradientUnits="userSpaceOnUse" x1="566.0511" y1="1394.983" x2="566.0511" y2="983.8405" gradientTransform="matrix(1.1208 0 0 -1.1208 25.2419 2052.3896)">
		<stop  offset="0" style="stop-color:#377EBB"/>
		<stop  offset="0.3412" style="stop-color:#42B6E6"/>
		<stop  offset="0.349" style="stop-color:#42B6E6"/>
		<stop  offset="0.8392" style="stop-color:#376AA9"/>
		<stop  offset="0.8392" style="stop-color:#376AA9"/>
		<stop  offset="1" style="stop-color:#376AA9"/>
	</linearGradient>
	<path style="fill-rule:evenodd;clip-rule:evenodd;fill:url(#SVGID_00000157310346807698867860000000168665460639256202_);" d="
		M787.6,946.7c-114.7-34.4-157-247.3-174.8-301.9c-12.2-37.5-28.4-101.8-61.6-155.9c-6.8,6-13.3,12.1-19.6,18.4
		c27.6,91.4,66.1,302.6,124.8,387.6c26.7,38.7,61.6,54.4,99.2,54.8l2.8,0C768.1,949.6,777.8,948.6,787.6,946.7L787.6,946.7z"/>
	
		<linearGradient id="SVGID_00000101816297673014219360000005389776804363747739_" gradientUnits="userSpaceOnUse" x1="632.5742" y1="1461.4718" x2="632.5742" y2="993.0588" gradientTransform="matrix(1.1208 0 0 -1.1208 25.2419 2052.3896)">
		<stop  offset="0" style="stop-color:#1F3E6A"/>
		<stop  offset="0.3804" style="stop-color:#3476B4"/>
		<stop  offset="0.3882" style="stop-color:#3476B4"/>
		<stop  offset="0.7804" style="stop-color:#244A87"/>
		<stop  offset="0.7804" style="stop-color:#244A87"/>
		<stop  offset="1" style="stop-color:#244A87"/>
	</linearGradient>
	<path style="fill-rule:evenodd;clip-rule:evenodd;fill:url(#SVGID_00000101816297673014219360000005389776804363747739_);" d="
		M820.5,937.4c26.3-9.6,52.4-24.3,76.9-41.6c-14.7-18.7-28.4-41.8-41.9-68.9c-31.5-62.7-54.3-162.6-85-246.6
		c-34-93-61.2-135.7-106.5-163.3c-31.8,12.6-64.7,32.9-94.7,56.9c60.4,84.3,120.4,287.9,159.1,356.4
		C760.9,888.1,790.6,921.2,820.5,937.4L820.5,937.4z M1246.2,404.5c-84.3,157.2-132.3,247.5-187.5,323.3
		c-21.5,66.2-44.1,129.2-62.3,158.3c-4.8,7.6-9.7,14.4-14.8,20.3c7.5,13.1,15.9,24.3,25.5,32c1.1,0.9,2.1,1.7,3.2,2.5
		c2,1.3,4.2,2.2,6.6,2.7c46,4.8,112.3-64.2,153.7-145.7c94-184.9,147-296.8,204.4-406.3h-121.9L1246.2,404.5L1246.2,404.5z
		 M303.2,491.8C262.4,544.3,186.4,697,118.3,830.5c-10.7,42.1-19.1,86.2-24.9,131.7h82.5c33.2-95.8,171.7-329.4,252.1-414.4
		c15.2-16.1,29.6-30.7,43.5-43.9c1.4-3.2,2.9-6.4,4.4-9.7c9-19.6,18.7-35,28.7-47.2c-16.5-24-37.5-39.3-63.5-43.1
		c-25.7-1.8-55.9,7.2-90.5,36.8C335.6,453.7,319.8,470.4,303.2,491.8L303.2,491.8z"/>
	<path class="st18" d="M897.4,895.8c14.1,17.9,29.2,31.6,46.1,40.8c13.2-6.5,26-16.1,38.1-30.2c-10.2-17.9-18.6-39.2-25.6-60.1
		c-0.3,0.3-0.6,0.6-0.9,0.9c-11.6,11.5-24.2,22.8-37.5,33.4C911.1,885.8,904.3,890.9,897.4,895.8L897.4,895.8z M995.1,949.8
		c-19.2-0.3-36.2-4.9-51.6-13.2c-0.6,0.3-1.3,0.6-1.9,0.9c-8.2,3.9-16.5,6.6-24.9,8.4c-11.5,2.6-23.1,3.6-34.3,3.8L995.1,949.8
		L995.1,949.8z M820.5,937.4c-11,4-22,7.2-32.9,9.3c-9.8,1.9-19.5,3-29.1,3.1l107.3,0C850.4,949.2,835.4,945.4,820.5,937.4
		L820.5,937.4z"/>
	<path class="st19" d="M956,846.2c6.9,20.9,15.4,42.3,25.6,60.1c5.1-5.9,10-12.7,14.8-20.3c18.2-29.1,40.8-92.1,62.3-158.3
		C1028.9,768.7,996.9,805.5,956,846.2L956,846.2z"/>
	
		<linearGradient id="SVGID_00000039834282575058898110000018096978523703918474_" gradientUnits="userSpaceOnUse" x1="962.9906" y1="1465.6115" x2="962.9906" y2="1092.4115" gradientTransform="matrix(1.1208 0 0 -1.1208 25.2419 2052.3896)">
		<stop  offset="0" style="stop-color:#3291CD"/>
		<stop  offset="1" style="stop-color:#3995CF"/>
	</linearGradient>
	<path style="fill-rule:evenodd;clip-rule:evenodd;fill:url(#SVGID_00000039834282575058898110000018096978523703918474_);" d="
		M956,846.2c40.9-40.8,72.9-77.5,102.7-118.4c28.5-87.4,55.1-180.3,67.4-207.6c21.1-47,51.1-99.1,120.1-115.7
		c2.3-4.2,4.6-8.5,6.9-12.9c-106.5,0-166.8,51.8-201.5,164.8C1040.6,592,993,748.9,956,846.2L956,846.2z"/>
	<path class="st21" d="M1007,938.4c-9.5-7.8-18-18.9-25.5-32c-12.1,14.1-24.9,23.7-38.1,30.2c15.4,8.4,32.4,12.9,51.6,13.2h0l41.4,0
		c-9.6,0-18.3-3.3-26.3-9C1009.1,940.2,1008,939.3,1007,938.4L1007,938.4z M820.5,937.4c14.9,8,29.9,11.8,45.4,12.4l16.5,0
		c0,0,0,0,0,0c19.9-0.4,40.9-3.2,61.1-13.2c-16.9-9.2-32-23-46.1-40.8C873,913.1,846.8,927.7,820.5,937.4L820.5,937.4z"/>
	
		<linearGradient id="SVGID_00000091003714468729034250000010966150818814759099_" gradientUnits="userSpaceOnUse" x1="1083.8237" y1="1008.6392" x2="1083.8237" y2="1456.9321" gradientTransform="matrix(1.1208 0 0 -1.1208 25.2419 2052.3896)">
		<stop  offset="0" style="stop-color:#2E5EA0"/>
		<stop  offset="0.6" style="stop-color:#35B3EA"/>
		<stop  offset="1" style="stop-color:#35B3EA"/>
	</linearGradient>
	<path style="fill-rule:evenodd;clip-rule:evenodd;fill:url(#SVGID_00000091003714468729034250000010966150818814759099_);" d="
		M1174.1,834.8c-35.4,40.3-77.5,82.9-128.2,103.6c-11.9,4.9-21.4,6.8-29.1,5.1c-2.4-0.5-4.6-1.4-6.6-2.7c8,5.7,16.8,9,26.3,9
		c0,0,0,0,0,0c38.6,0,89.1-30.8,145.1-94.8c72.7-83,229-357.9,288-463.5h-75.4C1346.9,557.6,1273.7,721.4,1174.1,834.8L1174.1,834.8
		z"/>
	
		<linearGradient id="SVGID_00000075872625576548100760000007168347244953044394_" gradientUnits="userSpaceOnUse" x1="1092.3353" y1="1439.3154" x2="1013.0925" y2="1027.7612" gradientTransform="matrix(1.1208 0 0 -1.1208 25.2419 2052.3896)">
		<stop  offset="0" style="stop-color:#3B91CC"/>
		<stop  offset="0.9608" style="stop-color:#3774B2"/>
		<stop  offset="0.9608" style="stop-color:#3774B2"/>
		<stop  offset="1" style="stop-color:#3774B2"/>
	</linearGradient>
	<path style="fill-rule:evenodd;clip-rule:evenodd;fill:url(#SVGID_00000075872625576548100760000007168347244953044394_);" d="
		M1045.9,938.4c50.7-20.8,92.8-63.3,128.2-103.6c99.6-113.4,172.8-277.2,220.1-443.2H1375c-57.4,109.5-110.4,221.4-204.4,406.3
		c-41.4,81.5-107.7,150.4-153.7,145.7C1024.5,945.3,1034,943.3,1045.9,938.4L1045.9,938.4z M1126,520.2
		c-12.2,27.2-38.9,120.1-67.4,207.6c55.2-75.8,103.1-166.1,187.5-323.3C1177.1,421.1,1147.2,473.2,1126,520.2L1126,520.2z"/>
	<path class="st24" d="M698.6,406.2c7.7-1.6,15.1-2.6,22.4-3l-44.7,0C683.3,403.5,690.7,404.3,698.6,406.2L698.6,406.2z"/>
</g>
</svg>
